%TF.GenerationSoftware,KiCad,Pcbnew,9.0.4*%
%TF.CreationDate,2026-07-11T09:35:20-05:00*%
%TF.ProjectId,alarm_system_hardware,616c6172-6d5f-4737-9973-74656d5f6861,rev?*%
%TF.SameCoordinates,Original*%
%TF.FileFunction,Copper,L2,Inr*%
%TF.FilePolarity,Positive*%
%FSLAX46Y46*%
G04 Gerber Fmt 4.6, Leading zero omitted, Abs format (unit mm)*
G04 Created by KiCad (PCBNEW 9.0.4) date 2026-07-11 09:35:20*
%MOMM*%
%LPD*%
G01*
G04 APERTURE LIST*
G04 Aperture macros list*
%AMRoundRect*
0 Rectangle with rounded corners*
0 $1 Rounding radius*
0 $2 $3 $4 $5 $6 $7 $8 $9 X,Y pos of 4 corners*
0 Add a 4 corners polygon primitive as box body*
4,1,4,$2,$3,$4,$5,$6,$7,$8,$9,$2,$3,0*
0 Add four circle primitives for the rounded corners*
1,1,$1+$1,$2,$3*
1,1,$1+$1,$4,$5*
1,1,$1+$1,$6,$7*
1,1,$1+$1,$8,$9*
0 Add four rect primitives between the rounded corners*
20,1,$1+$1,$2,$3,$4,$5,0*
20,1,$1+$1,$4,$5,$6,$7,0*
20,1,$1+$1,$6,$7,$8,$9,0*
20,1,$1+$1,$8,$9,$2,$3,0*%
G04 Aperture macros list end*
%TA.AperFunction,ComponentPad*%
%ADD10O,2.100000X1.000000*%
%TD*%
%TA.AperFunction,ComponentPad*%
%ADD11O,1.800000X1.000000*%
%TD*%
%TA.AperFunction,ComponentPad*%
%ADD12RoundRect,0.250001X-0.949999X-0.949999X0.949999X-0.949999X0.949999X0.949999X-0.949999X0.949999X0*%
%TD*%
%TA.AperFunction,ComponentPad*%
%ADD13C,2.400000*%
%TD*%
%TA.AperFunction,ComponentPad*%
%ADD14R,1.700000X1.700000*%
%TD*%
%TA.AperFunction,ComponentPad*%
%ADD15C,1.700000*%
%TD*%
%TA.AperFunction,ComponentPad*%
%ADD16R,1.524000X1.524000*%
%TD*%
%TA.AperFunction,ComponentPad*%
%ADD17C,1.524000*%
%TD*%
%TA.AperFunction,ComponentPad*%
%ADD18C,1.320800*%
%TD*%
%TA.AperFunction,ComponentPad*%
%ADD19RoundRect,0.250000X-1.050000X1.050000X-1.050000X-1.050000X1.050000X-1.050000X1.050000X1.050000X0*%
%TD*%
%TA.AperFunction,ComponentPad*%
%ADD20C,2.600000*%
%TD*%
%TA.AperFunction,ViaPad*%
%ADD21C,0.600000*%
%TD*%
G04 APERTURE END LIST*
D10*
%TO.N,GND*%
%TO.C,J2*%
X67845000Y-52170000D03*
D11*
X63665000Y-52170000D03*
D10*
X67845000Y-60810000D03*
D11*
X63665000Y-60810000D03*
%TD*%
D12*
%TO.N,TS*%
%TO.C,J7*%
X87370000Y-89947500D03*
D13*
%TO.N,V_BAT*%
X90870000Y-89947500D03*
%TO.N,GND*%
X94370000Y-89947500D03*
%TD*%
D14*
%TO.N,JTAG_MTCK*%
%TO.C,J1*%
X135630000Y-36655000D03*
D15*
%TO.N,+3V3*%
X135630000Y-34115000D03*
%TO.N,JTAG_MTDO*%
X138170000Y-36655000D03*
%TO.N,ESP_RXD0*%
X138170000Y-34115000D03*
%TO.N,JTAG_MTDI*%
X140710000Y-36655000D03*
%TO.N,ESP_TXD0*%
X140710000Y-34115000D03*
%TO.N,JTAG_MTMS*%
X143250000Y-36655000D03*
%TO.N,GND*%
X143250000Y-34115000D03*
%TD*%
D16*
%TO.N,+3V3*%
%TO.C,BZ1*%
X128310000Y-68840000D03*
D17*
%TO.N,Net-(BZ1--)*%
X133310000Y-68840000D03*
%TD*%
D18*
%TO.N,Net-(J4-Pin_1)*%
%TO.C,J4*%
X151155100Y-64665100D03*
%TO.N,Net-(J4-Pin_2)*%
X151155100Y-62665099D03*
%TD*%
D19*
%TO.N,Net-(R10-Pad2)*%
%TO.C,SW4*%
X66740000Y-40060000D03*
D20*
%TO.N,GND*%
X66740000Y-45060000D03*
%TD*%
D21*
%TO.N,GND*%
X92590000Y-37600000D03*
X106670000Y-37600000D03*
X98910000Y-46830000D03*
X97300000Y-46840000D03*
X98860000Y-45390000D03*
X97250000Y-45400000D03*
X96470000Y-46070000D03*
X99470000Y-46070000D03*
X98080000Y-46050000D03*
X99460000Y-44580000D03*
X98070000Y-44560000D03*
X96460000Y-44580000D03*
X98760000Y-43710000D03*
X97150000Y-43720000D03*
X118810925Y-67434367D03*
X81660000Y-80767500D03*
X94080000Y-69350000D03*
X71390000Y-57859000D03*
X78541473Y-62662500D03*
X68920000Y-78077500D03*
X114120000Y-92500000D03*
X88860000Y-36570000D03*
X62090000Y-60860000D03*
X150230000Y-54720000D03*
X71090000Y-78077500D03*
X80140000Y-50590000D03*
X94585037Y-70756213D03*
X118791192Y-69099716D03*
X74760000Y-83457500D03*
X112730000Y-84880000D03*
X123900000Y-54110000D03*
X87350000Y-61260000D03*
X83080000Y-63322500D03*
X86180000Y-36570000D03*
X98581250Y-85000000D03*
X144570000Y-52270000D03*
X74770000Y-82497500D03*
X78930000Y-50630000D03*
X73510001Y-72609500D03*
X93299999Y-75290000D03*
X76830000Y-81507500D03*
X71382500Y-78510000D03*
X80870000Y-80787500D03*
X93504979Y-75959318D03*
X88240000Y-67916499D03*
X138170717Y-75722500D03*
X137260000Y-50220000D03*
X94568751Y-73472942D03*
X150230000Y-43760000D03*
X64510000Y-59700000D03*
X66110000Y-60810000D03*
X81940000Y-87620000D03*
X64690000Y-71870000D03*
X142602500Y-69800000D03*
X72190000Y-65180000D03*
X69030000Y-87310000D03*
X62050000Y-52120000D03*
X142562774Y-67264939D03*
X62750000Y-53350000D03*
X138800000Y-92500000D03*
X65470000Y-71850000D03*
X85590000Y-36850000D03*
X101380000Y-92650000D03*
X69830000Y-78047500D03*
X75570000Y-36470000D03*
X74160000Y-57850000D03*
X143870000Y-52270000D03*
X75410000Y-95490000D03*
X64390000Y-53350000D03*
X71120000Y-78937500D03*
X83020000Y-36710000D03*
X137680000Y-84930000D03*
X115896484Y-67432510D03*
X80610000Y-87590000D03*
X76820000Y-83377500D03*
X136610000Y-49780000D03*
X67820000Y-82667500D03*
X142372500Y-69020000D03*
X63320001Y-73049500D03*
X150230000Y-55510000D03*
X108930000Y-69850000D03*
X70070001Y-64829500D03*
X65270000Y-60810000D03*
X126480000Y-92540000D03*
X133810000Y-49690000D03*
X66210000Y-52140000D03*
X75820000Y-82510000D03*
X146900000Y-75960000D03*
X87370000Y-44970000D03*
X142740000Y-66050000D03*
X75830000Y-83387500D03*
X150740000Y-85150000D03*
X68264088Y-67818587D03*
X90528749Y-73192499D03*
X93940000Y-70100000D03*
X62550000Y-59760000D03*
X81270000Y-81237500D03*
X115969529Y-69143043D03*
X150230000Y-49190000D03*
X142412500Y-68310000D03*
X78650000Y-94450000D03*
X134500000Y-50150000D03*
X75820000Y-81517500D03*
X76810000Y-82497500D03*
X78540000Y-41300000D03*
X117435443Y-69081395D03*
X93881249Y-74150000D03*
X111140500Y-62000000D03*
X65210000Y-52100000D03*
X72180000Y-50250000D03*
X73190000Y-36410000D03*
X94568751Y-72054999D03*
X145830000Y-62700000D03*
X93660000Y-68620000D03*
X75590000Y-73557500D03*
X74790000Y-81507500D03*
X78250000Y-88330000D03*
X145280000Y-63280000D03*
X150230000Y-44520000D03*
X117382411Y-67443832D03*
X70890000Y-50170000D03*
X110140500Y-62010000D03*
X83380000Y-94840000D03*
X68570001Y-68439500D03*
X69350000Y-78380000D03*
X81290000Y-87600000D03*
X72330000Y-75020000D03*
X125050000Y-84910000D03*
X117369436Y-68259564D03*
X145230000Y-62680000D03*
%TO.N,+3V3*%
X96630000Y-80980000D03*
X89520000Y-48770000D03*
X142710000Y-70780000D03*
X141712500Y-88700000D03*
X71120000Y-48490000D03*
X112730000Y-87270000D03*
X76800000Y-39530000D03*
X135910000Y-45560000D03*
X128162500Y-88417500D03*
X142760000Y-71920000D03*
X101930000Y-76790000D03*
X106160000Y-62130000D03*
X105030000Y-62160000D03*
X137650000Y-87350000D03*
X144412500Y-88750000D03*
X106760000Y-68760000D03*
X130710000Y-44950000D03*
X81010000Y-48700000D03*
X116530000Y-88442500D03*
X130762500Y-88667500D03*
X111350000Y-50870000D03*
X119110000Y-88447500D03*
X101920000Y-87440000D03*
X101890000Y-79250000D03*
X77090000Y-38050000D03*
X101930000Y-81820000D03*
X71200000Y-92150000D03*
X77060000Y-40910000D03*
X94289780Y-81000219D03*
X138830000Y-41110000D03*
X101950000Y-84640000D03*
X94795000Y-80495000D03*
X130750000Y-43990000D03*
X96100000Y-80470000D03*
X124970000Y-87280000D03*
X141030000Y-71650000D03*
X63230000Y-85050000D03*
X127900000Y-52540000D03*
X127850000Y-51680000D03*
X150740000Y-87350000D03*
%TO.N,UBSC_VBUS*%
X81020000Y-54050000D03*
X82910000Y-56890000D03*
%TO.N,BAT_REGN*%
X79950000Y-88930000D03*
X76080000Y-78270000D03*
%TO.N,Net-(U6-~{VCONN_FAULT})*%
X75290000Y-64062500D03*
X79179265Y-63721765D03*
%TO.N,SCL*%
X86450000Y-51720000D03*
X87080000Y-54460000D03*
%TO.N,LED_!OE*%
X92570000Y-51220000D03*
X92570000Y-61940000D03*
%TO.N,SDA*%
X84390000Y-51930000D03*
X86010000Y-54970000D03*
%TO.N,USBC_CC1*%
X70967868Y-58959000D03*
X79640000Y-59400000D03*
X81180000Y-59100000D03*
X71240000Y-56130000D03*
%TO.N,ESP_TXD0*%
X113670000Y-41430000D03*
X120070000Y-41430000D03*
%TO.N,ESP_RXD0*%
X120530000Y-42710000D03*
X114660000Y-42680000D03*
%TO.N,SDCARD_CD{slash}CS*%
X93600000Y-46040000D03*
X131200000Y-47580000D03*
%TO.N,ARM_SWITCH*%
X97630000Y-57110000D03*
X148320000Y-80940000D03*
%TO.N,NOTIFICATIONS_SWITCH*%
X95050000Y-57750000D03*
X121890000Y-80160000D03*
%TO.N,AUDIO_ON_OFF_SWITCH*%
X96370000Y-57110000D03*
X134210000Y-80210000D03*
%TO.N,DAC_!SD_BOOT*%
X99920000Y-58030000D03*
X138110000Y-64800000D03*
%TO.N,DAC_GAIN_DRV*%
X136080000Y-60910000D03*
X101690000Y-56630000D03*
%TO.N,DAC_GAIN_BIAS*%
X138160000Y-61740000D03*
X101220000Y-57890000D03*
%TO.N,BATCHGR_ILIM*%
X74970000Y-86300000D03*
X68710000Y-76640000D03*
%TO.N,TUSB_OUT1*%
X80460000Y-65602500D03*
X80460000Y-68672500D03*
%TO.N,TUSB_OUT2*%
X81510000Y-68742500D03*
X81510000Y-65672500D03*
%TO.N,JTAG_MTMS*%
X125940000Y-47390000D03*
X119590000Y-47790000D03*
%TO.N,Net-(U6-ID)*%
X85760000Y-64172500D03*
X82610000Y-63972500D03*
%TO.N,unconnected-(TP10-Pad1)*%
X83267074Y-62544681D03*
X85040000Y-60010000D03*
%TO.N,Net-(D2-K)*%
X117692852Y-62553000D03*
X124170000Y-75110000D03*
%TO.N,Net-(D3-K)*%
X119230000Y-76760000D03*
X116232872Y-61583000D03*
%TO.N,Net-(D12-K)*%
X125360000Y-74460000D03*
X118353621Y-63003987D03*
%TO.N,Net-(D13-K)*%
X117026000Y-61763000D03*
X120440000Y-76080000D03*
%TO.N,V_BAT_ADC*%
X92751250Y-83290000D03*
X89370000Y-51870000D03*
%TO.N,/USBC_VBUS*%
X71000000Y-54610000D03*
X70005000Y-58835000D03*
X70625706Y-54975706D03*
X69260000Y-58920000D03*
%TO.N,SDCARD_CD*%
X135090000Y-41890000D03*
X92990000Y-41350000D03*
%TO.N,SDCARD_WP*%
X93720000Y-42410000D03*
X133190000Y-43050000D03*
%TO.N,BATTERY_LIFE_SWITCH*%
X113120000Y-81710000D03*
X93785000Y-58295000D03*
%TO.N,JTAG_MTCK*%
X121820000Y-43930000D03*
X115450000Y-43920000D03*
%TO.N,JTAG_MTDO*%
X117260000Y-45230000D03*
X123310000Y-45260000D03*
%TO.N,JTAG_MTDI*%
X124190000Y-46440000D03*
X118460000Y-46490000D03*
%TO.N,BUZZER_GPIO*%
X116160000Y-60170000D03*
X98410000Y-53510000D03*
%TD*%
%TA.AperFunction,Conductor*%
%TO.N,GND*%
G36*
X75493039Y-29520185D02*
G01*
X75538794Y-29572989D01*
X75550000Y-29624500D01*
X75550000Y-36110000D01*
X123550000Y-36110000D01*
X123550000Y-35785247D01*
X134579500Y-35785247D01*
X134579500Y-37524752D01*
X134591131Y-37583229D01*
X134591132Y-37583230D01*
X134635447Y-37649552D01*
X134701769Y-37693867D01*
X134701770Y-37693868D01*
X134760247Y-37705499D01*
X134760250Y-37705500D01*
X134760252Y-37705500D01*
X136499750Y-37705500D01*
X136499751Y-37705499D01*
X136514568Y-37702552D01*
X136558229Y-37693868D01*
X136558229Y-37693867D01*
X136558231Y-37693867D01*
X136624552Y-37649552D01*
X136668867Y-37583231D01*
X136668867Y-37583229D01*
X136668868Y-37583229D01*
X136680499Y-37524752D01*
X136680500Y-37524750D01*
X136680500Y-36551530D01*
X137119500Y-36551530D01*
X137119500Y-36758469D01*
X137159868Y-36961412D01*
X137159870Y-36961420D01*
X137239058Y-37152596D01*
X137354024Y-37324657D01*
X137500342Y-37470975D01*
X137500345Y-37470977D01*
X137672402Y-37585941D01*
X137863580Y-37665130D01*
X138008052Y-37693867D01*
X138066530Y-37705499D01*
X138066534Y-37705500D01*
X138066535Y-37705500D01*
X138273466Y-37705500D01*
X138273467Y-37705499D01*
X138476420Y-37665130D01*
X138667598Y-37585941D01*
X138839655Y-37470977D01*
X138985977Y-37324655D01*
X139100941Y-37152598D01*
X139180130Y-36961420D01*
X139220500Y-36758465D01*
X139220500Y-36551535D01*
X139220499Y-36551530D01*
X139659500Y-36551530D01*
X139659500Y-36758469D01*
X139699868Y-36961412D01*
X139699870Y-36961420D01*
X139779058Y-37152596D01*
X139894024Y-37324657D01*
X140040342Y-37470975D01*
X140040345Y-37470977D01*
X140212402Y-37585941D01*
X140403580Y-37665130D01*
X140548052Y-37693867D01*
X140606530Y-37705499D01*
X140606534Y-37705500D01*
X140606535Y-37705500D01*
X140813466Y-37705500D01*
X140813467Y-37705499D01*
X141016420Y-37665130D01*
X141207598Y-37585941D01*
X141379655Y-37470977D01*
X141525977Y-37324655D01*
X141640941Y-37152598D01*
X141720130Y-36961420D01*
X141760500Y-36758465D01*
X141760500Y-36551535D01*
X141720130Y-36348580D01*
X141640941Y-36157402D01*
X141525977Y-35985345D01*
X141525975Y-35985342D01*
X141379657Y-35839024D01*
X141211655Y-35726770D01*
X141207598Y-35724059D01*
X141207593Y-35724057D01*
X141016420Y-35644870D01*
X141016412Y-35644868D01*
X140813469Y-35604500D01*
X140813465Y-35604500D01*
X140606535Y-35604500D01*
X140606530Y-35604500D01*
X140403587Y-35644868D01*
X140403579Y-35644870D01*
X140212403Y-35724058D01*
X140040342Y-35839024D01*
X139894024Y-35985342D01*
X139779058Y-36157403D01*
X139699870Y-36348579D01*
X139699868Y-36348587D01*
X139659500Y-36551530D01*
X139220499Y-36551530D01*
X139180130Y-36348580D01*
X139100941Y-36157402D01*
X138985977Y-35985345D01*
X138985975Y-35985342D01*
X138839657Y-35839024D01*
X138671655Y-35726770D01*
X138667598Y-35724059D01*
X138667593Y-35724057D01*
X138476420Y-35644870D01*
X138476412Y-35644868D01*
X138273469Y-35604500D01*
X138273465Y-35604500D01*
X138066535Y-35604500D01*
X138066530Y-35604500D01*
X137863587Y-35644868D01*
X137863579Y-35644870D01*
X137672403Y-35724058D01*
X137500342Y-35839024D01*
X137354024Y-35985342D01*
X137239058Y-36157403D01*
X137159870Y-36348579D01*
X137159868Y-36348587D01*
X137119500Y-36551530D01*
X136680500Y-36551530D01*
X136680500Y-35785249D01*
X136680499Y-35785247D01*
X136668868Y-35726770D01*
X136668867Y-35726769D01*
X136624552Y-35660447D01*
X136558230Y-35616132D01*
X136558229Y-35616131D01*
X136499752Y-35604500D01*
X136499748Y-35604500D01*
X134760252Y-35604500D01*
X134760247Y-35604500D01*
X134701770Y-35616131D01*
X134701769Y-35616132D01*
X134635447Y-35660447D01*
X134591132Y-35726769D01*
X134591131Y-35726770D01*
X134579500Y-35785247D01*
X123550000Y-35785247D01*
X123550000Y-34011530D01*
X134579500Y-34011530D01*
X134579500Y-34218469D01*
X134619868Y-34421412D01*
X134619870Y-34421420D01*
X134685939Y-34580925D01*
X134699059Y-34612598D01*
X134712836Y-34633217D01*
X134814024Y-34784657D01*
X134960342Y-34930975D01*
X134960345Y-34930977D01*
X135132402Y-35045941D01*
X135323580Y-35125130D01*
X135526530Y-35165499D01*
X135526534Y-35165500D01*
X135526535Y-35165500D01*
X135733466Y-35165500D01*
X135733467Y-35165499D01*
X135936420Y-35125130D01*
X136127598Y-35045941D01*
X136299655Y-34930977D01*
X136445977Y-34784655D01*
X136560941Y-34612598D01*
X136640130Y-34421420D01*
X136680500Y-34218465D01*
X136680500Y-34011535D01*
X136680499Y-34011530D01*
X137119500Y-34011530D01*
X137119500Y-34218469D01*
X137159868Y-34421412D01*
X137159870Y-34421420D01*
X137225939Y-34580925D01*
X137239059Y-34612598D01*
X137252836Y-34633217D01*
X137354024Y-34784657D01*
X137500342Y-34930975D01*
X137500345Y-34930977D01*
X137672402Y-35045941D01*
X137863580Y-35125130D01*
X138066530Y-35165499D01*
X138066534Y-35165500D01*
X138066535Y-35165500D01*
X138273466Y-35165500D01*
X138273467Y-35165499D01*
X138476420Y-35125130D01*
X138667598Y-35045941D01*
X138839655Y-34930977D01*
X138985977Y-34784655D01*
X139100941Y-34612598D01*
X139180130Y-34421420D01*
X139220500Y-34218465D01*
X139220500Y-34011535D01*
X139220499Y-34011530D01*
X139659500Y-34011530D01*
X139659500Y-34218469D01*
X139699868Y-34421412D01*
X139699870Y-34421420D01*
X139765939Y-34580925D01*
X139779059Y-34612598D01*
X139792836Y-34633217D01*
X139894024Y-34784657D01*
X140040342Y-34930975D01*
X140040345Y-34930977D01*
X140212402Y-35045941D01*
X140403580Y-35125130D01*
X140606530Y-35165499D01*
X140606534Y-35165500D01*
X140606535Y-35165500D01*
X140813466Y-35165500D01*
X140813467Y-35165499D01*
X141016420Y-35125130D01*
X141207598Y-35045941D01*
X141379655Y-34930977D01*
X141525977Y-34784655D01*
X141640941Y-34612598D01*
X141709165Y-34447889D01*
X141753004Y-34393488D01*
X141819298Y-34371423D01*
X141886998Y-34388702D01*
X141934609Y-34439839D01*
X141941656Y-34457026D01*
X141998904Y-34633216D01*
X142095375Y-34822550D01*
X142134728Y-34876716D01*
X142767037Y-34244408D01*
X142784075Y-34307993D01*
X142849901Y-34422007D01*
X142942993Y-34515099D01*
X143057007Y-34580925D01*
X143120590Y-34597962D01*
X142488282Y-35230269D01*
X142488282Y-35230270D01*
X142542449Y-35269624D01*
X142731782Y-35366095D01*
X142907973Y-35423343D01*
X142965648Y-35462780D01*
X142992847Y-35527139D01*
X142980932Y-35595985D01*
X142933688Y-35647461D01*
X142917108Y-35655835D01*
X142752403Y-35724057D01*
X142580342Y-35839024D01*
X142434024Y-35985342D01*
X142319058Y-36157403D01*
X142239870Y-36348579D01*
X142239868Y-36348587D01*
X142199500Y-36551530D01*
X142199500Y-36758469D01*
X142239868Y-36961412D01*
X142239870Y-36961420D01*
X142319058Y-37152596D01*
X142434024Y-37324657D01*
X142580342Y-37470975D01*
X142580345Y-37470977D01*
X142752402Y-37585941D01*
X142943580Y-37665130D01*
X143088052Y-37693867D01*
X143146530Y-37705499D01*
X143146534Y-37705500D01*
X143146535Y-37705500D01*
X143353466Y-37705500D01*
X143353467Y-37705499D01*
X143556420Y-37665130D01*
X143747598Y-37585941D01*
X143919655Y-37470977D01*
X144065977Y-37324655D01*
X144180941Y-37152598D01*
X144260130Y-36961420D01*
X144300500Y-36758465D01*
X144300500Y-36551535D01*
X144260130Y-36348580D01*
X144180941Y-36157402D01*
X144065977Y-35985345D01*
X144065975Y-35985342D01*
X143919657Y-35839024D01*
X143751655Y-35726770D01*
X143747598Y-35724059D01*
X143747593Y-35724057D01*
X143594028Y-35660448D01*
X143582890Y-35655834D01*
X143528488Y-35611994D01*
X143506423Y-35545700D01*
X143523702Y-35478001D01*
X143574839Y-35430390D01*
X143592026Y-35423343D01*
X143768217Y-35366095D01*
X143957554Y-35269622D01*
X144011716Y-35230270D01*
X144011717Y-35230270D01*
X143379408Y-34597962D01*
X143442993Y-34580925D01*
X143557007Y-34515099D01*
X143650099Y-34422007D01*
X143715925Y-34307993D01*
X143732962Y-34244408D01*
X144365270Y-34876717D01*
X144365270Y-34876716D01*
X144404622Y-34822554D01*
X144501095Y-34633217D01*
X144566757Y-34431130D01*
X144566757Y-34431127D01*
X144600000Y-34221246D01*
X144600000Y-34008753D01*
X144566757Y-33798872D01*
X144566757Y-33798869D01*
X144501095Y-33596782D01*
X144404624Y-33407449D01*
X144365270Y-33353282D01*
X144365269Y-33353282D01*
X143732962Y-33985590D01*
X143715925Y-33922007D01*
X143650099Y-33807993D01*
X143557007Y-33714901D01*
X143442993Y-33649075D01*
X143379409Y-33632037D01*
X144011716Y-32999728D01*
X143982152Y-32978249D01*
X143982150Y-32978247D01*
X143957554Y-32960377D01*
X143957552Y-32960376D01*
X143803722Y-32881995D01*
X152199500Y-32881995D01*
X152199500Y-33118004D01*
X152199501Y-33118020D01*
X152230306Y-33352010D01*
X152291394Y-33579993D01*
X152381714Y-33798045D01*
X152381719Y-33798056D01*
X152409361Y-33845932D01*
X152499727Y-34002450D01*
X152499729Y-34002453D01*
X152499730Y-34002454D01*
X152643406Y-34189697D01*
X152643412Y-34189704D01*
X152810295Y-34356587D01*
X152810302Y-34356593D01*
X152858385Y-34393488D01*
X152997550Y-34500273D01*
X153128918Y-34576118D01*
X153201943Y-34618280D01*
X153201948Y-34618282D01*
X153201951Y-34618284D01*
X153420007Y-34708606D01*
X153647986Y-34769693D01*
X153881989Y-34800500D01*
X153881996Y-34800500D01*
X154118004Y-34800500D01*
X154118011Y-34800500D01*
X154352014Y-34769693D01*
X154579993Y-34708606D01*
X154798049Y-34618284D01*
X155002450Y-34500273D01*
X155189699Y-34356592D01*
X155356592Y-34189699D01*
X155500273Y-34002450D01*
X155618284Y-33798049D01*
X155708606Y-33579993D01*
X155769693Y-33352014D01*
X155800500Y-33118011D01*
X155800500Y-32881989D01*
X155769693Y-32647986D01*
X155708606Y-32420007D01*
X155618284Y-32201951D01*
X155618282Y-32201948D01*
X155618280Y-32201943D01*
X155576118Y-32128918D01*
X155500273Y-31997550D01*
X155356592Y-31810301D01*
X155356587Y-31810295D01*
X155189704Y-31643412D01*
X155189697Y-31643406D01*
X155002454Y-31499730D01*
X155002453Y-31499729D01*
X155002450Y-31499727D01*
X154920957Y-31452677D01*
X154798056Y-31381719D01*
X154798045Y-31381714D01*
X154579993Y-31291394D01*
X154352010Y-31230306D01*
X154118020Y-31199501D01*
X154118017Y-31199500D01*
X154118011Y-31199500D01*
X153881989Y-31199500D01*
X153881983Y-31199500D01*
X153881979Y-31199501D01*
X153647989Y-31230306D01*
X153420006Y-31291394D01*
X153201954Y-31381714D01*
X153201943Y-31381719D01*
X152997545Y-31499730D01*
X152810302Y-31643406D01*
X152810295Y-31643412D01*
X152643412Y-31810295D01*
X152643406Y-31810302D01*
X152499730Y-31997545D01*
X152381719Y-32201943D01*
X152381714Y-32201954D01*
X152291394Y-32420006D01*
X152230306Y-32647989D01*
X152199501Y-32881979D01*
X152199500Y-32881995D01*
X143803722Y-32881995D01*
X143768217Y-32863904D01*
X143566129Y-32798242D01*
X143356246Y-32765000D01*
X143143754Y-32765000D01*
X142933872Y-32798242D01*
X142933869Y-32798242D01*
X142731782Y-32863904D01*
X142542439Y-32960380D01*
X142488282Y-32999727D01*
X142488282Y-32999728D01*
X143120591Y-33632037D01*
X143057007Y-33649075D01*
X142942993Y-33714901D01*
X142849901Y-33807993D01*
X142784075Y-33922007D01*
X142767037Y-33985591D01*
X142134728Y-33353282D01*
X142134727Y-33353282D01*
X142095380Y-33407439D01*
X141998905Y-33596781D01*
X141941656Y-33772974D01*
X141902218Y-33830649D01*
X141837859Y-33857847D01*
X141769013Y-33845932D01*
X141717537Y-33798688D01*
X141709164Y-33782107D01*
X141640943Y-33617405D01*
X141525975Y-33445342D01*
X141379657Y-33299024D01*
X141293626Y-33241541D01*
X141207598Y-33184059D01*
X141016420Y-33104870D01*
X141016412Y-33104868D01*
X140813469Y-33064500D01*
X140813465Y-33064500D01*
X140606535Y-33064500D01*
X140606530Y-33064500D01*
X140403587Y-33104868D01*
X140403579Y-33104870D01*
X140212403Y-33184058D01*
X140040342Y-33299024D01*
X139894024Y-33445342D01*
X139779058Y-33617403D01*
X139699870Y-33808579D01*
X139699868Y-33808587D01*
X139659500Y-34011530D01*
X139220499Y-34011530D01*
X139180130Y-33808580D01*
X139100941Y-33617402D01*
X138985977Y-33445345D01*
X138985975Y-33445342D01*
X138839657Y-33299024D01*
X138753626Y-33241541D01*
X138667598Y-33184059D01*
X138476420Y-33104870D01*
X138476412Y-33104868D01*
X138273469Y-33064500D01*
X138273465Y-33064500D01*
X138066535Y-33064500D01*
X138066530Y-33064500D01*
X137863587Y-33104868D01*
X137863579Y-33104870D01*
X137672403Y-33184058D01*
X137500342Y-33299024D01*
X137354024Y-33445342D01*
X137239058Y-33617403D01*
X137159870Y-33808579D01*
X137159868Y-33808587D01*
X137119500Y-34011530D01*
X136680499Y-34011530D01*
X136640130Y-33808580D01*
X136560941Y-33617402D01*
X136445977Y-33445345D01*
X136445975Y-33445342D01*
X136299657Y-33299024D01*
X136213626Y-33241541D01*
X136127598Y-33184059D01*
X135936420Y-33104870D01*
X135936412Y-33104868D01*
X135733469Y-33064500D01*
X135733465Y-33064500D01*
X135526535Y-33064500D01*
X135526530Y-33064500D01*
X135323587Y-33104868D01*
X135323579Y-33104870D01*
X135132403Y-33184058D01*
X134960342Y-33299024D01*
X134814024Y-33445342D01*
X134699058Y-33617403D01*
X134619870Y-33808579D01*
X134619868Y-33808587D01*
X134579500Y-34011530D01*
X123550000Y-34011530D01*
X123550000Y-29624500D01*
X123569685Y-29557461D01*
X123622489Y-29511706D01*
X123674000Y-29500500D01*
X157375500Y-29500500D01*
X157442539Y-29520185D01*
X157488294Y-29572989D01*
X157499500Y-29624500D01*
X157499500Y-96075500D01*
X157479815Y-96142539D01*
X157427011Y-96188294D01*
X157375500Y-96199500D01*
X61624500Y-96199500D01*
X61557461Y-96179815D01*
X61511706Y-96127011D01*
X61500500Y-96075500D01*
X61500500Y-92581995D01*
X63199500Y-92581995D01*
X63199500Y-92818004D01*
X63199501Y-92818020D01*
X63230306Y-93052010D01*
X63291394Y-93279993D01*
X63381714Y-93498045D01*
X63381719Y-93498056D01*
X63452677Y-93620957D01*
X63499727Y-93702450D01*
X63499729Y-93702453D01*
X63499730Y-93702454D01*
X63643406Y-93889697D01*
X63643412Y-93889704D01*
X63810295Y-94056587D01*
X63810301Y-94056592D01*
X63997550Y-94200273D01*
X64128918Y-94276118D01*
X64201943Y-94318280D01*
X64201948Y-94318282D01*
X64201951Y-94318284D01*
X64420007Y-94408606D01*
X64647986Y-94469693D01*
X64881989Y-94500500D01*
X64881996Y-94500500D01*
X65118004Y-94500500D01*
X65118011Y-94500500D01*
X65352014Y-94469693D01*
X65579993Y-94408606D01*
X65798049Y-94318284D01*
X66002450Y-94200273D01*
X66189699Y-94056592D01*
X66356592Y-93889699D01*
X66500273Y-93702450D01*
X66618284Y-93498049D01*
X66708606Y-93279993D01*
X66769693Y-93052014D01*
X66800500Y-92818011D01*
X66800500Y-92581989D01*
X66769693Y-92347986D01*
X66708606Y-92120007D01*
X66693736Y-92084108D01*
X70699500Y-92084108D01*
X70699500Y-92215891D01*
X70733608Y-92343187D01*
X70766554Y-92400250D01*
X70799500Y-92457314D01*
X70892686Y-92550500D01*
X71006814Y-92616392D01*
X71134108Y-92650500D01*
X71134110Y-92650500D01*
X71265890Y-92650500D01*
X71265892Y-92650500D01*
X71393186Y-92616392D01*
X71452763Y-92581995D01*
X152199500Y-92581995D01*
X152199500Y-92818004D01*
X152199501Y-92818020D01*
X152230306Y-93052010D01*
X152291394Y-93279993D01*
X152381714Y-93498045D01*
X152381719Y-93498056D01*
X152452677Y-93620957D01*
X152499727Y-93702450D01*
X152499729Y-93702453D01*
X152499730Y-93702454D01*
X152643406Y-93889697D01*
X152643412Y-93889704D01*
X152810295Y-94056587D01*
X152810301Y-94056592D01*
X152997550Y-94200273D01*
X153128918Y-94276118D01*
X153201943Y-94318280D01*
X153201948Y-94318282D01*
X153201951Y-94318284D01*
X153420007Y-94408606D01*
X153647986Y-94469693D01*
X153881989Y-94500500D01*
X153881996Y-94500500D01*
X154118004Y-94500500D01*
X154118011Y-94500500D01*
X154352014Y-94469693D01*
X154579993Y-94408606D01*
X154798049Y-94318284D01*
X155002450Y-94200273D01*
X155189699Y-94056592D01*
X155356592Y-93889699D01*
X155500273Y-93702450D01*
X155618284Y-93498049D01*
X155708606Y-93279993D01*
X155769693Y-93052014D01*
X155800500Y-92818011D01*
X155800500Y-92581989D01*
X155769693Y-92347986D01*
X155708606Y-92120007D01*
X155618284Y-91901951D01*
X155618282Y-91901948D01*
X155618280Y-91901943D01*
X155576118Y-91828918D01*
X155500273Y-91697550D01*
X155356592Y-91510301D01*
X155356587Y-91510295D01*
X155189704Y-91343412D01*
X155189697Y-91343406D01*
X155002454Y-91199730D01*
X155002453Y-91199729D01*
X155002450Y-91199727D01*
X154908204Y-91145314D01*
X154798056Y-91081719D01*
X154798045Y-91081714D01*
X154579993Y-90991394D01*
X154352010Y-90930306D01*
X154118020Y-90899501D01*
X154118017Y-90899500D01*
X154118011Y-90899500D01*
X153881989Y-90899500D01*
X153881983Y-90899500D01*
X153881979Y-90899501D01*
X153647989Y-90930306D01*
X153420006Y-90991394D01*
X153201954Y-91081714D01*
X153201943Y-91081719D01*
X152997545Y-91199730D01*
X152810302Y-91343406D01*
X152810295Y-91343412D01*
X152643412Y-91510295D01*
X152643406Y-91510302D01*
X152499730Y-91697545D01*
X152381719Y-91901943D01*
X152381714Y-91901954D01*
X152291394Y-92120006D01*
X152230306Y-92347989D01*
X152199501Y-92581979D01*
X152199500Y-92581995D01*
X71452763Y-92581995D01*
X71507314Y-92550500D01*
X71600500Y-92457314D01*
X71666392Y-92343186D01*
X71700500Y-92215892D01*
X71700500Y-92084108D01*
X71666392Y-91956814D01*
X71600500Y-91842686D01*
X71507314Y-91749500D01*
X71450250Y-91716554D01*
X71393187Y-91683608D01*
X71329539Y-91666554D01*
X71265892Y-91649500D01*
X71134108Y-91649500D01*
X71006812Y-91683608D01*
X70892686Y-91749500D01*
X70892683Y-91749502D01*
X70799502Y-91842683D01*
X70799500Y-91842686D01*
X70733608Y-91956812D01*
X70699500Y-92084108D01*
X66693736Y-92084108D01*
X66618284Y-91901951D01*
X66618282Y-91901948D01*
X66618280Y-91901943D01*
X66576118Y-91828918D01*
X66500273Y-91697550D01*
X66356592Y-91510301D01*
X66356587Y-91510295D01*
X66189704Y-91343412D01*
X66189697Y-91343406D01*
X66002454Y-91199730D01*
X66002453Y-91199729D01*
X66002450Y-91199727D01*
X65908204Y-91145314D01*
X65798056Y-91081719D01*
X65798045Y-91081714D01*
X65579993Y-90991394D01*
X65352010Y-90930306D01*
X65118020Y-90899501D01*
X65118017Y-90899500D01*
X65118011Y-90899500D01*
X64881989Y-90899500D01*
X64881983Y-90899500D01*
X64881979Y-90899501D01*
X64647989Y-90930306D01*
X64420006Y-90991394D01*
X64201954Y-91081714D01*
X64201943Y-91081719D01*
X63997545Y-91199730D01*
X63810302Y-91343406D01*
X63810295Y-91343412D01*
X63643412Y-91510295D01*
X63643406Y-91510302D01*
X63499730Y-91697545D01*
X63381719Y-91901943D01*
X63381714Y-91901954D01*
X63291394Y-92120006D01*
X63230306Y-92347989D01*
X63199501Y-92581979D01*
X63199500Y-92581995D01*
X61500500Y-92581995D01*
X61500500Y-88864108D01*
X79449500Y-88864108D01*
X79449500Y-88995892D01*
X79452561Y-89007316D01*
X79483608Y-89123187D01*
X79508552Y-89166391D01*
X79549500Y-89237314D01*
X79642686Y-89330500D01*
X79756814Y-89396392D01*
X79884108Y-89430500D01*
X79884110Y-89430500D01*
X80015890Y-89430500D01*
X80015892Y-89430500D01*
X80143186Y-89396392D01*
X80257314Y-89330500D01*
X80350500Y-89237314D01*
X80416392Y-89123186D01*
X80450500Y-88995892D01*
X80450500Y-88943231D01*
X85969500Y-88943231D01*
X85969500Y-90951758D01*
X85972354Y-90982198D01*
X85972354Y-90982199D01*
X86017206Y-91110381D01*
X86017207Y-91110382D01*
X86097850Y-91219650D01*
X86207118Y-91300293D01*
X86335302Y-91345146D01*
X86335301Y-91345146D01*
X86339271Y-91345518D01*
X86365735Y-91348000D01*
X88374264Y-91347999D01*
X88404698Y-91345146D01*
X88532882Y-91300293D01*
X88642150Y-91219650D01*
X88722793Y-91110382D01*
X88767646Y-90982198D01*
X88770500Y-90951765D01*
X88770499Y-89837278D01*
X89469500Y-89837278D01*
X89469500Y-90057722D01*
X89486742Y-90166586D01*
X89503985Y-90275452D01*
X89572103Y-90485103D01*
X89572104Y-90485106D01*
X89672187Y-90681525D01*
X89801752Y-90859858D01*
X89801756Y-90859863D01*
X89957636Y-91015743D01*
X89957641Y-91015747D01*
X90113192Y-91128760D01*
X90135978Y-91145315D01*
X90264375Y-91210737D01*
X90332393Y-91245395D01*
X90332396Y-91245396D01*
X90437221Y-91279455D01*
X90542049Y-91313515D01*
X90759778Y-91348000D01*
X90759779Y-91348000D01*
X90980221Y-91348000D01*
X90980222Y-91348000D01*
X91197951Y-91313515D01*
X91407606Y-91245395D01*
X91604022Y-91145315D01*
X91782365Y-91015742D01*
X91938242Y-90859865D01*
X92067815Y-90681522D01*
X92167895Y-90485106D01*
X92236015Y-90275451D01*
X92270500Y-90057722D01*
X92270500Y-89837278D01*
X92270309Y-89836075D01*
X92670000Y-89836075D01*
X92670000Y-90058924D01*
X92699085Y-90279854D01*
X92699088Y-90279867D01*
X92756763Y-90495118D01*
X92842045Y-90701002D01*
X92842054Y-90701020D01*
X92953464Y-90893991D01*
X92953473Y-90894004D01*
X93004040Y-90959903D01*
X93004043Y-90959903D01*
X93805387Y-90158559D01*
X93810889Y-90179091D01*
X93889881Y-90315908D01*
X94001592Y-90427619D01*
X94138409Y-90506611D01*
X94158940Y-90512112D01*
X93357595Y-91313455D01*
X93357595Y-91313456D01*
X93423507Y-91364033D01*
X93616485Y-91475449D01*
X93616497Y-91475454D01*
X93822381Y-91560736D01*
X94037632Y-91618411D01*
X94037645Y-91618414D01*
X94258575Y-91647500D01*
X94481425Y-91647500D01*
X94702354Y-91618414D01*
X94702367Y-91618411D01*
X94917618Y-91560736D01*
X95123502Y-91475454D01*
X95123514Y-91475449D01*
X95316498Y-91364030D01*
X95382403Y-91313457D01*
X95382404Y-91313456D01*
X94581059Y-90512112D01*
X94601591Y-90506611D01*
X94738408Y-90427619D01*
X94850119Y-90315908D01*
X94929111Y-90179091D01*
X94934612Y-90158559D01*
X95735956Y-90959904D01*
X95735957Y-90959903D01*
X95786530Y-90893998D01*
X95897949Y-90701014D01*
X95897954Y-90701002D01*
X95983236Y-90495118D01*
X96040911Y-90279867D01*
X96040914Y-90279854D01*
X96070000Y-90058924D01*
X96070000Y-89836075D01*
X96040914Y-89615145D01*
X96040911Y-89615132D01*
X95983236Y-89399881D01*
X95897954Y-89193997D01*
X95897949Y-89193985D01*
X95786533Y-89001007D01*
X95735956Y-88935095D01*
X95735955Y-88935095D01*
X94934612Y-89736439D01*
X94929111Y-89715909D01*
X94850119Y-89579092D01*
X94738408Y-89467381D01*
X94601591Y-89388389D01*
X94581058Y-89382887D01*
X95382403Y-88581543D01*
X95382403Y-88581540D01*
X95316504Y-88530973D01*
X95316497Y-88530968D01*
X95221062Y-88475869D01*
X95221061Y-88475869D01*
X95123509Y-88419548D01*
X95123502Y-88419545D01*
X95019845Y-88376608D01*
X116029500Y-88376608D01*
X116029500Y-88508392D01*
X116035548Y-88530962D01*
X116063608Y-88635687D01*
X116091566Y-88684110D01*
X116129500Y-88749814D01*
X116222686Y-88843000D01*
X116336814Y-88908892D01*
X116464108Y-88943000D01*
X116464110Y-88943000D01*
X116595890Y-88943000D01*
X116595892Y-88943000D01*
X116723186Y-88908892D01*
X116837314Y-88843000D01*
X116930500Y-88749814D01*
X116996392Y-88635686D01*
X117030500Y-88508392D01*
X117030500Y-88381608D01*
X118609500Y-88381608D01*
X118609500Y-88513392D01*
X118619270Y-88549853D01*
X118643608Y-88640687D01*
X118648757Y-88649605D01*
X118709500Y-88754814D01*
X118802686Y-88848000D01*
X118880952Y-88893187D01*
X118914922Y-88912800D01*
X118916814Y-88913892D01*
X119044108Y-88948000D01*
X119044110Y-88948000D01*
X119175890Y-88948000D01*
X119175892Y-88948000D01*
X119303186Y-88913892D01*
X119417314Y-88848000D01*
X119510500Y-88754814D01*
X119576392Y-88640686D01*
X119610500Y-88513392D01*
X119610500Y-88381608D01*
X119602462Y-88351608D01*
X127662000Y-88351608D01*
X127662000Y-88483392D01*
X127674355Y-88529502D01*
X127696108Y-88610687D01*
X127713429Y-88640687D01*
X127762000Y-88724814D01*
X127855186Y-88818000D01*
X127969314Y-88883892D01*
X128096608Y-88918000D01*
X128096610Y-88918000D01*
X128228390Y-88918000D01*
X128228392Y-88918000D01*
X128355686Y-88883892D01*
X128469814Y-88818000D01*
X128563000Y-88724814D01*
X128628892Y-88610686D01*
X128631324Y-88601608D01*
X130262000Y-88601608D01*
X130262000Y-88733392D01*
X130270708Y-88765890D01*
X130296108Y-88860687D01*
X130323939Y-88908891D01*
X130362000Y-88974814D01*
X130455186Y-89068000D01*
X130569314Y-89133892D01*
X130696608Y-89168000D01*
X130696610Y-89168000D01*
X130828390Y-89168000D01*
X130828392Y-89168000D01*
X130955686Y-89133892D01*
X131069814Y-89068000D01*
X131163000Y-88974814D01*
X131228892Y-88860686D01*
X131263000Y-88733392D01*
X131263000Y-88634108D01*
X141212000Y-88634108D01*
X141212000Y-88765891D01*
X141246108Y-88893187D01*
X141275004Y-88943235D01*
X141312000Y-89007314D01*
X141405186Y-89100500D01*
X141519314Y-89166392D01*
X141646608Y-89200500D01*
X141646610Y-89200500D01*
X141778390Y-89200500D01*
X141778392Y-89200500D01*
X141905686Y-89166392D01*
X142019814Y-89100500D01*
X142113000Y-89007314D01*
X142178892Y-88893186D01*
X142213000Y-88765892D01*
X142213000Y-88684108D01*
X143912000Y-88684108D01*
X143912000Y-88815892D01*
X143920603Y-88847999D01*
X143946108Y-88943187D01*
X143976537Y-88995890D01*
X144012000Y-89057314D01*
X144105186Y-89150500D01*
X144219314Y-89216392D01*
X144346608Y-89250500D01*
X144346610Y-89250500D01*
X144478390Y-89250500D01*
X144478392Y-89250500D01*
X144605686Y-89216392D01*
X144719814Y-89150500D01*
X144813000Y-89057314D01*
X144878892Y-88943186D01*
X144913000Y-88815892D01*
X144913000Y-88684108D01*
X144878892Y-88556814D01*
X144873226Y-88547001D01*
X144853822Y-88513392D01*
X144813000Y-88442686D01*
X144719814Y-88349500D01*
X144662750Y-88316554D01*
X144605687Y-88283608D01*
X144496358Y-88254314D01*
X144478392Y-88249500D01*
X144346608Y-88249500D01*
X144219312Y-88283608D01*
X144105186Y-88349500D01*
X144105183Y-88349502D01*
X144012002Y-88442683D01*
X144012000Y-88442686D01*
X143946108Y-88556812D01*
X143921245Y-88649603D01*
X143912000Y-88684108D01*
X142213000Y-88684108D01*
X142213000Y-88634108D01*
X142178892Y-88506814D01*
X142113000Y-88392686D01*
X142019814Y-88299500D01*
X141941550Y-88254314D01*
X141905687Y-88233608D01*
X141842039Y-88216554D01*
X141778392Y-88199500D01*
X141646608Y-88199500D01*
X141519312Y-88233608D01*
X141405186Y-88299500D01*
X141405183Y-88299502D01*
X141312002Y-88392683D01*
X141312000Y-88392686D01*
X141246108Y-88506812D01*
X141212000Y-88634108D01*
X131263000Y-88634108D01*
X131263000Y-88601608D01*
X131228892Y-88474314D01*
X131163000Y-88360186D01*
X131069814Y-88267000D01*
X130995880Y-88224314D01*
X130955687Y-88201108D01*
X130892039Y-88184054D01*
X130828392Y-88167000D01*
X130696608Y-88167000D01*
X130569312Y-88201108D01*
X130455186Y-88267000D01*
X130455183Y-88267002D01*
X130362002Y-88360183D01*
X130362000Y-88360186D01*
X130296108Y-88474312D01*
X130275867Y-88549854D01*
X130262000Y-88601608D01*
X128631324Y-88601608D01*
X128663000Y-88483392D01*
X128663000Y-88351608D01*
X128628892Y-88224314D01*
X128563000Y-88110186D01*
X128469814Y-88017000D01*
X128398987Y-87976108D01*
X128355687Y-87951108D01*
X128292039Y-87934054D01*
X128228392Y-87917000D01*
X128096608Y-87917000D01*
X127969312Y-87951108D01*
X127855186Y-88017000D01*
X127855183Y-88017002D01*
X127762002Y-88110183D01*
X127762000Y-88110186D01*
X127696108Y-88224312D01*
X127662565Y-88349500D01*
X127662000Y-88351608D01*
X119602462Y-88351608D01*
X119576392Y-88254314D01*
X119510500Y-88140186D01*
X119417314Y-88047000D01*
X119360250Y-88014054D01*
X119303187Y-87981108D01*
X119191223Y-87951108D01*
X119175892Y-87947000D01*
X119044108Y-87947000D01*
X118916812Y-87981108D01*
X118802686Y-88047000D01*
X118802683Y-88047002D01*
X118709502Y-88140183D01*
X118709500Y-88140186D01*
X118643608Y-88254312D01*
X118631500Y-88299502D01*
X118609500Y-88381608D01*
X117030500Y-88381608D01*
X117030500Y-88376608D01*
X116996392Y-88249314D01*
X116930500Y-88135186D01*
X116837314Y-88042000D01*
X116780250Y-88009054D01*
X116723187Y-87976108D01*
X116659539Y-87959054D01*
X116595892Y-87942000D01*
X116464108Y-87942000D01*
X116336812Y-87976108D01*
X116222686Y-88042000D01*
X116222683Y-88042002D01*
X116129502Y-88135183D01*
X116129500Y-88135186D01*
X116063608Y-88249312D01*
X116056300Y-88276588D01*
X116029500Y-88376608D01*
X95019845Y-88376608D01*
X94917618Y-88334263D01*
X94702367Y-88276588D01*
X94702354Y-88276585D01*
X94481425Y-88247500D01*
X94258575Y-88247500D01*
X94037645Y-88276585D01*
X94037632Y-88276588D01*
X93822381Y-88334263D01*
X93616497Y-88419545D01*
X93616479Y-88419554D01*
X93423511Y-88530962D01*
X93357595Y-88581542D01*
X94158941Y-89382887D01*
X94138409Y-89388389D01*
X94001592Y-89467381D01*
X93889881Y-89579092D01*
X93810889Y-89715909D01*
X93805387Y-89736440D01*
X93004042Y-88935095D01*
X92953462Y-89001011D01*
X92842054Y-89193979D01*
X92842045Y-89193997D01*
X92756763Y-89399881D01*
X92699088Y-89615132D01*
X92699085Y-89615145D01*
X92670000Y-89836075D01*
X92270309Y-89836075D01*
X92236015Y-89619549D01*
X92201955Y-89514721D01*
X92167896Y-89409896D01*
X92167895Y-89409893D01*
X92127440Y-89330497D01*
X92067815Y-89213478D01*
X92051260Y-89190692D01*
X91938247Y-89035141D01*
X91938243Y-89035136D01*
X91782363Y-88879256D01*
X91782358Y-88879252D01*
X91604023Y-88749685D01*
X91584976Y-88739980D01*
X91584975Y-88739980D01*
X91407606Y-88649604D01*
X91407603Y-88649603D01*
X91197952Y-88581485D01*
X91089086Y-88564242D01*
X90980222Y-88547000D01*
X90759778Y-88547000D01*
X90741759Y-88549854D01*
X90542047Y-88581485D01*
X90332396Y-88649603D01*
X90332393Y-88649604D01*
X90135974Y-88749687D01*
X89957641Y-88879252D01*
X89957636Y-88879256D01*
X89801756Y-89035136D01*
X89801752Y-89035141D01*
X89672187Y-89213474D01*
X89572104Y-89409893D01*
X89572103Y-89409896D01*
X89503985Y-89619547D01*
X89503985Y-89619549D01*
X89469500Y-89837278D01*
X88770499Y-89837278D01*
X88770499Y-88943236D01*
X88767646Y-88912802D01*
X88722793Y-88784618D01*
X88642150Y-88675350D01*
X88554533Y-88610686D01*
X88532881Y-88594706D01*
X88404695Y-88549853D01*
X88404698Y-88549853D01*
X88374268Y-88547000D01*
X86365741Y-88547000D01*
X86335301Y-88549854D01*
X86335300Y-88549854D01*
X86207118Y-88594706D01*
X86097850Y-88675350D01*
X86017206Y-88784618D01*
X85972353Y-88912802D01*
X85969500Y-88943231D01*
X80450500Y-88943231D01*
X80450500Y-88864108D01*
X80416392Y-88736814D01*
X80350500Y-88622686D01*
X80257314Y-88529500D01*
X80177451Y-88483391D01*
X80143187Y-88463608D01*
X80065092Y-88442683D01*
X80015892Y-88429500D01*
X79884108Y-88429500D01*
X79756812Y-88463608D01*
X79642686Y-88529500D01*
X79642683Y-88529502D01*
X79549502Y-88622683D01*
X79549500Y-88622686D01*
X79483608Y-88736812D01*
X79462419Y-88815892D01*
X79449500Y-88864108D01*
X61500500Y-88864108D01*
X61500500Y-87374108D01*
X101419500Y-87374108D01*
X101419500Y-87505891D01*
X101453608Y-87633187D01*
X101475151Y-87670499D01*
X101519500Y-87747314D01*
X101612686Y-87840500D01*
X101726814Y-87906392D01*
X101854108Y-87940500D01*
X101854110Y-87940500D01*
X101985890Y-87940500D01*
X101985892Y-87940500D01*
X102113186Y-87906392D01*
X102227314Y-87840500D01*
X102320500Y-87747314D01*
X102386392Y-87633186D01*
X102420500Y-87505892D01*
X102420500Y-87374108D01*
X102386392Y-87246814D01*
X102361736Y-87204108D01*
X112229500Y-87204108D01*
X112229500Y-87335892D01*
X112239740Y-87374108D01*
X112263608Y-87463187D01*
X112269382Y-87473187D01*
X112329500Y-87577314D01*
X112422686Y-87670500D01*
X112536814Y-87736392D01*
X112664108Y-87770500D01*
X112664110Y-87770500D01*
X112795890Y-87770500D01*
X112795892Y-87770500D01*
X112923186Y-87736392D01*
X113037314Y-87670500D01*
X113130500Y-87577314D01*
X113196392Y-87463186D01*
X113230500Y-87335892D01*
X113230500Y-87214108D01*
X124469500Y-87214108D01*
X124469500Y-87345892D01*
X124477061Y-87374110D01*
X124503608Y-87473187D01*
X124522490Y-87505891D01*
X124569500Y-87587314D01*
X124662686Y-87680500D01*
X124776814Y-87746392D01*
X124904108Y-87780500D01*
X124904110Y-87780500D01*
X125035890Y-87780500D01*
X125035892Y-87780500D01*
X125163186Y-87746392D01*
X125277314Y-87680500D01*
X125370500Y-87587314D01*
X125436392Y-87473186D01*
X125470500Y-87345892D01*
X125470500Y-87284108D01*
X137149500Y-87284108D01*
X137149500Y-87415891D01*
X137183608Y-87543187D01*
X137216554Y-87600250D01*
X137249500Y-87657314D01*
X137342686Y-87750500D01*
X137456814Y-87816392D01*
X137584108Y-87850500D01*
X137584110Y-87850500D01*
X137715890Y-87850500D01*
X137715892Y-87850500D01*
X137843186Y-87816392D01*
X137957314Y-87750500D01*
X138050500Y-87657314D01*
X138116392Y-87543186D01*
X138150500Y-87415892D01*
X138150500Y-87284108D01*
X150239500Y-87284108D01*
X150239500Y-87415891D01*
X150273608Y-87543187D01*
X150306554Y-87600250D01*
X150339500Y-87657314D01*
X150432686Y-87750500D01*
X150546814Y-87816392D01*
X150674108Y-87850500D01*
X150674110Y-87850500D01*
X150805890Y-87850500D01*
X150805892Y-87850500D01*
X150933186Y-87816392D01*
X151047314Y-87750500D01*
X151140500Y-87657314D01*
X151206392Y-87543186D01*
X151240500Y-87415892D01*
X151240500Y-87284108D01*
X151206392Y-87156814D01*
X151140500Y-87042686D01*
X151047314Y-86949500D01*
X150990250Y-86916554D01*
X150933187Y-86883608D01*
X150869539Y-86866554D01*
X150805892Y-86849500D01*
X150674108Y-86849500D01*
X150546812Y-86883608D01*
X150432686Y-86949500D01*
X150432683Y-86949502D01*
X150339502Y-87042683D01*
X150339500Y-87042686D01*
X150273608Y-87156812D01*
X150239500Y-87284108D01*
X138150500Y-87284108D01*
X138116392Y-87156814D01*
X138050500Y-87042686D01*
X137957314Y-86949500D01*
X137900250Y-86916554D01*
X137843187Y-86883608D01*
X137779539Y-86866554D01*
X137715892Y-86849500D01*
X137584108Y-86849500D01*
X137456812Y-86883608D01*
X137342686Y-86949500D01*
X137342683Y-86949502D01*
X137249502Y-87042683D01*
X137249500Y-87042686D01*
X137183608Y-87156812D01*
X137149500Y-87284108D01*
X125470500Y-87284108D01*
X125470500Y-87214108D01*
X125436392Y-87086814D01*
X125430618Y-87076814D01*
X125427563Y-87071521D01*
X125370500Y-86972686D01*
X125277314Y-86879500D01*
X125220250Y-86846554D01*
X125163187Y-86813608D01*
X125099539Y-86796554D01*
X125035892Y-86779500D01*
X124904108Y-86779500D01*
X124776812Y-86813608D01*
X124662686Y-86879500D01*
X124662683Y-86879502D01*
X124569502Y-86972683D01*
X124569500Y-86972686D01*
X124503608Y-87086812D01*
X124472179Y-87204108D01*
X124469500Y-87214108D01*
X113230500Y-87214108D01*
X113230500Y-87204108D01*
X113196392Y-87076814D01*
X113130500Y-86962686D01*
X113037314Y-86869500D01*
X112980250Y-86836554D01*
X112923187Y-86803608D01*
X112859539Y-86786554D01*
X112795892Y-86769500D01*
X112664108Y-86769500D01*
X112536812Y-86803608D01*
X112422686Y-86869500D01*
X112422683Y-86869502D01*
X112329502Y-86962683D01*
X112329500Y-86962686D01*
X112263608Y-87076812D01*
X112248638Y-87132683D01*
X112229500Y-87204108D01*
X102361736Y-87204108D01*
X102320500Y-87132686D01*
X102227314Y-87039500D01*
X102170250Y-87006554D01*
X102113187Y-86973608D01*
X102023220Y-86949502D01*
X101985892Y-86939500D01*
X101854108Y-86939500D01*
X101726812Y-86973608D01*
X101612686Y-87039500D01*
X101612683Y-87039502D01*
X101519502Y-87132683D01*
X101519500Y-87132686D01*
X101453608Y-87246812D01*
X101419500Y-87374108D01*
X61500500Y-87374108D01*
X61500500Y-86234108D01*
X74469500Y-86234108D01*
X74469500Y-86365891D01*
X74503608Y-86493187D01*
X74536554Y-86550250D01*
X74569500Y-86607314D01*
X74662686Y-86700500D01*
X74776814Y-86766392D01*
X74904108Y-86800500D01*
X74904110Y-86800500D01*
X75035890Y-86800500D01*
X75035892Y-86800500D01*
X75163186Y-86766392D01*
X75277314Y-86700500D01*
X75370500Y-86607314D01*
X75436392Y-86493186D01*
X75470500Y-86365892D01*
X75470500Y-86234108D01*
X75436392Y-86106814D01*
X75370500Y-85992686D01*
X75277314Y-85899500D01*
X75220250Y-85866554D01*
X75163187Y-85833608D01*
X75099539Y-85816554D01*
X75035892Y-85799500D01*
X74904108Y-85799500D01*
X74776812Y-85833608D01*
X74662686Y-85899500D01*
X74662683Y-85899502D01*
X74569502Y-85992683D01*
X74569500Y-85992686D01*
X74503608Y-86106812D01*
X74469500Y-86234108D01*
X61500500Y-86234108D01*
X61500500Y-84984108D01*
X62729500Y-84984108D01*
X62729500Y-85115892D01*
X62736094Y-85140500D01*
X62763608Y-85243187D01*
X62796554Y-85300250D01*
X62829500Y-85357314D01*
X62922686Y-85450500D01*
X63036814Y-85516392D01*
X63164108Y-85550500D01*
X63164110Y-85550500D01*
X63295890Y-85550500D01*
X63295892Y-85550500D01*
X63423186Y-85516392D01*
X63537314Y-85450500D01*
X63630500Y-85357314D01*
X63696392Y-85243186D01*
X63730500Y-85115892D01*
X63730500Y-84984108D01*
X63696392Y-84856814D01*
X63630500Y-84742686D01*
X63537314Y-84649500D01*
X63480250Y-84616554D01*
X63423187Y-84583608D01*
X63387732Y-84574108D01*
X101449500Y-84574108D01*
X101449500Y-84705891D01*
X101483608Y-84833187D01*
X101516554Y-84890250D01*
X101549500Y-84947314D01*
X101642686Y-85040500D01*
X101756814Y-85106392D01*
X101884108Y-85140500D01*
X101884110Y-85140500D01*
X102015890Y-85140500D01*
X102015892Y-85140500D01*
X102143186Y-85106392D01*
X102257314Y-85040500D01*
X102350500Y-84947314D01*
X102416392Y-84833186D01*
X102450500Y-84705892D01*
X102450500Y-84574108D01*
X102416392Y-84446814D01*
X102350500Y-84332686D01*
X102257314Y-84239500D01*
X102200250Y-84206554D01*
X102143187Y-84173608D01*
X102079539Y-84156554D01*
X102015892Y-84139500D01*
X101884108Y-84139500D01*
X101756812Y-84173608D01*
X101642686Y-84239500D01*
X101642683Y-84239502D01*
X101549502Y-84332683D01*
X101549500Y-84332686D01*
X101483608Y-84446812D01*
X101449500Y-84574108D01*
X63387732Y-84574108D01*
X63359539Y-84566554D01*
X63295892Y-84549500D01*
X63164108Y-84549500D01*
X63036812Y-84583608D01*
X62922686Y-84649500D01*
X62922683Y-84649502D01*
X62829502Y-84742683D01*
X62829500Y-84742686D01*
X62763608Y-84856812D01*
X62739359Y-84947313D01*
X62729500Y-84984108D01*
X61500500Y-84984108D01*
X61500500Y-83224108D01*
X92250750Y-83224108D01*
X92250750Y-83355891D01*
X92284858Y-83483187D01*
X92317804Y-83540250D01*
X92350750Y-83597314D01*
X92443936Y-83690500D01*
X92558064Y-83756392D01*
X92685358Y-83790500D01*
X92685360Y-83790500D01*
X92817140Y-83790500D01*
X92817142Y-83790500D01*
X92944436Y-83756392D01*
X93058564Y-83690500D01*
X93151750Y-83597314D01*
X93217642Y-83483186D01*
X93251750Y-83355892D01*
X93251750Y-83224108D01*
X93217642Y-83096814D01*
X93151750Y-82982686D01*
X93058564Y-82889500D01*
X93001500Y-82856554D01*
X92944437Y-82823608D01*
X92880789Y-82806554D01*
X92817142Y-82789500D01*
X92685358Y-82789500D01*
X92558062Y-82823608D01*
X92443936Y-82889500D01*
X92443933Y-82889502D01*
X92350752Y-82982683D01*
X92350750Y-82982686D01*
X92284858Y-83096812D01*
X92250750Y-83224108D01*
X61500500Y-83224108D01*
X61500500Y-81754108D01*
X101429500Y-81754108D01*
X101429500Y-81885891D01*
X101463608Y-82013187D01*
X101465991Y-82017314D01*
X101529500Y-82127314D01*
X101622686Y-82220500D01*
X101736814Y-82286392D01*
X101864108Y-82320500D01*
X101864110Y-82320500D01*
X101995890Y-82320500D01*
X101995892Y-82320500D01*
X102123186Y-82286392D01*
X102237314Y-82220500D01*
X102330500Y-82127314D01*
X102396392Y-82013186D01*
X102430500Y-81885892D01*
X102430500Y-81754108D01*
X102401026Y-81644108D01*
X112619500Y-81644108D01*
X112619500Y-81775891D01*
X112653608Y-81903187D01*
X112686554Y-81960250D01*
X112719500Y-82017314D01*
X112812686Y-82110500D01*
X112926814Y-82176392D01*
X113054108Y-82210500D01*
X113054110Y-82210500D01*
X113185890Y-82210500D01*
X113185892Y-82210500D01*
X113313186Y-82176392D01*
X113427314Y-82110500D01*
X113520500Y-82017314D01*
X113586392Y-81903186D01*
X113620500Y-81775892D01*
X113620500Y-81644108D01*
X113586392Y-81516814D01*
X113520500Y-81402686D01*
X113427314Y-81309500D01*
X113370250Y-81276554D01*
X113313187Y-81243608D01*
X113249539Y-81226554D01*
X113185892Y-81209500D01*
X113054108Y-81209500D01*
X112926812Y-81243608D01*
X112812686Y-81309500D01*
X112812683Y-81309502D01*
X112719502Y-81402683D01*
X112719500Y-81402686D01*
X112653608Y-81516812D01*
X112619500Y-81644108D01*
X102401026Y-81644108D01*
X102396392Y-81626814D01*
X102330500Y-81512686D01*
X102237314Y-81419500D01*
X102169764Y-81380500D01*
X102123187Y-81353608D01*
X102059539Y-81336554D01*
X101995892Y-81319500D01*
X101864108Y-81319500D01*
X101736812Y-81353608D01*
X101622686Y-81419500D01*
X101622683Y-81419502D01*
X101529502Y-81512683D01*
X101529500Y-81512686D01*
X101463608Y-81626812D01*
X101429500Y-81754108D01*
X61500500Y-81754108D01*
X61500500Y-80934327D01*
X93789280Y-80934327D01*
X93789280Y-81066111D01*
X93806334Y-81129758D01*
X93823388Y-81193406D01*
X93832680Y-81209500D01*
X93889280Y-81307533D01*
X93982466Y-81400719D01*
X94096594Y-81466611D01*
X94223888Y-81500719D01*
X94223890Y-81500719D01*
X94355670Y-81500719D01*
X94355672Y-81500719D01*
X94482966Y-81466611D01*
X94597094Y-81400719D01*
X94690280Y-81307533D01*
X94756172Y-81193405D01*
X94786673Y-81079572D01*
X94823037Y-81019913D01*
X94874350Y-80991893D01*
X94988186Y-80961392D01*
X95102314Y-80895500D01*
X95195500Y-80802314D01*
X95261392Y-80688186D01*
X95295500Y-80560892D01*
X95295500Y-80429108D01*
X95288801Y-80404108D01*
X95599500Y-80404108D01*
X95599500Y-80535892D01*
X95606199Y-80560892D01*
X95633608Y-80663187D01*
X95650766Y-80692905D01*
X95699500Y-80777314D01*
X95792686Y-80870500D01*
X95906814Y-80936392D01*
X96034108Y-80970500D01*
X96034109Y-80970500D01*
X96041958Y-80972603D01*
X96041316Y-80974996D01*
X96093796Y-80998210D01*
X96132269Y-81056533D01*
X96133492Y-81060791D01*
X96163608Y-81173186D01*
X96229500Y-81287314D01*
X96322686Y-81380500D01*
X96436814Y-81446392D01*
X96564108Y-81480500D01*
X96564110Y-81480500D01*
X96695890Y-81480500D01*
X96695892Y-81480500D01*
X96823186Y-81446392D01*
X96937314Y-81380500D01*
X97030500Y-81287314D01*
X97096392Y-81173186D01*
X97130500Y-81045892D01*
X97130500Y-80914108D01*
X97119782Y-80874108D01*
X147819500Y-80874108D01*
X147819500Y-81005891D01*
X147853608Y-81133187D01*
X147886554Y-81190250D01*
X147919500Y-81247314D01*
X148012686Y-81340500D01*
X148126814Y-81406392D01*
X148254108Y-81440500D01*
X148254110Y-81440500D01*
X148385890Y-81440500D01*
X148385892Y-81440500D01*
X148513186Y-81406392D01*
X148627314Y-81340500D01*
X148720500Y-81247314D01*
X148786392Y-81133186D01*
X148820500Y-81005892D01*
X148820500Y-80874108D01*
X148786392Y-80746814D01*
X148720500Y-80632686D01*
X148627314Y-80539500D01*
X148564659Y-80503326D01*
X148513187Y-80473608D01*
X148431688Y-80451771D01*
X148385892Y-80439500D01*
X148254108Y-80439500D01*
X148126812Y-80473608D01*
X148012686Y-80539500D01*
X148012683Y-80539502D01*
X147919502Y-80632683D01*
X147919500Y-80632686D01*
X147853608Y-80746812D01*
X147819500Y-80874108D01*
X97119782Y-80874108D01*
X97096392Y-80786814D01*
X97030500Y-80672686D01*
X96937314Y-80579500D01*
X96861783Y-80535892D01*
X96823187Y-80513608D01*
X96767399Y-80498660D01*
X96695892Y-80479500D01*
X96695891Y-80479500D01*
X96688042Y-80477397D01*
X96688682Y-80475008D01*
X96636182Y-80451771D01*
X96597722Y-80393440D01*
X96596507Y-80389207D01*
X96586856Y-80353187D01*
X96566392Y-80276814D01*
X96500500Y-80162686D01*
X96431922Y-80094108D01*
X121389500Y-80094108D01*
X121389500Y-80225891D01*
X121423608Y-80353187D01*
X121444405Y-80389207D01*
X121489500Y-80467314D01*
X121582686Y-80560500D01*
X121696814Y-80626392D01*
X121824108Y-80660500D01*
X121824110Y-80660500D01*
X121955890Y-80660500D01*
X121955892Y-80660500D01*
X122083186Y-80626392D01*
X122197314Y-80560500D01*
X122290500Y-80467314D01*
X122356392Y-80353186D01*
X122390500Y-80225892D01*
X122390500Y-80144108D01*
X133709500Y-80144108D01*
X133709500Y-80275891D01*
X133743608Y-80403187D01*
X133757981Y-80428081D01*
X133809500Y-80517314D01*
X133902686Y-80610500D01*
X134016814Y-80676392D01*
X134144108Y-80710500D01*
X134144110Y-80710500D01*
X134275890Y-80710500D01*
X134275892Y-80710500D01*
X134403186Y-80676392D01*
X134517314Y-80610500D01*
X134610500Y-80517314D01*
X134676392Y-80403186D01*
X134710500Y-80275892D01*
X134710500Y-80144108D01*
X134676392Y-80016814D01*
X134668767Y-80003608D01*
X134647523Y-79966812D01*
X134610500Y-79902686D01*
X134517314Y-79809500D01*
X134460250Y-79776554D01*
X134403187Y-79743608D01*
X134339539Y-79726554D01*
X134275892Y-79709500D01*
X134144108Y-79709500D01*
X134016812Y-79743608D01*
X133902686Y-79809500D01*
X133902683Y-79809502D01*
X133809502Y-79902683D01*
X133809500Y-79902686D01*
X133743608Y-80016812D01*
X133709500Y-80144108D01*
X122390500Y-80144108D01*
X122390500Y-80094108D01*
X122356392Y-79966814D01*
X122290500Y-79852686D01*
X122197314Y-79759500D01*
X122122649Y-79716392D01*
X122083187Y-79693608D01*
X122019539Y-79676554D01*
X121955892Y-79659500D01*
X121824108Y-79659500D01*
X121696812Y-79693608D01*
X121582686Y-79759500D01*
X121582683Y-79759502D01*
X121489502Y-79852683D01*
X121489500Y-79852686D01*
X121423608Y-79966812D01*
X121389500Y-80094108D01*
X96431922Y-80094108D01*
X96407314Y-80069500D01*
X96336487Y-80028608D01*
X96293187Y-80003608D01*
X96229539Y-79986554D01*
X96165892Y-79969500D01*
X96034108Y-79969500D01*
X95906812Y-80003608D01*
X95792686Y-80069500D01*
X95792683Y-80069502D01*
X95699502Y-80162683D01*
X95699500Y-80162686D01*
X95633608Y-80276812D01*
X95626909Y-80301814D01*
X95599500Y-80404108D01*
X95288801Y-80404108D01*
X95261392Y-80301814D01*
X95195500Y-80187686D01*
X95102314Y-80094500D01*
X95045250Y-80061554D01*
X94988187Y-80028608D01*
X94924539Y-80011554D01*
X94860892Y-79994500D01*
X94729108Y-79994500D01*
X94601812Y-80028608D01*
X94487686Y-80094500D01*
X94487683Y-80094502D01*
X94394502Y-80187683D01*
X94394500Y-80187686D01*
X94328609Y-80301812D01*
X94298107Y-80415645D01*
X94261741Y-80475305D01*
X94210425Y-80503326D01*
X94096594Y-80533827D01*
X94096592Y-80533827D01*
X94096592Y-80533828D01*
X93982466Y-80599719D01*
X93982463Y-80599721D01*
X93889282Y-80692902D01*
X93889280Y-80692905D01*
X93823388Y-80807031D01*
X93798994Y-80898074D01*
X93789280Y-80934327D01*
X61500500Y-80934327D01*
X61500500Y-79184108D01*
X101389500Y-79184108D01*
X101389500Y-79315891D01*
X101423608Y-79443187D01*
X101456554Y-79500250D01*
X101489500Y-79557314D01*
X101582686Y-79650500D01*
X101696814Y-79716392D01*
X101824108Y-79750500D01*
X101824110Y-79750500D01*
X101955890Y-79750500D01*
X101955892Y-79750500D01*
X102083186Y-79716392D01*
X102197314Y-79650500D01*
X102290500Y-79557314D01*
X102356392Y-79443186D01*
X102390500Y-79315892D01*
X102390500Y-79184108D01*
X102356392Y-79056814D01*
X102290500Y-78942686D01*
X102197314Y-78849500D01*
X102140250Y-78816554D01*
X102083187Y-78783608D01*
X102019539Y-78766554D01*
X101955892Y-78749500D01*
X101824108Y-78749500D01*
X101696812Y-78783608D01*
X101582686Y-78849500D01*
X101582683Y-78849502D01*
X101489502Y-78942683D01*
X101489500Y-78942686D01*
X101423608Y-79056812D01*
X101389500Y-79184108D01*
X61500500Y-79184108D01*
X61500500Y-78204108D01*
X75579500Y-78204108D01*
X75579500Y-78335891D01*
X75613608Y-78463187D01*
X75646554Y-78520250D01*
X75679500Y-78577314D01*
X75772686Y-78670500D01*
X75886814Y-78736392D01*
X76014108Y-78770500D01*
X76014110Y-78770500D01*
X76145890Y-78770500D01*
X76145892Y-78770500D01*
X76273186Y-78736392D01*
X76387314Y-78670500D01*
X76480500Y-78577314D01*
X76546392Y-78463186D01*
X76580500Y-78335892D01*
X76580500Y-78204108D01*
X76546392Y-78076814D01*
X76480500Y-77962686D01*
X76387314Y-77869500D01*
X76330250Y-77836554D01*
X76273187Y-77803608D01*
X76209539Y-77786554D01*
X76145892Y-77769500D01*
X76014108Y-77769500D01*
X75886812Y-77803608D01*
X75772686Y-77869500D01*
X75772683Y-77869502D01*
X75679502Y-77962683D01*
X75679500Y-77962686D01*
X75613608Y-78076812D01*
X75579500Y-78204108D01*
X61500500Y-78204108D01*
X61500500Y-76574108D01*
X68209500Y-76574108D01*
X68209500Y-76705892D01*
X68226554Y-76769539D01*
X68243608Y-76833187D01*
X68256717Y-76855892D01*
X68309500Y-76947314D01*
X68402686Y-77040500D01*
X68516814Y-77106392D01*
X68644108Y-77140500D01*
X68644110Y-77140500D01*
X68775890Y-77140500D01*
X68775892Y-77140500D01*
X68903186Y-77106392D01*
X69017314Y-77040500D01*
X69110500Y-76947314D01*
X69176392Y-76833186D01*
X69205619Y-76724108D01*
X101429500Y-76724108D01*
X101429500Y-76855891D01*
X101463608Y-76983187D01*
X101496554Y-77040250D01*
X101529500Y-77097314D01*
X101622686Y-77190500D01*
X101736814Y-77256392D01*
X101864108Y-77290500D01*
X101864110Y-77290500D01*
X101995890Y-77290500D01*
X101995892Y-77290500D01*
X102123186Y-77256392D01*
X102237314Y-77190500D01*
X102330500Y-77097314D01*
X102396392Y-76983186D01*
X102430500Y-76855892D01*
X102430500Y-76724108D01*
X102422462Y-76694108D01*
X118729500Y-76694108D01*
X118729500Y-76825892D01*
X118746554Y-76889539D01*
X118763608Y-76953187D01*
X118780929Y-76983187D01*
X118829500Y-77067314D01*
X118922686Y-77160500D01*
X119036814Y-77226392D01*
X119164108Y-77260500D01*
X119164110Y-77260500D01*
X119295890Y-77260500D01*
X119295892Y-77260500D01*
X119423186Y-77226392D01*
X119537314Y-77160500D01*
X119630500Y-77067314D01*
X119696392Y-76953186D01*
X119730500Y-76825892D01*
X119730500Y-76694108D01*
X119696392Y-76566814D01*
X119630500Y-76452686D01*
X119537314Y-76359500D01*
X119475147Y-76323608D01*
X119423187Y-76293608D01*
X119346969Y-76273186D01*
X119295892Y-76259500D01*
X119164108Y-76259500D01*
X119036812Y-76293608D01*
X118922686Y-76359500D01*
X118922683Y-76359502D01*
X118829502Y-76452683D01*
X118829500Y-76452686D01*
X118763608Y-76566812D01*
X118729500Y-76694108D01*
X102422462Y-76694108D01*
X102396392Y-76596814D01*
X102330500Y-76482686D01*
X102237314Y-76389500D01*
X102138910Y-76332686D01*
X102123187Y-76323608D01*
X102011223Y-76293608D01*
X101995892Y-76289500D01*
X101864108Y-76289500D01*
X101736812Y-76323608D01*
X101622686Y-76389500D01*
X101622683Y-76389502D01*
X101529502Y-76482683D01*
X101529500Y-76482686D01*
X101463608Y-76596812D01*
X101429500Y-76724108D01*
X69205619Y-76724108D01*
X69210500Y-76705892D01*
X69210500Y-76574108D01*
X69176392Y-76446814D01*
X69110500Y-76332686D01*
X69017314Y-76239500D01*
X68960250Y-76206554D01*
X68903187Y-76173608D01*
X68799747Y-76145892D01*
X68775892Y-76139500D01*
X68644108Y-76139500D01*
X68516812Y-76173608D01*
X68402686Y-76239500D01*
X68402683Y-76239502D01*
X68309502Y-76332683D01*
X68309500Y-76332686D01*
X68243608Y-76446812D01*
X68234582Y-76480499D01*
X68209500Y-76574108D01*
X61500500Y-76574108D01*
X61500500Y-76014108D01*
X119939500Y-76014108D01*
X119939500Y-76145892D01*
X119956554Y-76209539D01*
X119973608Y-76273187D01*
X120002719Y-76323608D01*
X120039500Y-76387314D01*
X120132686Y-76480500D01*
X120246814Y-76546392D01*
X120374108Y-76580500D01*
X120374110Y-76580500D01*
X120505890Y-76580500D01*
X120505892Y-76580500D01*
X120633186Y-76546392D01*
X120747314Y-76480500D01*
X120840500Y-76387314D01*
X120906392Y-76273186D01*
X120940500Y-76145892D01*
X120940500Y-76014108D01*
X120906392Y-75886814D01*
X120840500Y-75772686D01*
X120747314Y-75679500D01*
X120690250Y-75646554D01*
X120633187Y-75613608D01*
X120569539Y-75596554D01*
X120505892Y-75579500D01*
X120374108Y-75579500D01*
X120246812Y-75613608D01*
X120132686Y-75679500D01*
X120132683Y-75679502D01*
X120039502Y-75772683D01*
X120039500Y-75772686D01*
X119973608Y-75886812D01*
X119939500Y-76014108D01*
X61500500Y-76014108D01*
X61500500Y-75044108D01*
X123669500Y-75044108D01*
X123669500Y-75175891D01*
X123703608Y-75303187D01*
X123736554Y-75360250D01*
X123769500Y-75417314D01*
X123862686Y-75510500D01*
X123976814Y-75576392D01*
X124104108Y-75610500D01*
X124104110Y-75610500D01*
X124235890Y-75610500D01*
X124235892Y-75610500D01*
X124363186Y-75576392D01*
X124477314Y-75510500D01*
X124570500Y-75417314D01*
X124636392Y-75303186D01*
X124670500Y-75175892D01*
X124670500Y-75044108D01*
X124636392Y-74916814D01*
X124570500Y-74802686D01*
X124477314Y-74709500D01*
X124420250Y-74676554D01*
X124363187Y-74643608D01*
X124299539Y-74626554D01*
X124235892Y-74609500D01*
X124104108Y-74609500D01*
X123976812Y-74643608D01*
X123862686Y-74709500D01*
X123862683Y-74709502D01*
X123769502Y-74802683D01*
X123769500Y-74802686D01*
X123703608Y-74916812D01*
X123669500Y-75044108D01*
X61500500Y-75044108D01*
X61500500Y-74394108D01*
X124859500Y-74394108D01*
X124859500Y-74525891D01*
X124893608Y-74653187D01*
X124926121Y-74709500D01*
X124959500Y-74767314D01*
X125052686Y-74860500D01*
X125166814Y-74926392D01*
X125294108Y-74960500D01*
X125294110Y-74960500D01*
X125425890Y-74960500D01*
X125425892Y-74960500D01*
X125553186Y-74926392D01*
X125667314Y-74860500D01*
X125760500Y-74767314D01*
X125826392Y-74653186D01*
X125860500Y-74525892D01*
X125860500Y-74394108D01*
X125826392Y-74266814D01*
X125760500Y-74152686D01*
X125667314Y-74059500D01*
X125610250Y-74026554D01*
X125553187Y-73993608D01*
X125489539Y-73976554D01*
X125425892Y-73959500D01*
X125294108Y-73959500D01*
X125166812Y-73993608D01*
X125052686Y-74059500D01*
X125052683Y-74059502D01*
X124959502Y-74152683D01*
X124959500Y-74152686D01*
X124893608Y-74266812D01*
X124859500Y-74394108D01*
X61500500Y-74394108D01*
X61500500Y-71584108D01*
X140529500Y-71584108D01*
X140529500Y-71715891D01*
X140563608Y-71843187D01*
X140569915Y-71854110D01*
X140629500Y-71957314D01*
X140722686Y-72050500D01*
X140836814Y-72116392D01*
X140964108Y-72150500D01*
X140964110Y-72150500D01*
X141095890Y-72150500D01*
X141095892Y-72150500D01*
X141223186Y-72116392D01*
X141337314Y-72050500D01*
X141430500Y-71957314D01*
X141496392Y-71843186D01*
X141530500Y-71715892D01*
X141530500Y-71584108D01*
X141496392Y-71456814D01*
X141430500Y-71342686D01*
X141337314Y-71249500D01*
X141280250Y-71216554D01*
X141223187Y-71183608D01*
X141159539Y-71166554D01*
X141095892Y-71149500D01*
X140964108Y-71149500D01*
X140836812Y-71183608D01*
X140722686Y-71249500D01*
X140722683Y-71249502D01*
X140629502Y-71342683D01*
X140629500Y-71342686D01*
X140563608Y-71456812D01*
X140529500Y-71584108D01*
X61500500Y-71584108D01*
X61500500Y-70714108D01*
X142209500Y-70714108D01*
X142209500Y-70845891D01*
X142243608Y-70973187D01*
X142276554Y-71030250D01*
X142309500Y-71087314D01*
X142402686Y-71180500D01*
X142516814Y-71246392D01*
X142516822Y-71246394D01*
X142522595Y-71248786D01*
X142577000Y-71292625D01*
X142599067Y-71358919D01*
X142581790Y-71426619D01*
X142537147Y-71470736D01*
X142452686Y-71519500D01*
X142452683Y-71519502D01*
X142359502Y-71612683D01*
X142359500Y-71612686D01*
X142293608Y-71726812D01*
X142259500Y-71854108D01*
X142259500Y-71985891D01*
X142293608Y-72113187D01*
X142315151Y-72150499D01*
X142359500Y-72227314D01*
X142452686Y-72320500D01*
X142566814Y-72386392D01*
X142694108Y-72420500D01*
X142694110Y-72420500D01*
X142825890Y-72420500D01*
X142825892Y-72420500D01*
X142953186Y-72386392D01*
X143067314Y-72320500D01*
X143160500Y-72227314D01*
X143226392Y-72113186D01*
X143260500Y-71985892D01*
X143260500Y-71854108D01*
X143226392Y-71726814D01*
X143160500Y-71612686D01*
X143067314Y-71519500D01*
X142989360Y-71474493D01*
X142953183Y-71453606D01*
X142947400Y-71451211D01*
X142892997Y-71407370D01*
X142870932Y-71341076D01*
X142888211Y-71273376D01*
X142932851Y-71229264D01*
X143017314Y-71180500D01*
X143110500Y-71087314D01*
X143176392Y-70973186D01*
X143210500Y-70845892D01*
X143210500Y-70714108D01*
X143176392Y-70586814D01*
X143110500Y-70472686D01*
X143017314Y-70379500D01*
X142960250Y-70346554D01*
X142903187Y-70313608D01*
X142839539Y-70296554D01*
X142775892Y-70279500D01*
X142644108Y-70279500D01*
X142516812Y-70313608D01*
X142402686Y-70379500D01*
X142402683Y-70379502D01*
X142309502Y-70472683D01*
X142309500Y-70472686D01*
X142243608Y-70586812D01*
X142209500Y-70714108D01*
X61500500Y-70714108D01*
X61500500Y-68606608D01*
X79959500Y-68606608D01*
X79959500Y-68738392D01*
X79961325Y-68745202D01*
X79993608Y-68865687D01*
X80026554Y-68922750D01*
X80059500Y-68979814D01*
X80152686Y-69073000D01*
X80266814Y-69138892D01*
X80394108Y-69173000D01*
X80394110Y-69173000D01*
X80525890Y-69173000D01*
X80525892Y-69173000D01*
X80653186Y-69138892D01*
X80767314Y-69073000D01*
X80860500Y-68979814D01*
X80860504Y-68979806D01*
X80865448Y-68973365D01*
X80867859Y-68975215D01*
X80907925Y-68936981D01*
X80976527Y-68923730D01*
X81041402Y-68949670D01*
X81072178Y-68985171D01*
X81109500Y-69049814D01*
X81202686Y-69143000D01*
X81316814Y-69208892D01*
X81444108Y-69243000D01*
X81444110Y-69243000D01*
X81575890Y-69243000D01*
X81575892Y-69243000D01*
X81703186Y-69208892D01*
X81817314Y-69143000D01*
X81910500Y-69049814D01*
X81976392Y-68935686D01*
X82010500Y-68808392D01*
X82010500Y-68694108D01*
X106259500Y-68694108D01*
X106259500Y-68825891D01*
X106293608Y-68953187D01*
X106308983Y-68979816D01*
X106359500Y-69067314D01*
X106452686Y-69160500D01*
X106566814Y-69226392D01*
X106694108Y-69260500D01*
X106694110Y-69260500D01*
X106825890Y-69260500D01*
X106825892Y-69260500D01*
X106953186Y-69226392D01*
X107067314Y-69160500D01*
X107160500Y-69067314D01*
X107226392Y-68953186D01*
X107260500Y-68825892D01*
X107260500Y-68694108D01*
X107226392Y-68566814D01*
X107160500Y-68452686D01*
X107067314Y-68359500D01*
X107010250Y-68326554D01*
X106953187Y-68293608D01*
X106887874Y-68276108D01*
X106825892Y-68259500D01*
X106694108Y-68259500D01*
X106566812Y-68293608D01*
X106452686Y-68359500D01*
X106452683Y-68359502D01*
X106359502Y-68452683D01*
X106359500Y-68452686D01*
X106293608Y-68566812D01*
X106259500Y-68694108D01*
X82010500Y-68694108D01*
X82010500Y-68676608D01*
X81976392Y-68549314D01*
X81910500Y-68435186D01*
X81817314Y-68342000D01*
X81733497Y-68293608D01*
X81703187Y-68276108D01*
X81639539Y-68259054D01*
X81575892Y-68242000D01*
X81444108Y-68242000D01*
X81316812Y-68276108D01*
X81202686Y-68342000D01*
X81202683Y-68342002D01*
X81109502Y-68435183D01*
X81104552Y-68441635D01*
X81102150Y-68439792D01*
X81061996Y-68478058D01*
X80993385Y-68491261D01*
X80928528Y-68465275D01*
X80897820Y-68429826D01*
X80860500Y-68365186D01*
X80767314Y-68272000D01*
X80710250Y-68239054D01*
X80653187Y-68206108D01*
X80589539Y-68189054D01*
X80525892Y-68172000D01*
X80394108Y-68172000D01*
X80266812Y-68206108D01*
X80152686Y-68272000D01*
X80152683Y-68272002D01*
X80059502Y-68365183D01*
X80059500Y-68365186D01*
X79993608Y-68479312D01*
X79972188Y-68559256D01*
X79959500Y-68606608D01*
X61500500Y-68606608D01*
X61500500Y-68058247D01*
X127347500Y-68058247D01*
X127347500Y-69621752D01*
X127359131Y-69680229D01*
X127359132Y-69680230D01*
X127403447Y-69746552D01*
X127469769Y-69790867D01*
X127469770Y-69790868D01*
X127528247Y-69802499D01*
X127528250Y-69802500D01*
X127528252Y-69802500D01*
X129091750Y-69802500D01*
X129091751Y-69802499D01*
X129106568Y-69799552D01*
X129150229Y-69790868D01*
X129150229Y-69790867D01*
X129150231Y-69790867D01*
X129216552Y-69746552D01*
X129260867Y-69680231D01*
X129260867Y-69680229D01*
X129260868Y-69680229D01*
X129272499Y-69621752D01*
X129272500Y-69621750D01*
X129272500Y-68745197D01*
X132347500Y-68745197D01*
X132347500Y-68934802D01*
X132384486Y-69120743D01*
X132384488Y-69120751D01*
X132457042Y-69295912D01*
X132562377Y-69453558D01*
X132696441Y-69587622D01*
X132801300Y-69657686D01*
X132854085Y-69692956D01*
X133029249Y-69765512D01*
X133215197Y-69802499D01*
X133215201Y-69802500D01*
X133215202Y-69802500D01*
X133404799Y-69802500D01*
X133404800Y-69802499D01*
X133590751Y-69765512D01*
X133765915Y-69692956D01*
X133923558Y-69587622D01*
X134057622Y-69453558D01*
X134162956Y-69295915D01*
X134235512Y-69120751D01*
X134272500Y-68934798D01*
X134272500Y-68745202D01*
X134235512Y-68559249D01*
X134162956Y-68384085D01*
X134090808Y-68276108D01*
X134057622Y-68226441D01*
X133923558Y-68092377D01*
X133765912Y-67987042D01*
X133590751Y-67914488D01*
X133590743Y-67914486D01*
X133404802Y-67877500D01*
X133404798Y-67877500D01*
X133215202Y-67877500D01*
X133215197Y-67877500D01*
X133029256Y-67914486D01*
X133029248Y-67914488D01*
X132854087Y-67987042D01*
X132696441Y-68092377D01*
X132562377Y-68226441D01*
X132457042Y-68384087D01*
X132384488Y-68559248D01*
X132384486Y-68559256D01*
X132347500Y-68745197D01*
X129272500Y-68745197D01*
X129272500Y-68058249D01*
X129272499Y-68058247D01*
X129260868Y-67999770D01*
X129260867Y-67999769D01*
X129216552Y-67933447D01*
X129150230Y-67889132D01*
X129150229Y-67889131D01*
X129091752Y-67877500D01*
X129091748Y-67877500D01*
X127528252Y-67877500D01*
X127528247Y-67877500D01*
X127469770Y-67889131D01*
X127469769Y-67889132D01*
X127403447Y-67933447D01*
X127359132Y-67999769D01*
X127359131Y-67999770D01*
X127347500Y-68058247D01*
X61500500Y-68058247D01*
X61500500Y-65536608D01*
X79959500Y-65536608D01*
X79959500Y-65668391D01*
X79993608Y-65795687D01*
X80026554Y-65852750D01*
X80059500Y-65909814D01*
X80152686Y-66003000D01*
X80266814Y-66068892D01*
X80394108Y-66103000D01*
X80394110Y-66103000D01*
X80525890Y-66103000D01*
X80525892Y-66103000D01*
X80653186Y-66068892D01*
X80767314Y-66003000D01*
X80860500Y-65909814D01*
X80860504Y-65909806D01*
X80865448Y-65903365D01*
X80867859Y-65905215D01*
X80907925Y-65866981D01*
X80976527Y-65853730D01*
X81041402Y-65879670D01*
X81072178Y-65915171D01*
X81109500Y-65979814D01*
X81202686Y-66073000D01*
X81316814Y-66138892D01*
X81444108Y-66173000D01*
X81444110Y-66173000D01*
X81575890Y-66173000D01*
X81575892Y-66173000D01*
X81703186Y-66138892D01*
X81817314Y-66073000D01*
X81910500Y-65979814D01*
X81976392Y-65865686D01*
X82010500Y-65738392D01*
X82010500Y-65606608D01*
X81976392Y-65479314D01*
X81910500Y-65365186D01*
X81817314Y-65272000D01*
X81760250Y-65239054D01*
X81703187Y-65206108D01*
X81639539Y-65189054D01*
X81575892Y-65172000D01*
X81444108Y-65172000D01*
X81316812Y-65206108D01*
X81202686Y-65272000D01*
X81202683Y-65272002D01*
X81109502Y-65365183D01*
X81104552Y-65371635D01*
X81102150Y-65369792D01*
X81061996Y-65408058D01*
X80993385Y-65421261D01*
X80928528Y-65395275D01*
X80897820Y-65359826D01*
X80860500Y-65295186D01*
X80767314Y-65202000D01*
X80710250Y-65169054D01*
X80653187Y-65136108D01*
X80589539Y-65119054D01*
X80525892Y-65102000D01*
X80394108Y-65102000D01*
X80266812Y-65136108D01*
X80152686Y-65202000D01*
X80152683Y-65202002D01*
X80059502Y-65295183D01*
X80059500Y-65295186D01*
X79993608Y-65409312D01*
X79959500Y-65536608D01*
X61500500Y-65536608D01*
X61500500Y-64734108D01*
X137609500Y-64734108D01*
X137609500Y-64865891D01*
X137643608Y-64993187D01*
X137676554Y-65050250D01*
X137709500Y-65107314D01*
X137802686Y-65200500D01*
X137916814Y-65266392D01*
X138044108Y-65300500D01*
X138044110Y-65300500D01*
X138175890Y-65300500D01*
X138175892Y-65300500D01*
X138303186Y-65266392D01*
X138417314Y-65200500D01*
X138510500Y-65107314D01*
X138576392Y-64993186D01*
X138610500Y-64865892D01*
X138610500Y-64734108D01*
X138576392Y-64606814D01*
X138561086Y-64580304D01*
X150294200Y-64580304D01*
X150294200Y-64749895D01*
X150327281Y-64916207D01*
X150327284Y-64916217D01*
X150392178Y-65072885D01*
X150392183Y-65072895D01*
X150486394Y-65213891D01*
X150486397Y-65213895D01*
X150606304Y-65333802D01*
X150606308Y-65333805D01*
X150747304Y-65428016D01*
X150747308Y-65428018D01*
X150747311Y-65428020D01*
X150903985Y-65492917D01*
X151070304Y-65525999D01*
X151070308Y-65526000D01*
X151070309Y-65526000D01*
X151239892Y-65526000D01*
X151239893Y-65525999D01*
X151406215Y-65492917D01*
X151562889Y-65428020D01*
X151703892Y-65333805D01*
X151823805Y-65213892D01*
X151918020Y-65072889D01*
X151982917Y-64916215D01*
X152016000Y-64749891D01*
X152016000Y-64580309D01*
X151982917Y-64413985D01*
X151918020Y-64257311D01*
X151918018Y-64257308D01*
X151918016Y-64257304D01*
X151823805Y-64116308D01*
X151823802Y-64116304D01*
X151703895Y-63996397D01*
X151703891Y-63996394D01*
X151562895Y-63902183D01*
X151562885Y-63902178D01*
X151406217Y-63837284D01*
X151406218Y-63837284D01*
X151406215Y-63837283D01*
X151406211Y-63837282D01*
X151406207Y-63837281D01*
X151239895Y-63804200D01*
X151239891Y-63804200D01*
X151070309Y-63804200D01*
X151070304Y-63804200D01*
X150903992Y-63837281D01*
X150903982Y-63837284D01*
X150747314Y-63902178D01*
X150747304Y-63902183D01*
X150606308Y-63996394D01*
X150606304Y-63996397D01*
X150486397Y-64116304D01*
X150486394Y-64116308D01*
X150392183Y-64257304D01*
X150392178Y-64257314D01*
X150327284Y-64413982D01*
X150327281Y-64413992D01*
X150294200Y-64580304D01*
X138561086Y-64580304D01*
X138510500Y-64492686D01*
X138417314Y-64399500D01*
X138358747Y-64365686D01*
X138303187Y-64333608D01*
X138239539Y-64316554D01*
X138175892Y-64299500D01*
X138044108Y-64299500D01*
X137916812Y-64333608D01*
X137802686Y-64399500D01*
X137802683Y-64399502D01*
X137709502Y-64492683D01*
X137709500Y-64492686D01*
X137643608Y-64606812D01*
X137609500Y-64734108D01*
X61500500Y-64734108D01*
X61500500Y-63996608D01*
X74789500Y-63996608D01*
X74789500Y-64128391D01*
X74823608Y-64255687D01*
X74837538Y-64279814D01*
X74889500Y-64369814D01*
X74982686Y-64463000D01*
X75096814Y-64528892D01*
X75224108Y-64563000D01*
X75224110Y-64563000D01*
X75355890Y-64563000D01*
X75355892Y-64563000D01*
X75483186Y-64528892D01*
X75597314Y-64463000D01*
X75690500Y-64369814D01*
X75756392Y-64255686D01*
X75790500Y-64128392D01*
X75790500Y-63996608D01*
X75756392Y-63869314D01*
X75690500Y-63755186D01*
X75597314Y-63662000D01*
X75586702Y-63655873D01*
X78678765Y-63655873D01*
X78678765Y-63787656D01*
X78712873Y-63914952D01*
X78745819Y-63972015D01*
X78778765Y-64029079D01*
X78871951Y-64122265D01*
X78986079Y-64188157D01*
X79113373Y-64222265D01*
X79113375Y-64222265D01*
X79245155Y-64222265D01*
X79245157Y-64222265D01*
X79372451Y-64188157D01*
X79486579Y-64122265D01*
X79579765Y-64029079D01*
X79645657Y-63914951D01*
X79647892Y-63906608D01*
X82109500Y-63906608D01*
X82109500Y-64038392D01*
X82126554Y-64102039D01*
X82143608Y-64165687D01*
X82176273Y-64222264D01*
X82209500Y-64279814D01*
X82302686Y-64373000D01*
X82416814Y-64438892D01*
X82544108Y-64473000D01*
X82544110Y-64473000D01*
X82675890Y-64473000D01*
X82675892Y-64473000D01*
X82803186Y-64438892D01*
X82917314Y-64373000D01*
X83010500Y-64279814D01*
X83076392Y-64165686D01*
X83092222Y-64106608D01*
X85259500Y-64106608D01*
X85259500Y-64238392D01*
X85275874Y-64299500D01*
X85293608Y-64365687D01*
X85326554Y-64422750D01*
X85359500Y-64479814D01*
X85452686Y-64573000D01*
X85531657Y-64618594D01*
X85566810Y-64638890D01*
X85566814Y-64638892D01*
X85694108Y-64673000D01*
X85694110Y-64673000D01*
X85825890Y-64673000D01*
X85825892Y-64673000D01*
X85953186Y-64638892D01*
X86067314Y-64573000D01*
X86160500Y-64479814D01*
X86226392Y-64365686D01*
X86260500Y-64238392D01*
X86260500Y-64106608D01*
X86226392Y-63979314D01*
X86160500Y-63865186D01*
X86067314Y-63772000D01*
X86010250Y-63739054D01*
X85953187Y-63706108D01*
X85889539Y-63689054D01*
X85825892Y-63672000D01*
X85694108Y-63672000D01*
X85566812Y-63706108D01*
X85452686Y-63772000D01*
X85452683Y-63772002D01*
X85359502Y-63865183D01*
X85359500Y-63865186D01*
X85293608Y-63979312D01*
X85277778Y-64038392D01*
X85259500Y-64106608D01*
X83092222Y-64106608D01*
X83110500Y-64038392D01*
X83110500Y-63906608D01*
X83076392Y-63779314D01*
X83010500Y-63665186D01*
X82917314Y-63572000D01*
X82842107Y-63528579D01*
X82803187Y-63506108D01*
X82739539Y-63489054D01*
X82675892Y-63472000D01*
X82544108Y-63472000D01*
X82416812Y-63506108D01*
X82302686Y-63572000D01*
X82302683Y-63572002D01*
X82209502Y-63665183D01*
X82209500Y-63665186D01*
X82143608Y-63779312D01*
X82128076Y-63837281D01*
X82109500Y-63906608D01*
X79647892Y-63906608D01*
X79679765Y-63787657D01*
X79679765Y-63655873D01*
X79645657Y-63528579D01*
X79644167Y-63525999D01*
X79612055Y-63470379D01*
X79579765Y-63414451D01*
X79486579Y-63321265D01*
X79429515Y-63288319D01*
X79372452Y-63255373D01*
X79308804Y-63238319D01*
X79245157Y-63221265D01*
X79113373Y-63221265D01*
X78986077Y-63255373D01*
X78871951Y-63321265D01*
X78871948Y-63321267D01*
X78778767Y-63414448D01*
X78778765Y-63414451D01*
X78712873Y-63528577D01*
X78678765Y-63655873D01*
X75586702Y-63655873D01*
X75540250Y-63629054D01*
X75483187Y-63596108D01*
X75393220Y-63572002D01*
X75355892Y-63562000D01*
X75224108Y-63562000D01*
X75096812Y-63596108D01*
X74982686Y-63662000D01*
X74982683Y-63662002D01*
X74889502Y-63755183D01*
X74889500Y-63755186D01*
X74823608Y-63869312D01*
X74789500Y-63996608D01*
X61500500Y-63996608D01*
X61500500Y-62478789D01*
X82766574Y-62478789D01*
X82766574Y-62610573D01*
X82779952Y-62660499D01*
X82800682Y-62737868D01*
X82833628Y-62794931D01*
X82866574Y-62851995D01*
X82959760Y-62945181D01*
X83073888Y-63011073D01*
X83201182Y-63045181D01*
X83201184Y-63045181D01*
X83332964Y-63045181D01*
X83332966Y-63045181D01*
X83460260Y-63011073D01*
X83574388Y-62945181D01*
X83667574Y-62851995D01*
X83733466Y-62737867D01*
X83767574Y-62610573D01*
X83767574Y-62478789D01*
X83733466Y-62351495D01*
X83667574Y-62237367D01*
X83574388Y-62144181D01*
X83517324Y-62111235D01*
X83460261Y-62078289D01*
X83369193Y-62053888D01*
X83332966Y-62044181D01*
X83201182Y-62044181D01*
X83073886Y-62078289D01*
X82959760Y-62144181D01*
X82959757Y-62144183D01*
X82866576Y-62237364D01*
X82866574Y-62237367D01*
X82800682Y-62351493D01*
X82776834Y-62440499D01*
X82766574Y-62478789D01*
X61500500Y-62478789D01*
X61500500Y-61874108D01*
X92069500Y-61874108D01*
X92069500Y-62005892D01*
X92082360Y-62053887D01*
X92103608Y-62133187D01*
X92109956Y-62144181D01*
X92169500Y-62247314D01*
X92262686Y-62340500D01*
X92361521Y-62397563D01*
X92374657Y-62405147D01*
X92376814Y-62406392D01*
X92504108Y-62440500D01*
X92504110Y-62440500D01*
X92635890Y-62440500D01*
X92635892Y-62440500D01*
X92763186Y-62406392D01*
X92877314Y-62340500D01*
X92970500Y-62247314D01*
X93036392Y-62133186D01*
X93046863Y-62094108D01*
X104529500Y-62094108D01*
X104529500Y-62225892D01*
X104537918Y-62257310D01*
X104563608Y-62353187D01*
X104593608Y-62405147D01*
X104629500Y-62467314D01*
X104722686Y-62560500D01*
X104836814Y-62626392D01*
X104964108Y-62660500D01*
X104964110Y-62660500D01*
X105095890Y-62660500D01*
X105095892Y-62660500D01*
X105223186Y-62626392D01*
X105337314Y-62560500D01*
X105430500Y-62467314D01*
X105496273Y-62353391D01*
X105546840Y-62305176D01*
X105615447Y-62291953D01*
X105680312Y-62317921D01*
X105711046Y-62353390D01*
X105759500Y-62437314D01*
X105852686Y-62530500D01*
X105966814Y-62596392D01*
X106094108Y-62630500D01*
X106094110Y-62630500D01*
X106225890Y-62630500D01*
X106225892Y-62630500D01*
X106353186Y-62596392D01*
X106467314Y-62530500D01*
X106560500Y-62437314D01*
X106626392Y-62323186D01*
X106660500Y-62195892D01*
X106660500Y-62064108D01*
X106626392Y-61936814D01*
X106626272Y-61936607D01*
X106599545Y-61890314D01*
X106560500Y-61822686D01*
X106467314Y-61729500D01*
X106405147Y-61693608D01*
X106353187Y-61663608D01*
X106237782Y-61632686D01*
X106225892Y-61629500D01*
X106094108Y-61629500D01*
X105966812Y-61663608D01*
X105852686Y-61729500D01*
X105852683Y-61729502D01*
X105759502Y-61822683D01*
X105759496Y-61822692D01*
X105693725Y-61936608D01*
X105643158Y-61984823D01*
X105574551Y-61998045D01*
X105509686Y-61972077D01*
X105478952Y-61936607D01*
X105464083Y-61910853D01*
X105430500Y-61852686D01*
X105337314Y-61759500D01*
X105280250Y-61726554D01*
X105223187Y-61693608D01*
X105111223Y-61663608D01*
X105095892Y-61659500D01*
X104964108Y-61659500D01*
X104836812Y-61693608D01*
X104722686Y-61759500D01*
X104722683Y-61759502D01*
X104629502Y-61852683D01*
X104629500Y-61852686D01*
X104563608Y-61966812D01*
X104535875Y-62070316D01*
X104529500Y-62094108D01*
X93046863Y-62094108D01*
X93070500Y-62005892D01*
X93070500Y-61874108D01*
X93036392Y-61746814D01*
X92970500Y-61632686D01*
X92877314Y-61539500D01*
X92838530Y-61517108D01*
X115732372Y-61517108D01*
X115732372Y-61648892D01*
X115736315Y-61663608D01*
X115766480Y-61776187D01*
X115793325Y-61822683D01*
X115832372Y-61890314D01*
X115925558Y-61983500D01*
X116039686Y-62049392D01*
X116166980Y-62083500D01*
X116166982Y-62083500D01*
X116298762Y-62083500D01*
X116298764Y-62083500D01*
X116426058Y-62049392D01*
X116459192Y-62030261D01*
X116527091Y-62013788D01*
X116593118Y-62036639D01*
X116618968Y-62065079D01*
X116620552Y-62063865D01*
X116625498Y-62070311D01*
X116625500Y-62070314D01*
X116718686Y-62163500D01*
X116832814Y-62229392D01*
X116960108Y-62263500D01*
X116960110Y-62263500D01*
X117090668Y-62263500D01*
X117157707Y-62283185D01*
X117203462Y-62335989D01*
X117213406Y-62405147D01*
X117210445Y-62419580D01*
X117192352Y-62487108D01*
X117192352Y-62618892D01*
X117203501Y-62660500D01*
X117226460Y-62746187D01*
X117259406Y-62803250D01*
X117292352Y-62860314D01*
X117385538Y-62953500D01*
X117499666Y-63019392D01*
X117626960Y-63053500D01*
X117626962Y-63053500D01*
X117753584Y-63053500D01*
X117820623Y-63073185D01*
X117866378Y-63125989D01*
X117873356Y-63145401D01*
X117882547Y-63179701D01*
X117887229Y-63197174D01*
X117920175Y-63254237D01*
X117953121Y-63311301D01*
X118046307Y-63404487D01*
X118160435Y-63470379D01*
X118287729Y-63504487D01*
X118287731Y-63504487D01*
X118419511Y-63504487D01*
X118419513Y-63504487D01*
X118546807Y-63470379D01*
X118660935Y-63404487D01*
X118754121Y-63311301D01*
X118820013Y-63197173D01*
X118854121Y-63069879D01*
X118854121Y-62938095D01*
X118820013Y-62810801D01*
X118754121Y-62696673D01*
X118660935Y-62603487D01*
X118620779Y-62580303D01*
X150294200Y-62580303D01*
X150294200Y-62749894D01*
X150316164Y-62860314D01*
X150327283Y-62916214D01*
X150348915Y-62968438D01*
X150392178Y-63072884D01*
X150392183Y-63072894D01*
X150486394Y-63213890D01*
X150486397Y-63213894D01*
X150606304Y-63333801D01*
X150606308Y-63333804D01*
X150747304Y-63428015D01*
X150747308Y-63428017D01*
X150747311Y-63428019D01*
X150903985Y-63492916D01*
X151070304Y-63525998D01*
X151070308Y-63525999D01*
X151070309Y-63525999D01*
X151239892Y-63525999D01*
X151239893Y-63525998D01*
X151406215Y-63492916D01*
X151562889Y-63428019D01*
X151703892Y-63333804D01*
X151823805Y-63213891D01*
X151918020Y-63072888D01*
X151982917Y-62916214D01*
X152016000Y-62749890D01*
X152016000Y-62580308D01*
X151982917Y-62413984D01*
X151918020Y-62257310D01*
X151918018Y-62257307D01*
X151918016Y-62257303D01*
X151823805Y-62116307D01*
X151823802Y-62116303D01*
X151703895Y-61996396D01*
X151703891Y-61996393D01*
X151562895Y-61902182D01*
X151562885Y-61902177D01*
X151406217Y-61837283D01*
X151406218Y-61837283D01*
X151406215Y-61837282D01*
X151406211Y-61837281D01*
X151406207Y-61837280D01*
X151239895Y-61804199D01*
X151239891Y-61804199D01*
X151070309Y-61804199D01*
X151070304Y-61804199D01*
X150903992Y-61837280D01*
X150903982Y-61837283D01*
X150747314Y-61902177D01*
X150747304Y-61902182D01*
X150606308Y-61996393D01*
X150606304Y-61996396D01*
X150486397Y-62116303D01*
X150486394Y-62116307D01*
X150392183Y-62257303D01*
X150392178Y-62257313D01*
X150327284Y-62413981D01*
X150327281Y-62413991D01*
X150294200Y-62580303D01*
X118620779Y-62580303D01*
X118586478Y-62560499D01*
X118546808Y-62537595D01*
X118483160Y-62520541D01*
X118419513Y-62503487D01*
X118292889Y-62503487D01*
X118225850Y-62483802D01*
X118180095Y-62430998D01*
X118173116Y-62411585D01*
X118159244Y-62359814D01*
X118093352Y-62245686D01*
X118000166Y-62152500D01*
X117937471Y-62116303D01*
X117886039Y-62086608D01*
X117805690Y-62065079D01*
X117758744Y-62052500D01*
X117628184Y-62052500D01*
X117561145Y-62032815D01*
X117515390Y-61980011D01*
X117505446Y-61910853D01*
X117508406Y-61896419D01*
X117526500Y-61828892D01*
X117526500Y-61697108D01*
X117520337Y-61674108D01*
X137659500Y-61674108D01*
X137659500Y-61805892D01*
X137672038Y-61852686D01*
X137693608Y-61933187D01*
X137713022Y-61966812D01*
X137759500Y-62047314D01*
X137852686Y-62140500D01*
X137966814Y-62206392D01*
X138094108Y-62240500D01*
X138094110Y-62240500D01*
X138225890Y-62240500D01*
X138225892Y-62240500D01*
X138353186Y-62206392D01*
X138467314Y-62140500D01*
X138560500Y-62047314D01*
X138626392Y-61933186D01*
X138660500Y-61805892D01*
X138660500Y-61674108D01*
X138626392Y-61546814D01*
X138560500Y-61432686D01*
X138467314Y-61339500D01*
X138393023Y-61296608D01*
X138353187Y-61273608D01*
X138289539Y-61256554D01*
X138225892Y-61239500D01*
X138094108Y-61239500D01*
X137966812Y-61273608D01*
X137852686Y-61339500D01*
X137852683Y-61339502D01*
X137759502Y-61432683D01*
X137759500Y-61432686D01*
X137693608Y-61546812D01*
X137663414Y-61659500D01*
X137659500Y-61674108D01*
X117520337Y-61674108D01*
X117492392Y-61569814D01*
X117426500Y-61455686D01*
X117333314Y-61362500D01*
X117243246Y-61310499D01*
X117219187Y-61296608D01*
X117133348Y-61273608D01*
X117091892Y-61262500D01*
X116960108Y-61262500D01*
X116832811Y-61296608D01*
X116799677Y-61315739D01*
X116731777Y-61332210D01*
X116665750Y-61309358D01*
X116639905Y-61280917D01*
X116638320Y-61282135D01*
X116633374Y-61275689D01*
X116633372Y-61275686D01*
X116540186Y-61182500D01*
X116483122Y-61149554D01*
X116426059Y-61116608D01*
X116362411Y-61099554D01*
X116298764Y-61082500D01*
X116166980Y-61082500D01*
X116039684Y-61116608D01*
X115925558Y-61182500D01*
X115925555Y-61182502D01*
X115832374Y-61275683D01*
X115832372Y-61275686D01*
X115766480Y-61389812D01*
X115732372Y-61517108D01*
X92838530Y-61517108D01*
X92820250Y-61506554D01*
X92763187Y-61473608D01*
X92699539Y-61456554D01*
X92635892Y-61439500D01*
X92504108Y-61439500D01*
X92376812Y-61473608D01*
X92262686Y-61539500D01*
X92262683Y-61539502D01*
X92169502Y-61632683D01*
X92169500Y-61632686D01*
X92103608Y-61746812D01*
X92083279Y-61822683D01*
X92069500Y-61874108D01*
X61500500Y-61874108D01*
X61500500Y-60560000D01*
X62295138Y-60560000D01*
X63098012Y-60560000D01*
X63080795Y-60569940D01*
X63024940Y-60625795D01*
X62985444Y-60694204D01*
X62965000Y-60770504D01*
X62965000Y-60849496D01*
X62985444Y-60925796D01*
X63024940Y-60994205D01*
X63080795Y-61050060D01*
X63098012Y-61060000D01*
X62295138Y-61060000D01*
X62303430Y-61101690D01*
X62303430Y-61101692D01*
X62378807Y-61283671D01*
X62378814Y-61283684D01*
X62488248Y-61447462D01*
X62488251Y-61447466D01*
X62627533Y-61586748D01*
X62627537Y-61586751D01*
X62791315Y-61696185D01*
X62791328Y-61696192D01*
X62973306Y-61771569D01*
X62973318Y-61771572D01*
X63166504Y-61809999D01*
X63166508Y-61810000D01*
X63415000Y-61810000D01*
X63415000Y-61110000D01*
X63915000Y-61110000D01*
X63915000Y-61810000D01*
X64163492Y-61810000D01*
X64163495Y-61809999D01*
X64356681Y-61771572D01*
X64356693Y-61771569D01*
X64538671Y-61696192D01*
X64538684Y-61696185D01*
X64702462Y-61586751D01*
X64702466Y-61586748D01*
X64841748Y-61447466D01*
X64841751Y-61447462D01*
X64951185Y-61283684D01*
X64951192Y-61283671D01*
X65026569Y-61101692D01*
X65026569Y-61101690D01*
X65034862Y-61060000D01*
X64231988Y-61060000D01*
X64249205Y-61050060D01*
X64305060Y-60994205D01*
X64344556Y-60925796D01*
X64365000Y-60849496D01*
X64365000Y-60770504D01*
X64344556Y-60694204D01*
X64305060Y-60625795D01*
X64249205Y-60569940D01*
X64231988Y-60560000D01*
X65034862Y-60560000D01*
X66325138Y-60560000D01*
X67128012Y-60560000D01*
X67110795Y-60569940D01*
X67054940Y-60625795D01*
X67015444Y-60694204D01*
X66995000Y-60770504D01*
X66995000Y-60849496D01*
X67015444Y-60925796D01*
X67054940Y-60994205D01*
X67110795Y-61050060D01*
X67128012Y-61060000D01*
X66325138Y-61060000D01*
X66333430Y-61101690D01*
X66333430Y-61101692D01*
X66408807Y-61283671D01*
X66408814Y-61283684D01*
X66518248Y-61447462D01*
X66518251Y-61447466D01*
X66657533Y-61586748D01*
X66657537Y-61586751D01*
X66821315Y-61696185D01*
X66821328Y-61696192D01*
X67003306Y-61771569D01*
X67003318Y-61771572D01*
X67196504Y-61809999D01*
X67196508Y-61810000D01*
X67595000Y-61810000D01*
X67595000Y-61110000D01*
X68095000Y-61110000D01*
X68095000Y-61810000D01*
X68493492Y-61810000D01*
X68493495Y-61809999D01*
X68686681Y-61771572D01*
X68686693Y-61771569D01*
X68735339Y-61751420D01*
X68868671Y-61696192D01*
X68868684Y-61696185D01*
X69032462Y-61586751D01*
X69032466Y-61586748D01*
X69171748Y-61447466D01*
X69171751Y-61447462D01*
X69281185Y-61283684D01*
X69281192Y-61283671D01*
X69356569Y-61101692D01*
X69356569Y-61101690D01*
X69364862Y-61060000D01*
X68561988Y-61060000D01*
X68579205Y-61050060D01*
X68635060Y-60994205D01*
X68674556Y-60925796D01*
X68695000Y-60849496D01*
X68695000Y-60844108D01*
X135579500Y-60844108D01*
X135579500Y-60975891D01*
X135613608Y-61103187D01*
X135617542Y-61110000D01*
X135679500Y-61217314D01*
X135772686Y-61310500D01*
X135886814Y-61376392D01*
X136014108Y-61410500D01*
X136014110Y-61410500D01*
X136145890Y-61410500D01*
X136145892Y-61410500D01*
X136273186Y-61376392D01*
X136387314Y-61310500D01*
X136480500Y-61217314D01*
X136546392Y-61103186D01*
X136580500Y-60975892D01*
X136580500Y-60844108D01*
X136546392Y-60716814D01*
X136480500Y-60602686D01*
X136387314Y-60509500D01*
X136329968Y-60476391D01*
X136273187Y-60443608D01*
X136209539Y-60426554D01*
X136145892Y-60409500D01*
X136014108Y-60409500D01*
X135886812Y-60443608D01*
X135772686Y-60509500D01*
X135772683Y-60509502D01*
X135679502Y-60602683D01*
X135679500Y-60602686D01*
X135613608Y-60716812D01*
X135579500Y-60844108D01*
X68695000Y-60844108D01*
X68695000Y-60770504D01*
X68674556Y-60694204D01*
X68635060Y-60625795D01*
X68579205Y-60569940D01*
X68561988Y-60560000D01*
X69364862Y-60560000D01*
X69356569Y-60518309D01*
X69356569Y-60518307D01*
X69281192Y-60336328D01*
X69281185Y-60336315D01*
X69171751Y-60172537D01*
X69171748Y-60172533D01*
X69032466Y-60033251D01*
X69032462Y-60033248D01*
X68899056Y-59944108D01*
X84539500Y-59944108D01*
X84539500Y-60075892D01*
X84547061Y-60104110D01*
X84573608Y-60203187D01*
X84592490Y-60235891D01*
X84639500Y-60317314D01*
X84732686Y-60410500D01*
X84846814Y-60476392D01*
X84974108Y-60510500D01*
X84974110Y-60510500D01*
X85105890Y-60510500D01*
X85105892Y-60510500D01*
X85233186Y-60476392D01*
X85347314Y-60410500D01*
X85440500Y-60317314D01*
X85506392Y-60203186D01*
X85532940Y-60104108D01*
X115659500Y-60104108D01*
X115659500Y-60235891D01*
X115693608Y-60363187D01*
X115720347Y-60409500D01*
X115759500Y-60477314D01*
X115852686Y-60570500D01*
X115966814Y-60636392D01*
X116094108Y-60670500D01*
X116094110Y-60670500D01*
X116225890Y-60670500D01*
X116225892Y-60670500D01*
X116353186Y-60636392D01*
X116467314Y-60570500D01*
X116560500Y-60477314D01*
X116626392Y-60363186D01*
X116660500Y-60235892D01*
X116660500Y-60104108D01*
X116626392Y-59976814D01*
X116560500Y-59862686D01*
X116467314Y-59769500D01*
X116410250Y-59736554D01*
X116353187Y-59703608D01*
X116273129Y-59682157D01*
X116225892Y-59669500D01*
X116094108Y-59669500D01*
X115966812Y-59703608D01*
X115852686Y-59769500D01*
X115852683Y-59769502D01*
X115759502Y-59862683D01*
X115759500Y-59862686D01*
X115693608Y-59976812D01*
X115659500Y-60104108D01*
X85532940Y-60104108D01*
X85540500Y-60075892D01*
X85540500Y-59944108D01*
X85506392Y-59816814D01*
X85440500Y-59702686D01*
X85347314Y-59609500D01*
X85272649Y-59566392D01*
X85233187Y-59543608D01*
X85169539Y-59526554D01*
X85105892Y-59509500D01*
X84974108Y-59509500D01*
X84846812Y-59543608D01*
X84732686Y-59609500D01*
X84732683Y-59609502D01*
X84639502Y-59702683D01*
X84639500Y-59702686D01*
X84573608Y-59816812D01*
X84544938Y-59923814D01*
X84539500Y-59944108D01*
X68899056Y-59944108D01*
X68868684Y-59923814D01*
X68868671Y-59923807D01*
X68686693Y-59848430D01*
X68686681Y-59848427D01*
X68493495Y-59810000D01*
X68095000Y-59810000D01*
X68095000Y-60510000D01*
X67595000Y-60510000D01*
X67595000Y-59914049D01*
X67614685Y-59847010D01*
X67631870Y-59825820D01*
X67643203Y-59814627D01*
X67667665Y-59800505D01*
X67765505Y-59702665D01*
X67834688Y-59582836D01*
X67870500Y-59449183D01*
X67870500Y-59310817D01*
X67834688Y-59177164D01*
X67765505Y-59057335D01*
X67667665Y-58959495D01*
X67667664Y-58959494D01*
X67657054Y-58953369D01*
X67657053Y-58953368D01*
X67547838Y-58890313D01*
X67547837Y-58890312D01*
X67547836Y-58890312D01*
X67414183Y-58854500D01*
X67275817Y-58854500D01*
X67142164Y-58890312D01*
X67142161Y-58890313D01*
X67022338Y-58959492D01*
X67022333Y-58959496D01*
X66924496Y-59057333D01*
X66924492Y-59057338D01*
X66855313Y-59177161D01*
X66855312Y-59177164D01*
X66819500Y-59310817D01*
X66819500Y-59449183D01*
X66833251Y-59500500D01*
X66855312Y-59582835D01*
X66855313Y-59582838D01*
X66924492Y-59702661D01*
X66929441Y-59709110D01*
X66926813Y-59711125D01*
X66952911Y-59758919D01*
X66947927Y-59828611D01*
X66906055Y-59884544D01*
X66879197Y-59899838D01*
X66821328Y-59923807D01*
X66821315Y-59923814D01*
X66657537Y-60033248D01*
X66657533Y-60033251D01*
X66518251Y-60172533D01*
X66518248Y-60172537D01*
X66408814Y-60336315D01*
X66408807Y-60336328D01*
X66333430Y-60518307D01*
X66333430Y-60518309D01*
X66325138Y-60560000D01*
X65034862Y-60560000D01*
X65026569Y-60518309D01*
X65026569Y-60518307D01*
X64951192Y-60336328D01*
X64951185Y-60336315D01*
X64841751Y-60172537D01*
X64841748Y-60172533D01*
X64702466Y-60033251D01*
X64702462Y-60033248D01*
X64538684Y-59923814D01*
X64538671Y-59923807D01*
X64356693Y-59848430D01*
X64356681Y-59848427D01*
X64163495Y-59810000D01*
X63915000Y-59810000D01*
X63915000Y-60510000D01*
X63415000Y-60510000D01*
X63415000Y-59810000D01*
X63166504Y-59810000D01*
X62973318Y-59848427D01*
X62973306Y-59848430D01*
X62791328Y-59923807D01*
X62791315Y-59923814D01*
X62627537Y-60033248D01*
X62627533Y-60033251D01*
X62488251Y-60172533D01*
X62488248Y-60172537D01*
X62378814Y-60336315D01*
X62378807Y-60336328D01*
X62303430Y-60518307D01*
X62303430Y-60518309D01*
X62295138Y-60560000D01*
X61500500Y-60560000D01*
X61500500Y-58854108D01*
X68759500Y-58854108D01*
X68759500Y-58985891D01*
X68793608Y-59113187D01*
X68810425Y-59142314D01*
X68859500Y-59227314D01*
X68952686Y-59320500D01*
X69066814Y-59386392D01*
X69194108Y-59420500D01*
X69194110Y-59420500D01*
X69325890Y-59420500D01*
X69325892Y-59420500D01*
X69453186Y-59386392D01*
X69567314Y-59320500D01*
X69601641Y-59286172D01*
X69662961Y-59252688D01*
X69732653Y-59257672D01*
X69751321Y-59266467D01*
X69811810Y-59301390D01*
X69811811Y-59301390D01*
X69811814Y-59301392D01*
X69939108Y-59335500D01*
X69939110Y-59335500D01*
X70070890Y-59335500D01*
X70070892Y-59335500D01*
X70198186Y-59301392D01*
X70312314Y-59235500D01*
X70348465Y-59199348D01*
X70409785Y-59165864D01*
X70479477Y-59170848D01*
X70535411Y-59212718D01*
X70543531Y-59225029D01*
X70566019Y-59263978D01*
X70567368Y-59266314D01*
X70660554Y-59359500D01*
X70774682Y-59425392D01*
X70901976Y-59459500D01*
X70901978Y-59459500D01*
X71033758Y-59459500D01*
X71033760Y-59459500D01*
X71161054Y-59425392D01*
X71275182Y-59359500D01*
X71300574Y-59334108D01*
X79139500Y-59334108D01*
X79139500Y-59465891D01*
X79173608Y-59593187D01*
X79183027Y-59609500D01*
X79239500Y-59707314D01*
X79332686Y-59800500D01*
X79446814Y-59866392D01*
X79574108Y-59900500D01*
X79574110Y-59900500D01*
X79705890Y-59900500D01*
X79705892Y-59900500D01*
X79833186Y-59866392D01*
X79947314Y-59800500D01*
X80040500Y-59707314D01*
X80106392Y-59593186D01*
X80140500Y-59465892D01*
X80140500Y-59334108D01*
X80106392Y-59206814D01*
X80082764Y-59165890D01*
X80040503Y-59092691D01*
X80040502Y-59092690D01*
X80040500Y-59092686D01*
X79981922Y-59034108D01*
X80679500Y-59034108D01*
X80679500Y-59165892D01*
X80688465Y-59199350D01*
X80713608Y-59293187D01*
X80738037Y-59335499D01*
X80779500Y-59407314D01*
X80872686Y-59500500D01*
X80986814Y-59566392D01*
X81114108Y-59600500D01*
X81114110Y-59600500D01*
X81245890Y-59600500D01*
X81245892Y-59600500D01*
X81373186Y-59566392D01*
X81487314Y-59500500D01*
X81580500Y-59407314D01*
X81646392Y-59293186D01*
X81680500Y-59165892D01*
X81680500Y-59034108D01*
X81646392Y-58906814D01*
X81580500Y-58792686D01*
X81487314Y-58699500D01*
X81404493Y-58651683D01*
X81373187Y-58633608D01*
X81295092Y-58612683D01*
X81245892Y-58599500D01*
X81114108Y-58599500D01*
X80986812Y-58633608D01*
X80872686Y-58699500D01*
X80872683Y-58699502D01*
X80779502Y-58792683D01*
X80779500Y-58792686D01*
X80713608Y-58906812D01*
X80681970Y-59024890D01*
X80679500Y-59034108D01*
X79981922Y-59034108D01*
X79947314Y-58999500D01*
X79878025Y-58959496D01*
X79833187Y-58933608D01*
X79733188Y-58906814D01*
X79705892Y-58899500D01*
X79574108Y-58899500D01*
X79446812Y-58933608D01*
X79332686Y-58999500D01*
X79332683Y-58999502D01*
X79239502Y-59092683D01*
X79239500Y-59092686D01*
X79173608Y-59206812D01*
X79139500Y-59334108D01*
X71300574Y-59334108D01*
X71368368Y-59266314D01*
X71434260Y-59152186D01*
X71468368Y-59024892D01*
X71468368Y-58893108D01*
X71434260Y-58765814D01*
X71368368Y-58651686D01*
X71275182Y-58558500D01*
X71177862Y-58502312D01*
X71161055Y-58492608D01*
X71072305Y-58468828D01*
X71033760Y-58458500D01*
X70901976Y-58458500D01*
X70774680Y-58492608D01*
X70660554Y-58558500D01*
X70660550Y-58558503D01*
X70624402Y-58594651D01*
X70563079Y-58628136D01*
X70493387Y-58623150D01*
X70437454Y-58581278D01*
X70429335Y-58568969D01*
X70405502Y-58527689D01*
X70405497Y-58527683D01*
X70312316Y-58434502D01*
X70312314Y-58434500D01*
X70236104Y-58390500D01*
X70198187Y-58368608D01*
X70144383Y-58354191D01*
X70070892Y-58334500D01*
X69939108Y-58334500D01*
X69811812Y-58368608D01*
X69697686Y-58434500D01*
X69697681Y-58434503D01*
X69663356Y-58468828D01*
X69602032Y-58502312D01*
X69532341Y-58497326D01*
X69513677Y-58488532D01*
X69453189Y-58453609D01*
X69453186Y-58453608D01*
X69325892Y-58419500D01*
X69194108Y-58419500D01*
X69066812Y-58453608D01*
X68952686Y-58519500D01*
X68952683Y-58519502D01*
X68859502Y-58612683D01*
X68859500Y-58612686D01*
X68793608Y-58726812D01*
X68759500Y-58854108D01*
X61500500Y-58854108D01*
X61500500Y-58229108D01*
X93284500Y-58229108D01*
X93284500Y-58360892D01*
X93300204Y-58419500D01*
X93318608Y-58488187D01*
X93341413Y-58527686D01*
X93384500Y-58602314D01*
X93477686Y-58695500D01*
X93591814Y-58761392D01*
X93719108Y-58795500D01*
X93719110Y-58795500D01*
X93850890Y-58795500D01*
X93850892Y-58795500D01*
X93978186Y-58761392D01*
X94092314Y-58695500D01*
X94185500Y-58602314D01*
X94251392Y-58488186D01*
X94285500Y-58360892D01*
X94285500Y-58229108D01*
X94251392Y-58101814D01*
X94185500Y-57987686D01*
X94092314Y-57894500D01*
X94011899Y-57848072D01*
X93978187Y-57828608D01*
X93929151Y-57815469D01*
X93850892Y-57794500D01*
X93719108Y-57794500D01*
X93591812Y-57828608D01*
X93477686Y-57894500D01*
X93477683Y-57894502D01*
X93384502Y-57987683D01*
X93384500Y-57987686D01*
X93318608Y-58101812D01*
X93284500Y-58229108D01*
X61500500Y-58229108D01*
X61500500Y-57684108D01*
X94549500Y-57684108D01*
X94549500Y-57815892D01*
X94555106Y-57836814D01*
X94583608Y-57943187D01*
X94609298Y-57987683D01*
X94649500Y-58057314D01*
X94742686Y-58150500D01*
X94856814Y-58216392D01*
X94984108Y-58250500D01*
X94984110Y-58250500D01*
X95115890Y-58250500D01*
X95115892Y-58250500D01*
X95243186Y-58216392D01*
X95357314Y-58150500D01*
X95450500Y-58057314D01*
X95504313Y-57964108D01*
X99419500Y-57964108D01*
X99419500Y-58095891D01*
X99453608Y-58223187D01*
X99486554Y-58280250D01*
X99519500Y-58337314D01*
X99612686Y-58430500D01*
X99726814Y-58496392D01*
X99854108Y-58530500D01*
X99854110Y-58530500D01*
X99985890Y-58530500D01*
X99985892Y-58530500D01*
X100113186Y-58496392D01*
X100227314Y-58430500D01*
X100320500Y-58337314D01*
X100386392Y-58223186D01*
X100420500Y-58095892D01*
X100420500Y-57964108D01*
X100386392Y-57836814D01*
X100379056Y-57824108D01*
X100719500Y-57824108D01*
X100719500Y-57955892D01*
X100721702Y-57964110D01*
X100753608Y-58083187D01*
X100764363Y-58101814D01*
X100819500Y-58197314D01*
X100912686Y-58290500D01*
X101026814Y-58356392D01*
X101154108Y-58390500D01*
X101154110Y-58390500D01*
X101285890Y-58390500D01*
X101285892Y-58390500D01*
X101413186Y-58356392D01*
X101527314Y-58290500D01*
X101620500Y-58197314D01*
X101686392Y-58083186D01*
X101720500Y-57955892D01*
X101720500Y-57824108D01*
X101686392Y-57696814D01*
X101620500Y-57582686D01*
X101527314Y-57489500D01*
X101446225Y-57442683D01*
X101413187Y-57423608D01*
X101349539Y-57406554D01*
X101285892Y-57389500D01*
X101154108Y-57389500D01*
X101026812Y-57423608D01*
X100912686Y-57489500D01*
X100912683Y-57489502D01*
X100819502Y-57582683D01*
X100819500Y-57582686D01*
X100753608Y-57696812D01*
X100727433Y-57794500D01*
X100719500Y-57824108D01*
X100379056Y-57824108D01*
X100320500Y-57722686D01*
X100227314Y-57629500D01*
X100146225Y-57582683D01*
X100113187Y-57563608D01*
X100049539Y-57546554D01*
X99985892Y-57529500D01*
X99854108Y-57529500D01*
X99726812Y-57563608D01*
X99612686Y-57629500D01*
X99612683Y-57629502D01*
X99519502Y-57722683D01*
X99519500Y-57722686D01*
X99453608Y-57836812D01*
X99419500Y-57964108D01*
X95504313Y-57964108D01*
X95516392Y-57943186D01*
X95550500Y-57815892D01*
X95550500Y-57684108D01*
X95516392Y-57556814D01*
X95450500Y-57442686D01*
X95357314Y-57349500D01*
X95277096Y-57303186D01*
X95243187Y-57283608D01*
X95179539Y-57266554D01*
X95115892Y-57249500D01*
X94984108Y-57249500D01*
X94856812Y-57283608D01*
X94742686Y-57349500D01*
X94742683Y-57349502D01*
X94649502Y-57442683D01*
X94649500Y-57442686D01*
X94583608Y-57556812D01*
X94569223Y-57610499D01*
X94549500Y-57684108D01*
X61500500Y-57684108D01*
X61500500Y-56824108D01*
X82409500Y-56824108D01*
X82409500Y-56955891D01*
X82443608Y-57083187D01*
X82470924Y-57130499D01*
X82509500Y-57197314D01*
X82602686Y-57290500D01*
X82716814Y-57356392D01*
X82844108Y-57390500D01*
X82844110Y-57390500D01*
X82975890Y-57390500D01*
X82975892Y-57390500D01*
X83103186Y-57356392D01*
X83217314Y-57290500D01*
X83310500Y-57197314D01*
X83376392Y-57083186D01*
X83386863Y-57044108D01*
X95869500Y-57044108D01*
X95869500Y-57175892D01*
X95886554Y-57239539D01*
X95903608Y-57303187D01*
X95930347Y-57349500D01*
X95969500Y-57417314D01*
X96062686Y-57510500D01*
X96176814Y-57576392D01*
X96304108Y-57610500D01*
X96304110Y-57610500D01*
X96435890Y-57610500D01*
X96435892Y-57610500D01*
X96563186Y-57576392D01*
X96677314Y-57510500D01*
X96770500Y-57417314D01*
X96836392Y-57303186D01*
X96870500Y-57175892D01*
X96870500Y-57044108D01*
X97129500Y-57044108D01*
X97129500Y-57175892D01*
X97146554Y-57239539D01*
X97163608Y-57303187D01*
X97190347Y-57349500D01*
X97229500Y-57417314D01*
X97322686Y-57510500D01*
X97436814Y-57576392D01*
X97564108Y-57610500D01*
X97564110Y-57610500D01*
X97695890Y-57610500D01*
X97695892Y-57610500D01*
X97823186Y-57576392D01*
X97937314Y-57510500D01*
X98030500Y-57417314D01*
X98096392Y-57303186D01*
X98130500Y-57175892D01*
X98130500Y-57044108D01*
X98096392Y-56916814D01*
X98030500Y-56802686D01*
X97937314Y-56709500D01*
X97857410Y-56663367D01*
X97857409Y-56663366D01*
X97823188Y-56643609D01*
X97823187Y-56643608D01*
X97823186Y-56643608D01*
X97695892Y-56609500D01*
X97564108Y-56609500D01*
X97436812Y-56643608D01*
X97322686Y-56709500D01*
X97322683Y-56709502D01*
X97229502Y-56802683D01*
X97229500Y-56802686D01*
X97163608Y-56916812D01*
X97153138Y-56955889D01*
X97129500Y-57044108D01*
X96870500Y-57044108D01*
X96836392Y-56916814D01*
X96770500Y-56802686D01*
X96677314Y-56709500D01*
X96620250Y-56676554D01*
X96563187Y-56643608D01*
X96499539Y-56626554D01*
X96435892Y-56609500D01*
X96304108Y-56609500D01*
X96176812Y-56643608D01*
X96062686Y-56709500D01*
X96062683Y-56709502D01*
X95969502Y-56802683D01*
X95969500Y-56802686D01*
X95903608Y-56916812D01*
X95893138Y-56955889D01*
X95869500Y-57044108D01*
X83386863Y-57044108D01*
X83410500Y-56955892D01*
X83410500Y-56824108D01*
X83376392Y-56696814D01*
X83310500Y-56582686D01*
X83291922Y-56564108D01*
X101189500Y-56564108D01*
X101189500Y-56695891D01*
X101223608Y-56823187D01*
X101224140Y-56824108D01*
X101289500Y-56937314D01*
X101382686Y-57030500D01*
X101496814Y-57096392D01*
X101624108Y-57130500D01*
X101624110Y-57130500D01*
X101755890Y-57130500D01*
X101755892Y-57130500D01*
X101883186Y-57096392D01*
X101997314Y-57030500D01*
X102090500Y-56937314D01*
X102156392Y-56823186D01*
X102190500Y-56695892D01*
X102190500Y-56564108D01*
X102156392Y-56436814D01*
X102148767Y-56423608D01*
X102129075Y-56389500D01*
X102090500Y-56322686D01*
X101997314Y-56229500D01*
X101939100Y-56195890D01*
X101883187Y-56163608D01*
X101819539Y-56146554D01*
X101755892Y-56129500D01*
X101624108Y-56129500D01*
X101496812Y-56163608D01*
X101382686Y-56229500D01*
X101382683Y-56229502D01*
X101289502Y-56322683D01*
X101289500Y-56322686D01*
X101223608Y-56436812D01*
X101189500Y-56564108D01*
X83291922Y-56564108D01*
X83217314Y-56489500D01*
X83126929Y-56437316D01*
X83103187Y-56423608D01*
X83039539Y-56406554D01*
X82975892Y-56389500D01*
X82844108Y-56389500D01*
X82716812Y-56423608D01*
X82602686Y-56489500D01*
X82602683Y-56489502D01*
X82509502Y-56582683D01*
X82509500Y-56582686D01*
X82443608Y-56696812D01*
X82409500Y-56824108D01*
X61500500Y-56824108D01*
X61500500Y-56064108D01*
X70739500Y-56064108D01*
X70739500Y-56195891D01*
X70773608Y-56323187D01*
X70806554Y-56380250D01*
X70839500Y-56437314D01*
X70932686Y-56530500D01*
X71046814Y-56596392D01*
X71174108Y-56630500D01*
X71174110Y-56630500D01*
X71305890Y-56630500D01*
X71305892Y-56630500D01*
X71433186Y-56596392D01*
X71547314Y-56530500D01*
X71640500Y-56437314D01*
X71706392Y-56323186D01*
X71740500Y-56195892D01*
X71740500Y-56064108D01*
X71706392Y-55936814D01*
X71640500Y-55822686D01*
X71547314Y-55729500D01*
X71490250Y-55696554D01*
X71433187Y-55663608D01*
X71369539Y-55646554D01*
X71305892Y-55629500D01*
X71174108Y-55629500D01*
X71046812Y-55663608D01*
X70932686Y-55729500D01*
X70932683Y-55729502D01*
X70839502Y-55822683D01*
X70839500Y-55822686D01*
X70773608Y-55936812D01*
X70739500Y-56064108D01*
X61500500Y-56064108D01*
X61500500Y-54909814D01*
X70125206Y-54909814D01*
X70125206Y-55041597D01*
X70159314Y-55168893D01*
X70192260Y-55225956D01*
X70225206Y-55283020D01*
X70318392Y-55376206D01*
X70432520Y-55442098D01*
X70559814Y-55476206D01*
X70559816Y-55476206D01*
X70691596Y-55476206D01*
X70691598Y-55476206D01*
X70818892Y-55442098D01*
X70933020Y-55376206D01*
X71026206Y-55283020D01*
X71092098Y-55168892D01*
X71092450Y-55167574D01*
X71093051Y-55166590D01*
X71095207Y-55161385D01*
X71096018Y-55161721D01*
X71128810Y-55107915D01*
X71180135Y-55079888D01*
X71193186Y-55076392D01*
X71307314Y-55010500D01*
X71400500Y-54917314D01*
X71408125Y-54904108D01*
X85509500Y-54904108D01*
X85509500Y-55035891D01*
X85543608Y-55163187D01*
X85546904Y-55168895D01*
X85609500Y-55277314D01*
X85702686Y-55370500D01*
X85816814Y-55436392D01*
X85944108Y-55470500D01*
X85944110Y-55470500D01*
X86075890Y-55470500D01*
X86075892Y-55470500D01*
X86203186Y-55436392D01*
X86317314Y-55370500D01*
X86410500Y-55277314D01*
X86476392Y-55163186D01*
X86510500Y-55035892D01*
X86510500Y-54904108D01*
X86510500Y-54897676D01*
X86530185Y-54830637D01*
X86582989Y-54784882D01*
X86652147Y-54774938D01*
X86715703Y-54803963D01*
X86722181Y-54809995D01*
X86772686Y-54860500D01*
X86886814Y-54926392D01*
X87014108Y-54960500D01*
X87014110Y-54960500D01*
X87145890Y-54960500D01*
X87145892Y-54960500D01*
X87273186Y-54926392D01*
X87387314Y-54860500D01*
X87480500Y-54767314D01*
X87546392Y-54653186D01*
X87565653Y-54581304D01*
X144479500Y-54581304D01*
X144479500Y-54758695D01*
X144514103Y-54932658D01*
X144514106Y-54932667D01*
X144581983Y-55096540D01*
X144581990Y-55096553D01*
X144680535Y-55244034D01*
X144680538Y-55244038D01*
X144805961Y-55369461D01*
X144805965Y-55369464D01*
X144953446Y-55468009D01*
X144953459Y-55468016D01*
X145076363Y-55518923D01*
X145117334Y-55535894D01*
X145117336Y-55535894D01*
X145117341Y-55535896D01*
X145291304Y-55570499D01*
X145291307Y-55570500D01*
X145291309Y-55570500D01*
X145468693Y-55570500D01*
X145468694Y-55570499D01*
X145526682Y-55558964D01*
X145642658Y-55535896D01*
X145642661Y-55535894D01*
X145642666Y-55535894D01*
X145806547Y-55468013D01*
X145954035Y-55369464D01*
X146079464Y-55244035D01*
X146178013Y-55096547D01*
X146245894Y-54932666D01*
X146247143Y-54926391D01*
X146280499Y-54758695D01*
X146280500Y-54758693D01*
X146280500Y-54581306D01*
X146280499Y-54581304D01*
X146245896Y-54407341D01*
X146245893Y-54407332D01*
X146178016Y-54243459D01*
X146178009Y-54243446D01*
X146079464Y-54095965D01*
X146079461Y-54095961D01*
X145954038Y-53970538D01*
X145954034Y-53970535D01*
X145806553Y-53871990D01*
X145806540Y-53871983D01*
X145642667Y-53804106D01*
X145642658Y-53804103D01*
X145468694Y-53769500D01*
X145468691Y-53769500D01*
X145291309Y-53769500D01*
X145291306Y-53769500D01*
X145117341Y-53804103D01*
X145117332Y-53804106D01*
X144953459Y-53871983D01*
X144953446Y-53871990D01*
X144805965Y-53970535D01*
X144805961Y-53970538D01*
X144680538Y-54095961D01*
X144680535Y-54095965D01*
X144581990Y-54243446D01*
X144581983Y-54243459D01*
X144514106Y-54407332D01*
X144514103Y-54407341D01*
X144479500Y-54581304D01*
X87565653Y-54581304D01*
X87580500Y-54525892D01*
X87580500Y-54394108D01*
X87546392Y-54266814D01*
X87480500Y-54152686D01*
X87387314Y-54059500D01*
X87319773Y-54020505D01*
X87273187Y-53993608D01*
X87208931Y-53976391D01*
X87145892Y-53959500D01*
X87014108Y-53959500D01*
X86886812Y-53993608D01*
X86772686Y-54059500D01*
X86772683Y-54059502D01*
X86679502Y-54152683D01*
X86679500Y-54152686D01*
X86613608Y-54266812D01*
X86579500Y-54394108D01*
X86579500Y-54532324D01*
X86559815Y-54599363D01*
X86507011Y-54645118D01*
X86437853Y-54655062D01*
X86374297Y-54626037D01*
X86367819Y-54620005D01*
X86317316Y-54569502D01*
X86317314Y-54569500D01*
X86260250Y-54536554D01*
X86203187Y-54503608D01*
X86139539Y-54486554D01*
X86075892Y-54469500D01*
X85944108Y-54469500D01*
X85816812Y-54503608D01*
X85702686Y-54569500D01*
X85702683Y-54569502D01*
X85609502Y-54662683D01*
X85609500Y-54662686D01*
X85543608Y-54776812D01*
X85509500Y-54904108D01*
X71408125Y-54904108D01*
X71466392Y-54803186D01*
X71500500Y-54675892D01*
X71500500Y-54544108D01*
X71466392Y-54416814D01*
X71400500Y-54302686D01*
X71307314Y-54209500D01*
X71208910Y-54152686D01*
X71193187Y-54143608D01*
X71089747Y-54115892D01*
X71065892Y-54109500D01*
X70934108Y-54109500D01*
X70806812Y-54143608D01*
X70692686Y-54209500D01*
X70692683Y-54209502D01*
X70599502Y-54302683D01*
X70599500Y-54302686D01*
X70533608Y-54416813D01*
X70533253Y-54418139D01*
X70532648Y-54419131D01*
X70530499Y-54424320D01*
X70529689Y-54423984D01*
X70496885Y-54477798D01*
X70445577Y-54505815D01*
X70432519Y-54509314D01*
X70318392Y-54575206D01*
X70318389Y-54575208D01*
X70225208Y-54668389D01*
X70225206Y-54668392D01*
X70159314Y-54782518D01*
X70125206Y-54909814D01*
X61500500Y-54909814D01*
X61500500Y-51920000D01*
X62295138Y-51920000D01*
X63098012Y-51920000D01*
X63080795Y-51929940D01*
X63024940Y-51985795D01*
X62985444Y-52054204D01*
X62965000Y-52130504D01*
X62965000Y-52209496D01*
X62985444Y-52285796D01*
X63024940Y-52354205D01*
X63080795Y-52410060D01*
X63098012Y-52420000D01*
X62295138Y-52420000D01*
X62303430Y-52461690D01*
X62303430Y-52461692D01*
X62378807Y-52643671D01*
X62378814Y-52643684D01*
X62488248Y-52807462D01*
X62488251Y-52807466D01*
X62627533Y-52946748D01*
X62627537Y-52946751D01*
X62791315Y-53056185D01*
X62791328Y-53056192D01*
X62973306Y-53131569D01*
X62973318Y-53131572D01*
X63166504Y-53169999D01*
X63166508Y-53170000D01*
X63415000Y-53170000D01*
X63415000Y-52470000D01*
X63915000Y-52470000D01*
X63915000Y-53170000D01*
X64163492Y-53170000D01*
X64163495Y-53169999D01*
X64356681Y-53131572D01*
X64356693Y-53131569D01*
X64538671Y-53056192D01*
X64538684Y-53056185D01*
X64702462Y-52946751D01*
X64702466Y-52946748D01*
X64841748Y-52807466D01*
X64841751Y-52807462D01*
X64951185Y-52643684D01*
X64951192Y-52643671D01*
X65026569Y-52461692D01*
X65026569Y-52461690D01*
X65034862Y-52420000D01*
X64231988Y-52420000D01*
X64249205Y-52410060D01*
X64305060Y-52354205D01*
X64344556Y-52285796D01*
X64365000Y-52209496D01*
X64365000Y-52130504D01*
X64344556Y-52054204D01*
X64305060Y-51985795D01*
X64249205Y-51929940D01*
X64231988Y-51920000D01*
X65034862Y-51920000D01*
X66325138Y-51920000D01*
X67128012Y-51920000D01*
X67110795Y-51929940D01*
X67054940Y-51985795D01*
X67015444Y-52054204D01*
X66995000Y-52130504D01*
X66995000Y-52209496D01*
X67015444Y-52285796D01*
X67054940Y-52354205D01*
X67110795Y-52410060D01*
X67128012Y-52420000D01*
X66325138Y-52420000D01*
X66333430Y-52461690D01*
X66333430Y-52461692D01*
X66408807Y-52643671D01*
X66408814Y-52643684D01*
X66518248Y-52807462D01*
X66518251Y-52807466D01*
X66657533Y-52946748D01*
X66657537Y-52946751D01*
X66821315Y-53056185D01*
X66821322Y-53056189D01*
X66879196Y-53080160D01*
X66933600Y-53124000D01*
X66955666Y-53190294D01*
X66938388Y-53257994D01*
X66928774Y-53270378D01*
X66929441Y-53270890D01*
X66924492Y-53277338D01*
X66855313Y-53397161D01*
X66855312Y-53397164D01*
X66819500Y-53530817D01*
X66819500Y-53669183D01*
X66828612Y-53703187D01*
X66855312Y-53802835D01*
X66855313Y-53802838D01*
X66924492Y-53922661D01*
X66924494Y-53922664D01*
X66924495Y-53922665D01*
X67022335Y-54020505D01*
X67142164Y-54089688D01*
X67275817Y-54125500D01*
X67275819Y-54125500D01*
X67414181Y-54125500D01*
X67414183Y-54125500D01*
X67547836Y-54089688D01*
X67667665Y-54020505D01*
X67704062Y-53984108D01*
X80519500Y-53984108D01*
X80519500Y-54115892D01*
X80529358Y-54152683D01*
X80553608Y-54243187D01*
X80586554Y-54300250D01*
X80619500Y-54357314D01*
X80712686Y-54450500D01*
X80826814Y-54516392D01*
X80954108Y-54550500D01*
X80954110Y-54550500D01*
X81085890Y-54550500D01*
X81085892Y-54550500D01*
X81213186Y-54516392D01*
X81327314Y-54450500D01*
X81420500Y-54357314D01*
X81486392Y-54243186D01*
X81520500Y-54115892D01*
X81520500Y-53984108D01*
X81486392Y-53856814D01*
X81420500Y-53742686D01*
X81327314Y-53649500D01*
X81270250Y-53616554D01*
X81213187Y-53583608D01*
X81159383Y-53569191D01*
X81085892Y-53549500D01*
X80954108Y-53549500D01*
X80826812Y-53583608D01*
X80712686Y-53649500D01*
X80712683Y-53649502D01*
X80619502Y-53742683D01*
X80619500Y-53742686D01*
X80553608Y-53856812D01*
X80535963Y-53922665D01*
X80519500Y-53984108D01*
X67704062Y-53984108D01*
X67765505Y-53922665D01*
X67765731Y-53922271D01*
X67770519Y-53913982D01*
X67770519Y-53913981D01*
X67803525Y-53856812D01*
X67834688Y-53802836D01*
X67870500Y-53669183D01*
X67870500Y-53530817D01*
X67847267Y-53444108D01*
X97909500Y-53444108D01*
X97909500Y-53575892D01*
X97926554Y-53639539D01*
X97943608Y-53703187D01*
X97966413Y-53742686D01*
X98009500Y-53817314D01*
X98102686Y-53910500D01*
X98216814Y-53976392D01*
X98344108Y-54010500D01*
X98344110Y-54010500D01*
X98475890Y-54010500D01*
X98475892Y-54010500D01*
X98603186Y-53976392D01*
X98717314Y-53910500D01*
X98810500Y-53817314D01*
X98876392Y-53703186D01*
X98910500Y-53575892D01*
X98910500Y-53444108D01*
X98876392Y-53316814D01*
X98810500Y-53202686D01*
X98717314Y-53109500D01*
X98656692Y-53074500D01*
X98603187Y-53043608D01*
X98539539Y-53026554D01*
X98475892Y-53009500D01*
X98344108Y-53009500D01*
X98216812Y-53043608D01*
X98102686Y-53109500D01*
X98102683Y-53109502D01*
X98009502Y-53202683D01*
X98009500Y-53202686D01*
X97943608Y-53316812D01*
X97922079Y-53397161D01*
X97909500Y-53444108D01*
X67847267Y-53444108D01*
X67834688Y-53397164D01*
X67765505Y-53277335D01*
X67667665Y-53179495D01*
X67667664Y-53179494D01*
X67656999Y-53173337D01*
X67608784Y-53122769D01*
X67595000Y-53065950D01*
X67595000Y-52470000D01*
X68095000Y-52470000D01*
X68095000Y-53170000D01*
X68493492Y-53170000D01*
X68493495Y-53169999D01*
X68686681Y-53131572D01*
X68686693Y-53131569D01*
X68868671Y-53056192D01*
X68868684Y-53056185D01*
X69032462Y-52946751D01*
X69032466Y-52946748D01*
X69171748Y-52807466D01*
X69171751Y-52807462D01*
X69281185Y-52643684D01*
X69281192Y-52643671D01*
X69356569Y-52461692D01*
X69356569Y-52461690D01*
X69364862Y-52420000D01*
X68561988Y-52420000D01*
X68579205Y-52410060D01*
X68635060Y-52354205D01*
X68674556Y-52285796D01*
X68695000Y-52209496D01*
X68695000Y-52130504D01*
X68674556Y-52054204D01*
X68635060Y-51985795D01*
X68579205Y-51929940D01*
X68561988Y-51920000D01*
X69364863Y-51920000D01*
X69356941Y-51880172D01*
X69356941Y-51880171D01*
X69356939Y-51880165D01*
X69356570Y-51878309D01*
X69356569Y-51878307D01*
X69350688Y-51864108D01*
X83889500Y-51864108D01*
X83889500Y-51995892D01*
X83897920Y-52027316D01*
X83923608Y-52123187D01*
X83927833Y-52130504D01*
X83989500Y-52237314D01*
X84082686Y-52330500D01*
X84196814Y-52396392D01*
X84324108Y-52430500D01*
X84324110Y-52430500D01*
X84455890Y-52430500D01*
X84455892Y-52430500D01*
X84583186Y-52396392D01*
X84697314Y-52330500D01*
X84790500Y-52237314D01*
X84856392Y-52123186D01*
X84890500Y-51995892D01*
X84890500Y-51864108D01*
X84856392Y-51736814D01*
X84856390Y-51736810D01*
X84839747Y-51707983D01*
X84839746Y-51707982D01*
X84821750Y-51676812D01*
X84808642Y-51654108D01*
X85949500Y-51654108D01*
X85949500Y-51785892D01*
X85966554Y-51849539D01*
X85983608Y-51913187D01*
X85996717Y-51935892D01*
X86049500Y-52027314D01*
X86142686Y-52120500D01*
X86256814Y-52186392D01*
X86384108Y-52220500D01*
X86384110Y-52220500D01*
X86515890Y-52220500D01*
X86515892Y-52220500D01*
X86643186Y-52186392D01*
X86757314Y-52120500D01*
X86850500Y-52027314D01*
X86916392Y-51913186D01*
X86945619Y-51804108D01*
X88869500Y-51804108D01*
X88869500Y-51935891D01*
X88903608Y-52063187D01*
X88931420Y-52111358D01*
X88969500Y-52177314D01*
X89062686Y-52270500D01*
X89161521Y-52327563D01*
X89166603Y-52330497D01*
X89176814Y-52336392D01*
X89304108Y-52370500D01*
X89304110Y-52370500D01*
X89435890Y-52370500D01*
X89435892Y-52370500D01*
X89563186Y-52336392D01*
X89677314Y-52270500D01*
X89770500Y-52177314D01*
X89836392Y-52063186D01*
X89870500Y-51935892D01*
X89870500Y-51804108D01*
X89836392Y-51676814D01*
X89770500Y-51562686D01*
X89677314Y-51469500D01*
X89608032Y-51429500D01*
X89563187Y-51403608D01*
X89447782Y-51372686D01*
X89435892Y-51369500D01*
X89304108Y-51369500D01*
X89176812Y-51403608D01*
X89062686Y-51469500D01*
X89062683Y-51469502D01*
X88969502Y-51562683D01*
X88969500Y-51562686D01*
X88903608Y-51676812D01*
X88869500Y-51804108D01*
X86945619Y-51804108D01*
X86950500Y-51785892D01*
X86950500Y-51654108D01*
X86916392Y-51526814D01*
X86850500Y-51412686D01*
X86757314Y-51319500D01*
X86643186Y-51253608D01*
X86515892Y-51219500D01*
X86384108Y-51219500D01*
X86256812Y-51253608D01*
X86142686Y-51319500D01*
X86142683Y-51319502D01*
X86049502Y-51412683D01*
X86049500Y-51412686D01*
X85983608Y-51526812D01*
X85973997Y-51562683D01*
X85949500Y-51654108D01*
X84808642Y-51654108D01*
X84790500Y-51622686D01*
X84697314Y-51529500D01*
X84623380Y-51486814D01*
X84583187Y-51463608D01*
X84519539Y-51446554D01*
X84455892Y-51429500D01*
X84324108Y-51429500D01*
X84196812Y-51463608D01*
X84082686Y-51529500D01*
X84082683Y-51529502D01*
X83989502Y-51622683D01*
X83989500Y-51622686D01*
X83923608Y-51736812D01*
X83905577Y-51804108D01*
X83889500Y-51864108D01*
X69350688Y-51864108D01*
X69281192Y-51696328D01*
X69281185Y-51696315D01*
X69171751Y-51532537D01*
X69171748Y-51532533D01*
X69032466Y-51393251D01*
X69032462Y-51393248D01*
X68868684Y-51283814D01*
X68868671Y-51283807D01*
X68686693Y-51208430D01*
X68686681Y-51208427D01*
X68493495Y-51170000D01*
X68095000Y-51170000D01*
X68095000Y-51870000D01*
X67595000Y-51870000D01*
X67595000Y-51170000D01*
X67196504Y-51170000D01*
X67003318Y-51208427D01*
X67003306Y-51208430D01*
X66821328Y-51283807D01*
X66821315Y-51283814D01*
X66657537Y-51393248D01*
X66657533Y-51393251D01*
X66518251Y-51532533D01*
X66518248Y-51532537D01*
X66408814Y-51696315D01*
X66408807Y-51696328D01*
X66333430Y-51878307D01*
X66333430Y-51878309D01*
X66325138Y-51920000D01*
X65034862Y-51920000D01*
X65026569Y-51878309D01*
X65026569Y-51878307D01*
X64951192Y-51696328D01*
X64951185Y-51696315D01*
X64841751Y-51532537D01*
X64841748Y-51532533D01*
X64702466Y-51393251D01*
X64702462Y-51393248D01*
X64538684Y-51283814D01*
X64538671Y-51283807D01*
X64356693Y-51208430D01*
X64356681Y-51208427D01*
X64163495Y-51170000D01*
X63915000Y-51170000D01*
X63915000Y-51870000D01*
X63415000Y-51870000D01*
X63415000Y-51170000D01*
X63166504Y-51170000D01*
X62973318Y-51208427D01*
X62973306Y-51208430D01*
X62791328Y-51283807D01*
X62791315Y-51283814D01*
X62627537Y-51393248D01*
X62627533Y-51393251D01*
X62488251Y-51532533D01*
X62488248Y-51532537D01*
X62378814Y-51696315D01*
X62378807Y-51696328D01*
X62303430Y-51878307D01*
X62303430Y-51878309D01*
X62295138Y-51920000D01*
X61500500Y-51920000D01*
X61500500Y-51154108D01*
X92069500Y-51154108D01*
X92069500Y-51285891D01*
X92103608Y-51413187D01*
X92113027Y-51429500D01*
X92169500Y-51527314D01*
X92262686Y-51620500D01*
X92376814Y-51686392D01*
X92504108Y-51720500D01*
X92504110Y-51720500D01*
X92635890Y-51720500D01*
X92635892Y-51720500D01*
X92763186Y-51686392D01*
X92877314Y-51620500D01*
X92883706Y-51614108D01*
X127349500Y-51614108D01*
X127349500Y-51745891D01*
X127383608Y-51873187D01*
X127410636Y-51920000D01*
X127449500Y-51987314D01*
X127449502Y-51987316D01*
X127509504Y-52047318D01*
X127542989Y-52108641D01*
X127538005Y-52178333D01*
X127509510Y-52222675D01*
X127499501Y-52232684D01*
X127499500Y-52232686D01*
X127433608Y-52346812D01*
X127399500Y-52474108D01*
X127399500Y-52605891D01*
X127433608Y-52733187D01*
X127466554Y-52790250D01*
X127499500Y-52847314D01*
X127592686Y-52940500D01*
X127706814Y-53006392D01*
X127834108Y-53040500D01*
X127834110Y-53040500D01*
X127965890Y-53040500D01*
X127965892Y-53040500D01*
X128093186Y-53006392D01*
X128207314Y-52940500D01*
X128300500Y-52847314D01*
X128366392Y-52733186D01*
X128400500Y-52605892D01*
X128400500Y-52474108D01*
X128366392Y-52346814D01*
X128300500Y-52232686D01*
X128240495Y-52172681D01*
X128207010Y-52111358D01*
X128211994Y-52041666D01*
X128240495Y-51997319D01*
X128241924Y-51995890D01*
X128250500Y-51987314D01*
X128316392Y-51873186D01*
X128350500Y-51745892D01*
X128350500Y-51614108D01*
X128316392Y-51486814D01*
X128250500Y-51372686D01*
X128157314Y-51279500D01*
X128100250Y-51246554D01*
X128043187Y-51213608D01*
X127979539Y-51196554D01*
X127915892Y-51179500D01*
X127784108Y-51179500D01*
X127656812Y-51213608D01*
X127542686Y-51279500D01*
X127542683Y-51279502D01*
X127449502Y-51372683D01*
X127449500Y-51372686D01*
X127383608Y-51486812D01*
X127349500Y-51614108D01*
X92883706Y-51614108D01*
X92970500Y-51527314D01*
X93036392Y-51413186D01*
X93070500Y-51285892D01*
X93070500Y-51154108D01*
X93036392Y-51026814D01*
X92970500Y-50912686D01*
X92877314Y-50819500D01*
X92850654Y-50804108D01*
X110849500Y-50804108D01*
X110849500Y-50935891D01*
X110883608Y-51063187D01*
X110916554Y-51120250D01*
X110949500Y-51177314D01*
X111042686Y-51270500D01*
X111156814Y-51336392D01*
X111284108Y-51370500D01*
X111284110Y-51370500D01*
X111415890Y-51370500D01*
X111415892Y-51370500D01*
X111543186Y-51336392D01*
X111657314Y-51270500D01*
X111750500Y-51177314D01*
X111816392Y-51063186D01*
X111850500Y-50935892D01*
X111850500Y-50804108D01*
X111816392Y-50676814D01*
X111750500Y-50562686D01*
X111657314Y-50469500D01*
X111600250Y-50436554D01*
X111543187Y-50403608D01*
X111479539Y-50386554D01*
X111415892Y-50369500D01*
X111284108Y-50369500D01*
X111156812Y-50403608D01*
X111042686Y-50469500D01*
X111042683Y-50469502D01*
X110949502Y-50562683D01*
X110949500Y-50562686D01*
X110883608Y-50676812D01*
X110849500Y-50804108D01*
X92850654Y-50804108D01*
X92820250Y-50786554D01*
X92763187Y-50753608D01*
X92699539Y-50736554D01*
X92635892Y-50719500D01*
X92504108Y-50719500D01*
X92376812Y-50753608D01*
X92262686Y-50819500D01*
X92262683Y-50819502D01*
X92169502Y-50912683D01*
X92169500Y-50912686D01*
X92103608Y-51026812D01*
X92069500Y-51154108D01*
X61500500Y-51154108D01*
X61500500Y-48424108D01*
X70619500Y-48424108D01*
X70619500Y-48555892D01*
X70625106Y-48576814D01*
X70653608Y-48683187D01*
X70686554Y-48740250D01*
X70719500Y-48797314D01*
X70812686Y-48890500D01*
X70926814Y-48956392D01*
X71054108Y-48990500D01*
X71054110Y-48990500D01*
X71185890Y-48990500D01*
X71185892Y-48990500D01*
X71313186Y-48956392D01*
X71427314Y-48890500D01*
X71520500Y-48797314D01*
X71586392Y-48683186D01*
X71599542Y-48634108D01*
X80509500Y-48634108D01*
X80509500Y-48765892D01*
X80517920Y-48797316D01*
X80543608Y-48893187D01*
X80576554Y-48950250D01*
X80609500Y-49007314D01*
X80702686Y-49100500D01*
X80816814Y-49166392D01*
X80944108Y-49200500D01*
X80944110Y-49200500D01*
X81075890Y-49200500D01*
X81075892Y-49200500D01*
X81203186Y-49166392D01*
X81317314Y-49100500D01*
X81410500Y-49007314D01*
X81476392Y-48893186D01*
X81510500Y-48765892D01*
X81510500Y-48704108D01*
X89019500Y-48704108D01*
X89019500Y-48835891D01*
X89053608Y-48963187D01*
X89086554Y-49020250D01*
X89119500Y-49077314D01*
X89212686Y-49170500D01*
X89326814Y-49236392D01*
X89454108Y-49270500D01*
X89454110Y-49270500D01*
X89585890Y-49270500D01*
X89585892Y-49270500D01*
X89713186Y-49236392D01*
X89827314Y-49170500D01*
X89920500Y-49077314D01*
X89986392Y-48963186D01*
X90020500Y-48835892D01*
X90020500Y-48704108D01*
X89986392Y-48576814D01*
X89920500Y-48462686D01*
X89827314Y-48369500D01*
X89770250Y-48336554D01*
X89713187Y-48303608D01*
X89649539Y-48286554D01*
X89585892Y-48269500D01*
X89454108Y-48269500D01*
X89326812Y-48303608D01*
X89212686Y-48369500D01*
X89212683Y-48369502D01*
X89119502Y-48462683D01*
X89119500Y-48462686D01*
X89053608Y-48576812D01*
X89019500Y-48704108D01*
X81510500Y-48704108D01*
X81510500Y-48634108D01*
X81476392Y-48506814D01*
X81410500Y-48392686D01*
X81317314Y-48299500D01*
X81242649Y-48256392D01*
X81203187Y-48233608D01*
X81139539Y-48216554D01*
X81075892Y-48199500D01*
X80944108Y-48199500D01*
X80816812Y-48233608D01*
X80702686Y-48299500D01*
X80702683Y-48299502D01*
X80609502Y-48392683D01*
X80609500Y-48392686D01*
X80543608Y-48506812D01*
X80520277Y-48593886D01*
X80509500Y-48634108D01*
X71599542Y-48634108D01*
X71620500Y-48555892D01*
X71620500Y-48424108D01*
X71586392Y-48296814D01*
X71520500Y-48182686D01*
X71427314Y-48089500D01*
X71352649Y-48046392D01*
X71313187Y-48023608D01*
X71249539Y-48006554D01*
X71185892Y-47989500D01*
X71054108Y-47989500D01*
X70926812Y-48023608D01*
X70812686Y-48089500D01*
X70812683Y-48089502D01*
X70719502Y-48182683D01*
X70719500Y-48182686D01*
X70653608Y-48296812D01*
X70634132Y-48369500D01*
X70619500Y-48424108D01*
X61500500Y-48424108D01*
X61500500Y-47724108D01*
X119089500Y-47724108D01*
X119089500Y-47855892D01*
X119097920Y-47887316D01*
X119123608Y-47983187D01*
X119127253Y-47989500D01*
X119189500Y-48097314D01*
X119282686Y-48190500D01*
X119396814Y-48256392D01*
X119524108Y-48290500D01*
X119524110Y-48290500D01*
X119655890Y-48290500D01*
X119655892Y-48290500D01*
X119783186Y-48256392D01*
X119897314Y-48190500D01*
X119990500Y-48097314D01*
X120056392Y-47983186D01*
X120090500Y-47855892D01*
X120090500Y-47724108D01*
X120056392Y-47596814D01*
X119990500Y-47482686D01*
X119897314Y-47389500D01*
X119840250Y-47356554D01*
X119784053Y-47324108D01*
X125439500Y-47324108D01*
X125439500Y-47455892D01*
X125455099Y-47514108D01*
X125473608Y-47583187D01*
X125481475Y-47596812D01*
X125539500Y-47697314D01*
X125632686Y-47790500D01*
X125731521Y-47847563D01*
X125745944Y-47855890D01*
X125746814Y-47856392D01*
X125874108Y-47890500D01*
X125874110Y-47890500D01*
X126005890Y-47890500D01*
X126005892Y-47890500D01*
X126133186Y-47856392D01*
X126247314Y-47790500D01*
X126340500Y-47697314D01*
X126406392Y-47583186D01*
X126424901Y-47514108D01*
X130699500Y-47514108D01*
X130699500Y-47645891D01*
X130733608Y-47773187D01*
X130743604Y-47790500D01*
X130799500Y-47887314D01*
X130892686Y-47980500D01*
X131006814Y-48046392D01*
X131134108Y-48080500D01*
X131134110Y-48080500D01*
X131265890Y-48080500D01*
X131265892Y-48080500D01*
X131393186Y-48046392D01*
X131507314Y-47980500D01*
X131600500Y-47887314D01*
X131666392Y-47773186D01*
X131700500Y-47645892D01*
X131700500Y-47514108D01*
X131666392Y-47386814D01*
X131600500Y-47272686D01*
X131507314Y-47179500D01*
X131450250Y-47146554D01*
X131393187Y-47113608D01*
X131277782Y-47082686D01*
X131265892Y-47079500D01*
X131134108Y-47079500D01*
X131006812Y-47113608D01*
X130892686Y-47179500D01*
X130892683Y-47179502D01*
X130799502Y-47272683D01*
X130799500Y-47272686D01*
X130733608Y-47386812D01*
X130699500Y-47514108D01*
X126424901Y-47514108D01*
X126440500Y-47455892D01*
X126440500Y-47324108D01*
X126406392Y-47196814D01*
X126340500Y-47082686D01*
X126247314Y-46989500D01*
X126162442Y-46940499D01*
X126133187Y-46923608D01*
X126068931Y-46906391D01*
X126005892Y-46889500D01*
X125874108Y-46889500D01*
X125746812Y-46923608D01*
X125632686Y-46989500D01*
X125632683Y-46989502D01*
X125539502Y-47082683D01*
X125539500Y-47082686D01*
X125473608Y-47196812D01*
X125453279Y-47272683D01*
X125439500Y-47324108D01*
X119784053Y-47324108D01*
X119783187Y-47323608D01*
X119719539Y-47306554D01*
X119655892Y-47289500D01*
X119524108Y-47289500D01*
X119396812Y-47323608D01*
X119282686Y-47389500D01*
X119282683Y-47389502D01*
X119189502Y-47482683D01*
X119189500Y-47482686D01*
X119123608Y-47596812D01*
X119096680Y-47697313D01*
X119089500Y-47724108D01*
X61500500Y-47724108D01*
X61500500Y-44942014D01*
X64940000Y-44942014D01*
X64940000Y-45177985D01*
X64970799Y-45411914D01*
X65031870Y-45639837D01*
X65122160Y-45857819D01*
X65122165Y-45857828D01*
X65240144Y-46062171D01*
X65240145Y-46062172D01*
X65302721Y-46143723D01*
X66138958Y-45307487D01*
X66163978Y-45367890D01*
X66235112Y-45474351D01*
X66325649Y-45564888D01*
X66432110Y-45636022D01*
X66492511Y-45661041D01*
X65656275Y-46497277D01*
X65737827Y-46559854D01*
X65737828Y-46559855D01*
X65942171Y-46677834D01*
X65942180Y-46677839D01*
X66160163Y-46768129D01*
X66160161Y-46768129D01*
X66388085Y-46829200D01*
X66622014Y-46859999D01*
X66622029Y-46860000D01*
X66857971Y-46860000D01*
X66857985Y-46859999D01*
X67091914Y-46829200D01*
X67319837Y-46768129D01*
X67537819Y-46677839D01*
X67537828Y-46677834D01*
X67742181Y-46559850D01*
X67823723Y-46497279D01*
X67823723Y-46497276D01*
X66987487Y-45661041D01*
X67047890Y-45636022D01*
X67154351Y-45564888D01*
X67244888Y-45474351D01*
X67316022Y-45367890D01*
X67341041Y-45307487D01*
X68177276Y-46143723D01*
X68177279Y-46143723D01*
X68239850Y-46062181D01*
X68290700Y-45974108D01*
X93099500Y-45974108D01*
X93099500Y-46105892D01*
X93109637Y-46143723D01*
X93133608Y-46233187D01*
X93141475Y-46246812D01*
X93199500Y-46347314D01*
X93292686Y-46440500D01*
X93391025Y-46497276D01*
X93405944Y-46505890D01*
X93406814Y-46506392D01*
X93534108Y-46540500D01*
X93534110Y-46540500D01*
X93665890Y-46540500D01*
X93665892Y-46540500D01*
X93793186Y-46506392D01*
X93907314Y-46440500D01*
X93923706Y-46424108D01*
X117959500Y-46424108D01*
X117959500Y-46555891D01*
X117993608Y-46683187D01*
X118026554Y-46740250D01*
X118059500Y-46797314D01*
X118152686Y-46890500D01*
X118266814Y-46956392D01*
X118394108Y-46990500D01*
X118394110Y-46990500D01*
X118525890Y-46990500D01*
X118525892Y-46990500D01*
X118653186Y-46956392D01*
X118767314Y-46890500D01*
X118860500Y-46797314D01*
X118926392Y-46683186D01*
X118960500Y-46555892D01*
X118960500Y-46424108D01*
X118947103Y-46374108D01*
X123689500Y-46374108D01*
X123689500Y-46505891D01*
X123723608Y-46633187D01*
X123749388Y-46677839D01*
X123789500Y-46747314D01*
X123882686Y-46840500D01*
X123996814Y-46906392D01*
X124124108Y-46940500D01*
X124124110Y-46940500D01*
X124255890Y-46940500D01*
X124255892Y-46940500D01*
X124383186Y-46906392D01*
X124497314Y-46840500D01*
X124590500Y-46747314D01*
X124656392Y-46633186D01*
X124690500Y-46505892D01*
X124690500Y-46374108D01*
X124656392Y-46246814D01*
X124590500Y-46132686D01*
X124497314Y-46039500D01*
X124410712Y-45989500D01*
X124383187Y-45973608D01*
X124319539Y-45956554D01*
X124255892Y-45939500D01*
X124124108Y-45939500D01*
X123996812Y-45973608D01*
X123882686Y-46039500D01*
X123882683Y-46039502D01*
X123789502Y-46132683D01*
X123789500Y-46132686D01*
X123723608Y-46246812D01*
X123689500Y-46374108D01*
X118947103Y-46374108D01*
X118926392Y-46296814D01*
X118860500Y-46182686D01*
X118767314Y-46089500D01*
X118710250Y-46056554D01*
X118653187Y-46023608D01*
X118589539Y-46006554D01*
X118525892Y-45989500D01*
X118394108Y-45989500D01*
X118266812Y-46023608D01*
X118152686Y-46089500D01*
X118152683Y-46089502D01*
X118059502Y-46182683D01*
X118059500Y-46182686D01*
X117993608Y-46296812D01*
X117959500Y-46424108D01*
X93923706Y-46424108D01*
X94000500Y-46347314D01*
X94066392Y-46233186D01*
X94100500Y-46105892D01*
X94100500Y-45974108D01*
X94066392Y-45846814D01*
X94000500Y-45732686D01*
X93907314Y-45639500D01*
X93850250Y-45606554D01*
X93793187Y-45573608D01*
X93729539Y-45556554D01*
X93665892Y-45539500D01*
X93534108Y-45539500D01*
X93406812Y-45573608D01*
X93292686Y-45639500D01*
X93292683Y-45639502D01*
X93199502Y-45732683D01*
X93199500Y-45732686D01*
X93133608Y-45846812D01*
X93108773Y-45939500D01*
X93099500Y-45974108D01*
X68290700Y-45974108D01*
X68331189Y-45903980D01*
X68331190Y-45903978D01*
X68357831Y-45857835D01*
X68357839Y-45857819D01*
X68448129Y-45639837D01*
X68509200Y-45411914D01*
X68539999Y-45177985D01*
X68540000Y-45177971D01*
X68540000Y-45164108D01*
X116759500Y-45164108D01*
X116759500Y-45295892D01*
X116774131Y-45350497D01*
X116793608Y-45423187D01*
X116810929Y-45453187D01*
X116859500Y-45537314D01*
X116952686Y-45630500D01*
X117066814Y-45696392D01*
X117194108Y-45730500D01*
X117194110Y-45730500D01*
X117325890Y-45730500D01*
X117325892Y-45730500D01*
X117453186Y-45696392D01*
X117567314Y-45630500D01*
X117660500Y-45537314D01*
X117726392Y-45423186D01*
X117760500Y-45295892D01*
X117760500Y-45194108D01*
X122809500Y-45194108D01*
X122809500Y-45325892D01*
X122816094Y-45350500D01*
X122843608Y-45453187D01*
X122876554Y-45510250D01*
X122909500Y-45567314D01*
X123002686Y-45660500D01*
X123116814Y-45726392D01*
X123244108Y-45760500D01*
X123244110Y-45760500D01*
X123375890Y-45760500D01*
X123375892Y-45760500D01*
X123503186Y-45726392D01*
X123617314Y-45660500D01*
X123710500Y-45567314D01*
X123752766Y-45494108D01*
X135409500Y-45494108D01*
X135409500Y-45625892D01*
X135413146Y-45639500D01*
X135443608Y-45753187D01*
X135476554Y-45810250D01*
X135509500Y-45867314D01*
X135602686Y-45960500D01*
X135716814Y-46026392D01*
X135844108Y-46060500D01*
X135844110Y-46060500D01*
X135975890Y-46060500D01*
X135975892Y-46060500D01*
X136103186Y-46026392D01*
X136217314Y-45960500D01*
X136310500Y-45867314D01*
X136376392Y-45753186D01*
X136410500Y-45625892D01*
X136410500Y-45494108D01*
X136376392Y-45366814D01*
X136310500Y-45252686D01*
X136217314Y-45159500D01*
X136155859Y-45124019D01*
X136103187Y-45093608D01*
X136003188Y-45066814D01*
X135975892Y-45059500D01*
X135844108Y-45059500D01*
X135716812Y-45093608D01*
X135602686Y-45159500D01*
X135602683Y-45159502D01*
X135509502Y-45252683D01*
X135509500Y-45252686D01*
X135443608Y-45366812D01*
X135416493Y-45468009D01*
X135409500Y-45494108D01*
X123752766Y-45494108D01*
X123776392Y-45453186D01*
X123810500Y-45325892D01*
X123810500Y-45194108D01*
X123776392Y-45066814D01*
X123759071Y-45036814D01*
X123710501Y-44952688D01*
X123710500Y-44952686D01*
X123641922Y-44884108D01*
X130209500Y-44884108D01*
X130209500Y-45015892D01*
X130215106Y-45036814D01*
X130243608Y-45143187D01*
X130263691Y-45177971D01*
X130309500Y-45257314D01*
X130402686Y-45350500D01*
X130516814Y-45416392D01*
X130644108Y-45450500D01*
X130644110Y-45450500D01*
X130775890Y-45450500D01*
X130775892Y-45450500D01*
X130903186Y-45416392D01*
X131017314Y-45350500D01*
X131110500Y-45257314D01*
X131176392Y-45143186D01*
X131210500Y-45015892D01*
X131210500Y-44884108D01*
X131176392Y-44756814D01*
X131110500Y-44642686D01*
X131049118Y-44581304D01*
X144479500Y-44581304D01*
X144479500Y-44758695D01*
X144514103Y-44932658D01*
X144514106Y-44932667D01*
X144581983Y-45096540D01*
X144581990Y-45096553D01*
X144680535Y-45244034D01*
X144680538Y-45244038D01*
X144805961Y-45369461D01*
X144805965Y-45369464D01*
X144953446Y-45468009D01*
X144953459Y-45468016D01*
X145016457Y-45494110D01*
X145117334Y-45535894D01*
X145117336Y-45535894D01*
X145117341Y-45535896D01*
X145291304Y-45570499D01*
X145291307Y-45570500D01*
X145291309Y-45570500D01*
X145468693Y-45570500D01*
X145468694Y-45570499D01*
X145526682Y-45558964D01*
X145642658Y-45535896D01*
X145642661Y-45535894D01*
X145642666Y-45535894D01*
X145806547Y-45468013D01*
X145954035Y-45369464D01*
X146079464Y-45244035D01*
X146178013Y-45096547D01*
X146245894Y-44932666D01*
X146247880Y-44922686D01*
X146268964Y-44816682D01*
X146280500Y-44758691D01*
X146280500Y-44581309D01*
X146280500Y-44581306D01*
X146280499Y-44581304D01*
X146245896Y-44407341D01*
X146245893Y-44407332D01*
X146239052Y-44390817D01*
X146214068Y-44330499D01*
X146178016Y-44243459D01*
X146178009Y-44243446D01*
X146079464Y-44095965D01*
X146079461Y-44095961D01*
X145954038Y-43970538D01*
X145954034Y-43970535D01*
X145806553Y-43871990D01*
X145806540Y-43871983D01*
X145642667Y-43804106D01*
X145642658Y-43804103D01*
X145468694Y-43769500D01*
X145468691Y-43769500D01*
X145291309Y-43769500D01*
X145291306Y-43769500D01*
X145117341Y-43804103D01*
X145117332Y-43804106D01*
X144953459Y-43871983D01*
X144953446Y-43871990D01*
X144805965Y-43970535D01*
X144805961Y-43970538D01*
X144680538Y-44095961D01*
X144680535Y-44095965D01*
X144581990Y-44243446D01*
X144581983Y-44243459D01*
X144514106Y-44407332D01*
X144514103Y-44407341D01*
X144479500Y-44581304D01*
X131049118Y-44581304D01*
X131043729Y-44575915D01*
X131042808Y-44574953D01*
X131027324Y-44545070D01*
X131011210Y-44515558D01*
X131011309Y-44514160D01*
X131010665Y-44512916D01*
X131013793Y-44479433D01*
X131016194Y-44445866D01*
X131017036Y-44444726D01*
X131017165Y-44443349D01*
X131033125Y-44422968D01*
X131052324Y-44397004D01*
X131051567Y-44396247D01*
X131056620Y-44391193D01*
X131056899Y-44390817D01*
X131057302Y-44390506D01*
X131057314Y-44390500D01*
X131150500Y-44297314D01*
X131216392Y-44183186D01*
X131250500Y-44055892D01*
X131250500Y-43924108D01*
X131216392Y-43796814D01*
X131150500Y-43682686D01*
X131057314Y-43589500D01*
X130989764Y-43550500D01*
X130943187Y-43523608D01*
X130879539Y-43506554D01*
X130815892Y-43489500D01*
X130684108Y-43489500D01*
X130556812Y-43523608D01*
X130442686Y-43589500D01*
X130442683Y-43589502D01*
X130349502Y-43682683D01*
X130349500Y-43682686D01*
X130283608Y-43796812D01*
X130263465Y-43871990D01*
X130249500Y-43924108D01*
X130249500Y-44055892D01*
X130264852Y-44113186D01*
X130283608Y-44183187D01*
X130314858Y-44237313D01*
X130349500Y-44297314D01*
X130349502Y-44297316D01*
X130415304Y-44363118D01*
X130448789Y-44424441D01*
X130443805Y-44494133D01*
X130407678Y-44542998D01*
X130408433Y-44543753D01*
X130403399Y-44548786D01*
X130403116Y-44549170D01*
X130402686Y-44549499D01*
X130309502Y-44642683D01*
X130309500Y-44642686D01*
X130243608Y-44756812D01*
X130233749Y-44793608D01*
X130209500Y-44884108D01*
X123641922Y-44884108D01*
X123617314Y-44859500D01*
X123560250Y-44826554D01*
X123503187Y-44793608D01*
X123391223Y-44763608D01*
X123375892Y-44759500D01*
X123244108Y-44759500D01*
X123116812Y-44793608D01*
X123002686Y-44859500D01*
X123002683Y-44859502D01*
X122909502Y-44952683D01*
X122909500Y-44952686D01*
X122843608Y-45066812D01*
X122817538Y-45164108D01*
X122809500Y-45194108D01*
X117760500Y-45194108D01*
X117760500Y-45164108D01*
X117726392Y-45036814D01*
X117660500Y-44922686D01*
X117567314Y-44829500D01*
X117505147Y-44793608D01*
X117453187Y-44763608D01*
X117389539Y-44746554D01*
X117325892Y-44729500D01*
X117194108Y-44729500D01*
X117066812Y-44763608D01*
X116952686Y-44829500D01*
X116952683Y-44829502D01*
X116859502Y-44922683D01*
X116859500Y-44922686D01*
X116793608Y-45036812D01*
X116777601Y-45096553D01*
X116759500Y-45164108D01*
X68540000Y-45164108D01*
X68540000Y-44942028D01*
X68539999Y-44942014D01*
X68509200Y-44708085D01*
X68448129Y-44480162D01*
X68357839Y-44262180D01*
X68357834Y-44262171D01*
X68239855Y-44057828D01*
X68239854Y-44057827D01*
X68177277Y-43976275D01*
X67341041Y-44812511D01*
X67316022Y-44752110D01*
X67244888Y-44645649D01*
X67154351Y-44555112D01*
X67047890Y-44483978D01*
X66987488Y-44458958D01*
X67592337Y-43854108D01*
X114949500Y-43854108D01*
X114949500Y-43985892D01*
X114966554Y-44049539D01*
X114983608Y-44113187D01*
X114989382Y-44123187D01*
X115049500Y-44227314D01*
X115142686Y-44320500D01*
X115256814Y-44386392D01*
X115384108Y-44420500D01*
X115384110Y-44420500D01*
X115515890Y-44420500D01*
X115515892Y-44420500D01*
X115643186Y-44386392D01*
X115757314Y-44320500D01*
X115850500Y-44227314D01*
X115916392Y-44113186D01*
X115950500Y-43985892D01*
X115950500Y-43864108D01*
X121319500Y-43864108D01*
X121319500Y-43995891D01*
X121353608Y-44123187D01*
X121386554Y-44180250D01*
X121419500Y-44237314D01*
X121512686Y-44330500D01*
X121626814Y-44396392D01*
X121754108Y-44430500D01*
X121754110Y-44430500D01*
X121885890Y-44430500D01*
X121885892Y-44430500D01*
X122013186Y-44396392D01*
X122127314Y-44330500D01*
X122220500Y-44237314D01*
X122286392Y-44123186D01*
X122320500Y-43995892D01*
X122320500Y-43864108D01*
X122286392Y-43736814D01*
X122280618Y-43726814D01*
X122255139Y-43682683D01*
X122220500Y-43622686D01*
X122127314Y-43529500D01*
X122058032Y-43489500D01*
X122013187Y-43463608D01*
X121933140Y-43442160D01*
X121885892Y-43429500D01*
X121754108Y-43429500D01*
X121626812Y-43463608D01*
X121512686Y-43529500D01*
X121512683Y-43529502D01*
X121419502Y-43622683D01*
X121419500Y-43622686D01*
X121353608Y-43736812D01*
X121319500Y-43864108D01*
X115950500Y-43864108D01*
X115950500Y-43854108D01*
X115916392Y-43726814D01*
X115850500Y-43612686D01*
X115757314Y-43519500D01*
X115700250Y-43486554D01*
X115643187Y-43453608D01*
X115579539Y-43436554D01*
X115515892Y-43419500D01*
X115384108Y-43419500D01*
X115256812Y-43453608D01*
X115142686Y-43519500D01*
X115142683Y-43519502D01*
X115049502Y-43612683D01*
X115049500Y-43612686D01*
X114983608Y-43726812D01*
X114962898Y-43804106D01*
X114949500Y-43854108D01*
X67592337Y-43854108D01*
X67688145Y-43758300D01*
X67823723Y-43622721D01*
X67742172Y-43560145D01*
X67742171Y-43560144D01*
X67537828Y-43442165D01*
X67537819Y-43442160D01*
X67319836Y-43351870D01*
X67319838Y-43351870D01*
X67091914Y-43290799D01*
X66857985Y-43260000D01*
X66622014Y-43260000D01*
X66388085Y-43290799D01*
X66160162Y-43351870D01*
X65942180Y-43442160D01*
X65942171Y-43442165D01*
X65737828Y-43560144D01*
X65737818Y-43560150D01*
X65656275Y-43622720D01*
X65656275Y-43622721D01*
X66492512Y-44458958D01*
X66432110Y-44483978D01*
X66325649Y-44555112D01*
X66235112Y-44645649D01*
X66163978Y-44752110D01*
X66138958Y-44812512D01*
X65302721Y-43976275D01*
X65302720Y-43976275D01*
X65240150Y-44057818D01*
X65240144Y-44057828D01*
X65122165Y-44262171D01*
X65122160Y-44262180D01*
X65031870Y-44480162D01*
X64970799Y-44708085D01*
X64940000Y-44942014D01*
X61500500Y-44942014D01*
X61500500Y-42344108D01*
X93219500Y-42344108D01*
X93219500Y-42475891D01*
X93253608Y-42603187D01*
X93280347Y-42649500D01*
X93319500Y-42717314D01*
X93412686Y-42810500D01*
X93526814Y-42876392D01*
X93654108Y-42910500D01*
X93654110Y-42910500D01*
X93785890Y-42910500D01*
X93785892Y-42910500D01*
X93913186Y-42876392D01*
X94027314Y-42810500D01*
X94120500Y-42717314D01*
X94180086Y-42614108D01*
X114159500Y-42614108D01*
X114159500Y-42745892D01*
X114176554Y-42809539D01*
X114193608Y-42873187D01*
X114210929Y-42903187D01*
X114259500Y-42987314D01*
X114352686Y-43080500D01*
X114466814Y-43146392D01*
X114594108Y-43180500D01*
X114594110Y-43180500D01*
X114725890Y-43180500D01*
X114725892Y-43180500D01*
X114853186Y-43146392D01*
X114967314Y-43080500D01*
X115060500Y-42987314D01*
X115126392Y-42873186D01*
X115160500Y-42745892D01*
X115160500Y-42644108D01*
X120029500Y-42644108D01*
X120029500Y-42775891D01*
X120063608Y-42903187D01*
X120096554Y-42960250D01*
X120129500Y-43017314D01*
X120222686Y-43110500D01*
X120336814Y-43176392D01*
X120464108Y-43210500D01*
X120464110Y-43210500D01*
X120595890Y-43210500D01*
X120595892Y-43210500D01*
X120723186Y-43176392D01*
X120837314Y-43110500D01*
X120930500Y-43017314D01*
X120949672Y-42984108D01*
X132689500Y-42984108D01*
X132689500Y-43115892D01*
X132705711Y-43176391D01*
X132723608Y-43243187D01*
X132751097Y-43290799D01*
X132789500Y-43357314D01*
X132882686Y-43450500D01*
X132996814Y-43516392D01*
X133124108Y-43550500D01*
X133124110Y-43550500D01*
X133255890Y-43550500D01*
X133255892Y-43550500D01*
X133383186Y-43516392D01*
X133497314Y-43450500D01*
X133590500Y-43357314D01*
X133656392Y-43243186D01*
X133690500Y-43115892D01*
X133690500Y-42984108D01*
X133656392Y-42856814D01*
X133590500Y-42742686D01*
X133497314Y-42649500D01*
X133417096Y-42603186D01*
X133383187Y-42583608D01*
X133319539Y-42566554D01*
X133255892Y-42549500D01*
X133124108Y-42549500D01*
X132996812Y-42583608D01*
X132882686Y-42649500D01*
X132882683Y-42649502D01*
X132789502Y-42742683D01*
X132789500Y-42742686D01*
X132723608Y-42856812D01*
X132689500Y-42984108D01*
X120949672Y-42984108D01*
X120996392Y-42903186D01*
X121030500Y-42775892D01*
X121030500Y-42644108D01*
X120996392Y-42516814D01*
X120930500Y-42402686D01*
X120837314Y-42309500D01*
X120780250Y-42276554D01*
X120723187Y-42243608D01*
X120623188Y-42216814D01*
X120595892Y-42209500D01*
X120464108Y-42209500D01*
X120336812Y-42243608D01*
X120222686Y-42309500D01*
X120222683Y-42309502D01*
X120129502Y-42402683D01*
X120129500Y-42402686D01*
X120063608Y-42516812D01*
X120029500Y-42644108D01*
X115160500Y-42644108D01*
X115160500Y-42614108D01*
X115126392Y-42486814D01*
X115060500Y-42372686D01*
X114967314Y-42279500D01*
X114905147Y-42243608D01*
X114853187Y-42213608D01*
X114789539Y-42196554D01*
X114725892Y-42179500D01*
X114594108Y-42179500D01*
X114466812Y-42213608D01*
X114352686Y-42279500D01*
X114352683Y-42279502D01*
X114259502Y-42372683D01*
X114259500Y-42372686D01*
X114193608Y-42486812D01*
X114162426Y-42603187D01*
X114159500Y-42614108D01*
X94180086Y-42614108D01*
X94186392Y-42603186D01*
X94220500Y-42475892D01*
X94220500Y-42344108D01*
X94186392Y-42216814D01*
X94120500Y-42102686D01*
X94027314Y-42009500D01*
X93970250Y-41976554D01*
X93913187Y-41943608D01*
X93849539Y-41926554D01*
X93785892Y-41909500D01*
X93654108Y-41909500D01*
X93526812Y-41943608D01*
X93412686Y-42009500D01*
X93412683Y-42009502D01*
X93319502Y-42102683D01*
X93319500Y-42102686D01*
X93253608Y-42216812D01*
X93219500Y-42344108D01*
X61500500Y-42344108D01*
X61500500Y-38955730D01*
X65239500Y-38955730D01*
X65239500Y-41164269D01*
X65242353Y-41194699D01*
X65242353Y-41194701D01*
X65280315Y-41303186D01*
X65287207Y-41322882D01*
X65367850Y-41432150D01*
X65477118Y-41512793D01*
X65519845Y-41527744D01*
X65605299Y-41557646D01*
X65635730Y-41560500D01*
X65635734Y-41560500D01*
X67844270Y-41560500D01*
X67874699Y-41557646D01*
X67874701Y-41557646D01*
X67938790Y-41535219D01*
X68002882Y-41512793D01*
X68112150Y-41432150D01*
X68192793Y-41322882D01*
X68215219Y-41258790D01*
X68237646Y-41194701D01*
X68237646Y-41194699D01*
X68240500Y-41164269D01*
X68240500Y-40844108D01*
X76559500Y-40844108D01*
X76559500Y-40975891D01*
X76593608Y-41103187D01*
X76604866Y-41122686D01*
X76659500Y-41217314D01*
X76752686Y-41310500D01*
X76866814Y-41376392D01*
X76994108Y-41410500D01*
X76994110Y-41410500D01*
X77125890Y-41410500D01*
X77125892Y-41410500D01*
X77253186Y-41376392D01*
X77367314Y-41310500D01*
X77393706Y-41284108D01*
X92489500Y-41284108D01*
X92489500Y-41415892D01*
X92493856Y-41432149D01*
X92523608Y-41543187D01*
X92546413Y-41582686D01*
X92589500Y-41657314D01*
X92682686Y-41750500D01*
X92796814Y-41816392D01*
X92924108Y-41850500D01*
X92924110Y-41850500D01*
X93055890Y-41850500D01*
X93055892Y-41850500D01*
X93183186Y-41816392D01*
X93297314Y-41750500D01*
X93390500Y-41657314D01*
X93456392Y-41543186D01*
X93490500Y-41415892D01*
X93490500Y-41364108D01*
X113169500Y-41364108D01*
X113169500Y-41495892D01*
X113173414Y-41510499D01*
X113203608Y-41623187D01*
X113223311Y-41657313D01*
X113269500Y-41737314D01*
X113362686Y-41830500D01*
X113476814Y-41896392D01*
X113604108Y-41930500D01*
X113604110Y-41930500D01*
X113735890Y-41930500D01*
X113735892Y-41930500D01*
X113863186Y-41896392D01*
X113977314Y-41830500D01*
X114070500Y-41737314D01*
X114136392Y-41623186D01*
X114170500Y-41495892D01*
X114170500Y-41364108D01*
X119569500Y-41364108D01*
X119569500Y-41495892D01*
X119573414Y-41510499D01*
X119603608Y-41623187D01*
X119623311Y-41657313D01*
X119669500Y-41737314D01*
X119762686Y-41830500D01*
X119876814Y-41896392D01*
X120004108Y-41930500D01*
X120004110Y-41930500D01*
X120135890Y-41930500D01*
X120135892Y-41930500D01*
X120263186Y-41896392D01*
X120377314Y-41830500D01*
X120383706Y-41824108D01*
X134589500Y-41824108D01*
X134589500Y-41955891D01*
X134623608Y-42083187D01*
X134634866Y-42102686D01*
X134689500Y-42197314D01*
X134782686Y-42290500D01*
X134896814Y-42356392D01*
X135024108Y-42390500D01*
X135024110Y-42390500D01*
X135155890Y-42390500D01*
X135155892Y-42390500D01*
X135283186Y-42356392D01*
X135397314Y-42290500D01*
X135490500Y-42197314D01*
X135556392Y-42083186D01*
X135590500Y-41955892D01*
X135590500Y-41824108D01*
X135556392Y-41696814D01*
X135490500Y-41582686D01*
X135397314Y-41489500D01*
X135340250Y-41456554D01*
X135283187Y-41423608D01*
X135219539Y-41406554D01*
X135155892Y-41389500D01*
X135024108Y-41389500D01*
X134896812Y-41423608D01*
X134782686Y-41489500D01*
X134782683Y-41489502D01*
X134689502Y-41582683D01*
X134689500Y-41582686D01*
X134623608Y-41696812D01*
X134589500Y-41824108D01*
X120383706Y-41824108D01*
X120470500Y-41737314D01*
X120536392Y-41623186D01*
X120570500Y-41495892D01*
X120570500Y-41364108D01*
X120536392Y-41236814D01*
X120470500Y-41122686D01*
X120391922Y-41044108D01*
X138329500Y-41044108D01*
X138329500Y-41175892D01*
X138345823Y-41236812D01*
X138363608Y-41303187D01*
X138396554Y-41360250D01*
X138429500Y-41417314D01*
X138522686Y-41510500D01*
X138636814Y-41576392D01*
X138764108Y-41610500D01*
X138764110Y-41610500D01*
X138895890Y-41610500D01*
X138895892Y-41610500D01*
X139023186Y-41576392D01*
X139137314Y-41510500D01*
X139230500Y-41417314D01*
X139296392Y-41303186D01*
X139330500Y-41175892D01*
X139330500Y-41044108D01*
X139296392Y-40916814D01*
X139230500Y-40802686D01*
X139137314Y-40709500D01*
X139080250Y-40676554D01*
X139023187Y-40643608D01*
X138959539Y-40626554D01*
X138895892Y-40609500D01*
X138764108Y-40609500D01*
X138636812Y-40643608D01*
X138522686Y-40709500D01*
X138522683Y-40709502D01*
X138429502Y-40802683D01*
X138429500Y-40802686D01*
X138363608Y-40916812D01*
X138347778Y-40975892D01*
X138329500Y-41044108D01*
X120391922Y-41044108D01*
X120377314Y-41029500D01*
X120320250Y-40996554D01*
X120263187Y-40963608D01*
X120199539Y-40946554D01*
X120135892Y-40929500D01*
X120004108Y-40929500D01*
X119876812Y-40963608D01*
X119762686Y-41029500D01*
X119762683Y-41029502D01*
X119669502Y-41122683D01*
X119669500Y-41122686D01*
X119603608Y-41236812D01*
X119583865Y-41310497D01*
X119569500Y-41364108D01*
X114170500Y-41364108D01*
X114136392Y-41236814D01*
X114070500Y-41122686D01*
X113977314Y-41029500D01*
X113920250Y-40996554D01*
X113863187Y-40963608D01*
X113799539Y-40946554D01*
X113735892Y-40929500D01*
X113604108Y-40929500D01*
X113476812Y-40963608D01*
X113362686Y-41029500D01*
X113362683Y-41029502D01*
X113269502Y-41122683D01*
X113269500Y-41122686D01*
X113203608Y-41236812D01*
X113183865Y-41310497D01*
X113169500Y-41364108D01*
X93490500Y-41364108D01*
X93490500Y-41284108D01*
X93456392Y-41156814D01*
X93390500Y-41042686D01*
X93297314Y-40949500D01*
X93240250Y-40916554D01*
X93183187Y-40883608D01*
X93119539Y-40866554D01*
X93055892Y-40849500D01*
X92924108Y-40849500D01*
X92796812Y-40883608D01*
X92682686Y-40949500D01*
X92682683Y-40949502D01*
X92589502Y-41042683D01*
X92589500Y-41042686D01*
X92523608Y-41156812D01*
X92502173Y-41236812D01*
X92489500Y-41284108D01*
X77393706Y-41284108D01*
X77460500Y-41217314D01*
X77526392Y-41103186D01*
X77560500Y-40975892D01*
X77560500Y-40844108D01*
X77526392Y-40716814D01*
X77460500Y-40602686D01*
X77367314Y-40509500D01*
X77310250Y-40476554D01*
X77253187Y-40443608D01*
X77189539Y-40426554D01*
X77125892Y-40409500D01*
X76994108Y-40409500D01*
X76866812Y-40443608D01*
X76752686Y-40509500D01*
X76752683Y-40509502D01*
X76659502Y-40602683D01*
X76659500Y-40602686D01*
X76593608Y-40716812D01*
X76559500Y-40844108D01*
X68240500Y-40844108D01*
X68240500Y-39464108D01*
X76299500Y-39464108D01*
X76299500Y-39595891D01*
X76333608Y-39723187D01*
X76366554Y-39780250D01*
X76399500Y-39837314D01*
X76492686Y-39930500D01*
X76606814Y-39996392D01*
X76734108Y-40030500D01*
X76734110Y-40030500D01*
X76865890Y-40030500D01*
X76865892Y-40030500D01*
X76993186Y-39996392D01*
X77107314Y-39930500D01*
X77200500Y-39837314D01*
X77266392Y-39723186D01*
X77300500Y-39595892D01*
X77300500Y-39464108D01*
X77266392Y-39336814D01*
X77200500Y-39222686D01*
X77107314Y-39129500D01*
X77050250Y-39096554D01*
X76993187Y-39063608D01*
X76929539Y-39046554D01*
X76865892Y-39029500D01*
X76734108Y-39029500D01*
X76606812Y-39063608D01*
X76492686Y-39129500D01*
X76492683Y-39129502D01*
X76399502Y-39222683D01*
X76399500Y-39222686D01*
X76333608Y-39336812D01*
X76299500Y-39464108D01*
X68240500Y-39464108D01*
X68240500Y-38955730D01*
X68237646Y-38925300D01*
X68237646Y-38925298D01*
X68192793Y-38797119D01*
X68192792Y-38797117D01*
X68112150Y-38687850D01*
X68002882Y-38607207D01*
X68002880Y-38607206D01*
X67874700Y-38562353D01*
X67844270Y-38559500D01*
X67844266Y-38559500D01*
X65635734Y-38559500D01*
X65635730Y-38559500D01*
X65605300Y-38562353D01*
X65605298Y-38562353D01*
X65477119Y-38607206D01*
X65477117Y-38607207D01*
X65367850Y-38687850D01*
X65287207Y-38797117D01*
X65287206Y-38797119D01*
X65242353Y-38925298D01*
X65242353Y-38925300D01*
X65239500Y-38955730D01*
X61500500Y-38955730D01*
X61500500Y-37984108D01*
X76589500Y-37984108D01*
X76589500Y-38115891D01*
X76623608Y-38243187D01*
X76656554Y-38300250D01*
X76689500Y-38357314D01*
X76782686Y-38450500D01*
X76896814Y-38516392D01*
X77024108Y-38550500D01*
X77024110Y-38550500D01*
X77155890Y-38550500D01*
X77155892Y-38550500D01*
X77283186Y-38516392D01*
X77397314Y-38450500D01*
X77490500Y-38357314D01*
X77556392Y-38243186D01*
X77590500Y-38115892D01*
X77590500Y-37984108D01*
X77556392Y-37856814D01*
X77490500Y-37742686D01*
X77397314Y-37649500D01*
X77340250Y-37616554D01*
X77283187Y-37583608D01*
X77219539Y-37566554D01*
X77155892Y-37549500D01*
X77024108Y-37549500D01*
X76896812Y-37583608D01*
X76782686Y-37649500D01*
X76782683Y-37649502D01*
X76689502Y-37742683D01*
X76689500Y-37742686D01*
X76623608Y-37856812D01*
X76589500Y-37984108D01*
X61500500Y-37984108D01*
X61500500Y-32881995D01*
X63199500Y-32881995D01*
X63199500Y-33118004D01*
X63199501Y-33118020D01*
X63230306Y-33352010D01*
X63291394Y-33579993D01*
X63381714Y-33798045D01*
X63381719Y-33798056D01*
X63409361Y-33845932D01*
X63499727Y-34002450D01*
X63499729Y-34002453D01*
X63499730Y-34002454D01*
X63643406Y-34189697D01*
X63643412Y-34189704D01*
X63810295Y-34356587D01*
X63810302Y-34356593D01*
X63858385Y-34393488D01*
X63997550Y-34500273D01*
X64128918Y-34576118D01*
X64201943Y-34618280D01*
X64201948Y-34618282D01*
X64201951Y-34618284D01*
X64420007Y-34708606D01*
X64647986Y-34769693D01*
X64881989Y-34800500D01*
X64881996Y-34800500D01*
X65118004Y-34800500D01*
X65118011Y-34800500D01*
X65352014Y-34769693D01*
X65579993Y-34708606D01*
X65798049Y-34618284D01*
X66002450Y-34500273D01*
X66189699Y-34356592D01*
X66356592Y-34189699D01*
X66500273Y-34002450D01*
X66618284Y-33798049D01*
X66708606Y-33579993D01*
X66769693Y-33352014D01*
X66800500Y-33118011D01*
X66800500Y-32881989D01*
X66769693Y-32647986D01*
X66708606Y-32420007D01*
X66618284Y-32201951D01*
X66618282Y-32201948D01*
X66618280Y-32201943D01*
X66576118Y-32128918D01*
X66500273Y-31997550D01*
X66356592Y-31810301D01*
X66356587Y-31810295D01*
X66189704Y-31643412D01*
X66189697Y-31643406D01*
X66002454Y-31499730D01*
X66002453Y-31499729D01*
X66002450Y-31499727D01*
X65920957Y-31452677D01*
X65798056Y-31381719D01*
X65798045Y-31381714D01*
X65579993Y-31291394D01*
X65352010Y-31230306D01*
X65118020Y-31199501D01*
X65118017Y-31199500D01*
X65118011Y-31199500D01*
X64881989Y-31199500D01*
X64881983Y-31199500D01*
X64881979Y-31199501D01*
X64647989Y-31230306D01*
X64420006Y-31291394D01*
X64201954Y-31381714D01*
X64201943Y-31381719D01*
X63997545Y-31499730D01*
X63810302Y-31643406D01*
X63810295Y-31643412D01*
X63643412Y-31810295D01*
X63643406Y-31810302D01*
X63499730Y-31997545D01*
X63381719Y-32201943D01*
X63381714Y-32201954D01*
X63291394Y-32420006D01*
X63230306Y-32647989D01*
X63199501Y-32881979D01*
X63199500Y-32881995D01*
X61500500Y-32881995D01*
X61500500Y-29624500D01*
X61520185Y-29557461D01*
X61572989Y-29511706D01*
X61624500Y-29500500D01*
X75426000Y-29500500D01*
X75493039Y-29520185D01*
G37*
%TD.AperFunction*%
%TD*%
M02*
