%TF.GenerationSoftware,KiCad,Pcbnew,9.0.4*%
%TF.CreationDate,2026-07-11T09:35:20-05:00*%
%TF.ProjectId,alarm_system_hardware,616c6172-6d5f-4737-9973-74656d5f6861,rev?*%
%TF.SameCoordinates,Original*%
%TF.FileFunction,Soldermask,Top*%
%TF.FilePolarity,Negative*%
%FSLAX46Y46*%
G04 Gerber Fmt 4.6, Leading zero omitted, Abs format (unit mm)*
G04 Created by KiCad (PCBNEW 9.0.4) date 2026-07-11 09:35:20*
%MOMM*%
%LPD*%
G01*
G04 APERTURE LIST*
G04 Aperture macros list*
%AMRoundRect*
0 Rectangle with rounded corners*
0 $1 Rounding radius*
0 $2 $3 $4 $5 $6 $7 $8 $9 X,Y pos of 4 corners*
0 Add a 4 corners polygon primitive as box body*
4,1,4,$2,$3,$4,$5,$6,$7,$8,$9,$2,$3,0*
0 Add four circle primitives for the rounded corners*
1,1,$1+$1,$2,$3*
1,1,$1+$1,$4,$5*
1,1,$1+$1,$6,$7*
1,1,$1+$1,$8,$9*
0 Add four rect primitives between the rounded corners*
20,1,$1+$1,$2,$3,$4,$5,0*
20,1,$1+$1,$4,$5,$6,$7,0*
20,1,$1+$1,$6,$7,$8,$9,0*
20,1,$1+$1,$8,$9,$2,$3,0*%
G04 Aperture macros list end*
%ADD10R,1.500000X0.900000*%
%ADD11R,0.900000X1.500000*%
%ADD12R,3.900000X3.900000*%
%ADD13RoundRect,0.250000X0.350000X0.450000X-0.350000X0.450000X-0.350000X-0.450000X0.350000X-0.450000X0*%
%ADD14RoundRect,0.250000X0.475000X-0.337500X0.475000X0.337500X-0.475000X0.337500X-0.475000X-0.337500X0*%
%ADD15RoundRect,0.250000X-0.400000X-0.625000X0.400000X-0.625000X0.400000X0.625000X-0.400000X0.625000X0*%
%ADD16RoundRect,0.062500X-0.350000X-0.062500X0.350000X-0.062500X0.350000X0.062500X-0.350000X0.062500X0*%
%ADD17RoundRect,0.062500X-0.062500X-0.350000X0.062500X-0.350000X0.062500X0.350000X-0.062500X0.350000X0*%
%ADD18R,1.230000X1.230000*%
%ADD19RoundRect,0.250000X-0.337500X-0.475000X0.337500X-0.475000X0.337500X0.475000X-0.337500X0.475000X0*%
%ADD20C,3.200000*%
%ADD21C,1.000000*%
%ADD22RoundRect,0.250000X0.337500X0.475000X-0.337500X0.475000X-0.337500X-0.475000X0.337500X-0.475000X0*%
%ADD23RoundRect,0.250000X-0.450000X0.350000X-0.450000X-0.350000X0.450000X-0.350000X0.450000X0.350000X0*%
%ADD24RoundRect,0.250000X-0.350000X-0.450000X0.350000X-0.450000X0.350000X0.450000X-0.350000X0.450000X0*%
%ADD25R,0.625000X0.250000*%
%ADD26R,0.700000X0.450000*%
%ADD27R,0.575000X0.450000*%
%ADD28RoundRect,0.250000X0.250000X-0.250000X0.250000X0.250000X-0.250000X0.250000X-0.250000X-0.250000X0*%
%ADD29R,1.500000X1.500000*%
%ADD30RoundRect,0.243750X-0.456250X0.243750X-0.456250X-0.243750X0.456250X-0.243750X0.456250X0.243750X0*%
%ADD31RoundRect,0.243750X0.243750X0.456250X-0.243750X0.456250X-0.243750X-0.456250X0.243750X-0.456250X0*%
%ADD32RoundRect,0.250000X-0.475000X0.337500X-0.475000X-0.337500X0.475000X-0.337500X0.475000X0.337500X0*%
%ADD33R,0.599999X0.249999*%
%ADD34R,0.900001X0.249999*%
%ADD35R,1.300000X0.249999*%
%ADD36RoundRect,0.250000X0.450000X-0.350000X0.450000X0.350000X-0.450000X0.350000X-0.450000X-0.350000X0*%
%ADD37RoundRect,0.150000X-0.512500X-0.150000X0.512500X-0.150000X0.512500X0.150000X-0.512500X0.150000X0*%
%ADD38R,2.743200X1.600200*%
%ADD39R,0.203200X0.736600*%
%ADD40R,0.406400X0.736600*%
%ADD41RoundRect,0.243750X-0.243750X-0.456250X0.243750X-0.456250X0.243750X0.456250X-0.243750X0.456250X0*%
%ADD42C,0.650000*%
%ADD43RoundRect,0.102000X-0.555000X0.300000X-0.555000X-0.300000X0.555000X-0.300000X0.555000X0.300000X0*%
%ADD44RoundRect,0.102000X-0.575000X0.300000X-0.575000X-0.300000X0.575000X-0.300000X0.575000X0.300000X0*%
%ADD45RoundRect,0.102000X-0.575000X0.150000X-0.575000X-0.150000X0.575000X-0.150000X0.575000X0.150000X0*%
%ADD46O,2.304000X1.204000*%
%ADD47O,2.004000X1.204000*%
%ADD48RoundRect,0.250001X-0.949999X-0.949999X0.949999X-0.949999X0.949999X0.949999X-0.949999X0.949999X0*%
%ADD49C,2.400000*%
%ADD50R,1.700000X1.700000*%
%ADD51C,1.700000*%
%ADD52R,1.524000X1.524000*%
%ADD53C,1.524000*%
%ADD54C,1.320800*%
%ADD55C,1.400000*%
%ADD56RoundRect,0.102000X0.750000X-0.300000X0.750000X0.300000X-0.750000X0.300000X-0.750000X-0.300000X0*%
%ADD57RoundRect,0.102000X1.170000X-0.750000X1.170000X0.750000X-1.170000X0.750000X-1.170000X-0.750000X0*%
%ADD58RoundRect,0.102000X-0.750000X-2.000000X0.750000X-2.000000X0.750000X2.000000X-0.750000X2.000000X0*%
%ADD59R,0.450000X1.475000*%
%ADD60R,4.100000X3.000000*%
%ADD61R,0.812800X0.254000*%
%ADD62R,0.254000X0.812800*%
%ADD63R,2.794000X2.794000*%
%ADD64RoundRect,0.050000X-0.050000X0.375000X-0.050000X-0.375000X0.050000X-0.375000X0.050000X0.375000X0*%
%ADD65RoundRect,0.050000X-0.275000X0.050000X-0.275000X-0.050000X0.275000X-0.050000X0.275000X0.050000X0*%
%ADD66RoundRect,0.250000X-1.050000X1.050000X-1.050000X-1.050000X1.050000X-1.050000X1.050000X1.050000X0*%
%ADD67C,2.600000*%
G04 APERTURE END LIST*
D10*
%TO.C,U2*%
X90800000Y-37600000D03*
X90800000Y-38870000D03*
X90800000Y-40140000D03*
X90800000Y-41410000D03*
X90800000Y-42680000D03*
X90800000Y-43950000D03*
X90800000Y-45220000D03*
X90800000Y-46490000D03*
X90800000Y-47760000D03*
X90800000Y-49030000D03*
X90800000Y-50300000D03*
X90800000Y-51570000D03*
X90800000Y-52840000D03*
X90800000Y-54110000D03*
D11*
X92565000Y-55360000D03*
X93835000Y-55360000D03*
X95105000Y-55360000D03*
X96375000Y-55360000D03*
X97645000Y-55360000D03*
X98915000Y-55360000D03*
X100185000Y-55360000D03*
X101455000Y-55360000D03*
X102725000Y-55360000D03*
X103995000Y-55360000D03*
X105265000Y-55360000D03*
X106535000Y-55360000D03*
D10*
X108300000Y-54110000D03*
X108300000Y-52840000D03*
X108300000Y-51570000D03*
X108300000Y-50300000D03*
X108300000Y-49030000D03*
X108300000Y-47760000D03*
X108300000Y-46490000D03*
X108300000Y-45220000D03*
X108300000Y-43950000D03*
X108300000Y-42680000D03*
X108300000Y-41410000D03*
X108300000Y-40140000D03*
X108300000Y-38870000D03*
X108300000Y-37600000D03*
D12*
X98050000Y-45320000D03*
%TD*%
D13*
%TO.C,R46*%
X70100001Y-66389500D03*
X68100001Y-66389500D03*
%TD*%
%TO.C,R10*%
X79400000Y-48370000D03*
X77400000Y-48370000D03*
%TD*%
%TO.C,R32*%
X72460000Y-87297500D03*
X70460000Y-87297500D03*
%TD*%
D14*
%TO.C,C20*%
X78550000Y-44557500D03*
X78550000Y-42482500D03*
%TD*%
D15*
%TO.C,FB1*%
X74230000Y-54050000D03*
X77330000Y-54050000D03*
%TD*%
D13*
%TO.C,R52*%
X130912500Y-52080000D03*
X128912500Y-52080000D03*
%TD*%
D16*
%TO.C,U3*%
X144075000Y-62230000D03*
X144075000Y-62730000D03*
X144075000Y-63230000D03*
X144075000Y-63730000D03*
D17*
X144762500Y-64417500D03*
X145262500Y-64417500D03*
X145762500Y-64417500D03*
X146262500Y-64417500D03*
D16*
X146950000Y-63730000D03*
X146950000Y-63230000D03*
X146950000Y-62730000D03*
X146950000Y-62230000D03*
D17*
X146262500Y-61542500D03*
X145762500Y-61542500D03*
X145262500Y-61542500D03*
X144762500Y-61542500D03*
D18*
X145512500Y-62980000D03*
%TD*%
D13*
%TO.C,R26*%
X83500000Y-44570000D03*
X81500000Y-44570000D03*
%TD*%
D19*
%TO.C,C5*%
X134220000Y-84930000D03*
X136295000Y-84930000D03*
%TD*%
D20*
%TO.C,REF\u002A\u002A*%
X65000000Y-92700000D03*
%TD*%
D21*
%TO.C,TP3*%
X78770000Y-60620000D03*
%TD*%
D22*
%TO.C,C9*%
X145920000Y-69020000D03*
X143845000Y-69020000D03*
%TD*%
D23*
%TO.C,R36*%
X78670000Y-91160000D03*
X78670000Y-93160000D03*
%TD*%
D21*
%TO.C,TP4*%
X75500000Y-68450000D03*
%TD*%
%TO.C,TP9*%
X76420000Y-60570000D03*
%TD*%
%TO.C,TP8*%
X86730000Y-65162500D03*
%TD*%
D23*
%TO.C,R38*%
X83420000Y-91560000D03*
X83420000Y-93560000D03*
%TD*%
D14*
%TO.C,C18*%
X87510000Y-39387500D03*
X87510000Y-37312500D03*
%TD*%
%TO.C,C22*%
X110712872Y-65140500D03*
X110712872Y-63065500D03*
%TD*%
D23*
%TO.C,R40*%
X90498749Y-68952499D03*
X90498749Y-70952499D03*
%TD*%
D24*
%TO.C,R15*%
X95241250Y-85010000D03*
X97241250Y-85010000D03*
%TD*%
D25*
%TO.C,U5*%
X72305000Y-56780000D03*
X72305000Y-57280000D03*
D26*
X72342500Y-57780000D03*
D25*
X72305000Y-58280000D03*
X72305000Y-58780000D03*
X73080000Y-58780000D03*
X73080000Y-58280000D03*
D27*
X73105000Y-57780000D03*
D25*
X73080000Y-57280000D03*
X73080000Y-56780000D03*
%TD*%
D28*
%TO.C,D9*%
X71600000Y-54027500D03*
X71600000Y-51527500D03*
%TD*%
D29*
%TO.C,SW2*%
X140537500Y-92512500D03*
X148337500Y-92512500D03*
%TD*%
D30*
%TO.C,D10*%
X144400000Y-85532500D03*
X144400000Y-87407500D03*
%TD*%
D31*
%TO.C,D4*%
X104957500Y-76790000D03*
X103082500Y-76790000D03*
%TD*%
D32*
%TO.C,C24*%
X81290000Y-85142500D03*
X81290000Y-87217500D03*
%TD*%
D29*
%TO.C,SW7*%
X74450000Y-45420000D03*
X74450000Y-37620000D03*
%TD*%
D31*
%TO.C,D11*%
X70527500Y-85177500D03*
X68652500Y-85177500D03*
%TD*%
D33*
%TO.C,U1*%
X93818749Y-71129998D03*
X93818749Y-71630000D03*
X93818749Y-72129999D03*
X93818749Y-72629998D03*
X93818749Y-73130000D03*
D34*
X95468751Y-73130000D03*
X95468751Y-72629998D03*
D35*
X95268749Y-72129999D03*
D34*
X95468751Y-71630000D03*
X95468751Y-71129998D03*
%TD*%
D23*
%TO.C,R22*%
X141040000Y-73072500D03*
X141040000Y-75072500D03*
%TD*%
D24*
%TO.C,R7*%
X121560000Y-82610000D03*
X123560000Y-82610000D03*
%TD*%
D36*
%TO.C,R39*%
X88240000Y-70990000D03*
X88240000Y-68990000D03*
%TD*%
D31*
%TO.C,D8*%
X105097500Y-87420000D03*
X103222500Y-87420000D03*
%TD*%
D36*
%TO.C,R42*%
X90528749Y-75192499D03*
X90528749Y-73192499D03*
%TD*%
D30*
%TO.C,D1*%
X141710000Y-85532500D03*
X141710000Y-87407500D03*
%TD*%
D23*
%TO.C,R30*%
X78250000Y-86330000D03*
X78250000Y-88330000D03*
%TD*%
D32*
%TO.C,C17*%
X65110000Y-68742500D03*
X65110000Y-70817500D03*
%TD*%
D24*
%TO.C,R8*%
X147237500Y-82843742D03*
X149237500Y-82843742D03*
%TD*%
%TO.C,R31*%
X64540000Y-85077500D03*
X66540000Y-85077500D03*
%TD*%
D37*
%TO.C,Q1*%
X143282500Y-75020000D03*
X143282500Y-76920000D03*
X145557500Y-75970000D03*
%TD*%
D24*
%TO.C,R1*%
X131940000Y-44520000D03*
X133940000Y-44520000D03*
%TD*%
D29*
%TO.C,SW3*%
X128077500Y-92530000D03*
X135877500Y-92530000D03*
%TD*%
D13*
%TO.C,R6*%
X136217500Y-87350000D03*
X134217500Y-87350000D03*
%TD*%
D14*
%TO.C,C14*%
X75500000Y-76965000D03*
X75500000Y-74890000D03*
%TD*%
D32*
%TO.C,C13*%
X77920000Y-74920000D03*
X77920000Y-76995000D03*
%TD*%
D30*
%TO.C,D3*%
X116540000Y-85532500D03*
X116540000Y-87407500D03*
%TD*%
D24*
%TO.C,R47*%
X70270001Y-72559500D03*
X72270001Y-72559500D03*
%TD*%
%TO.C,R44*%
X68900000Y-75020000D03*
X70900000Y-75020000D03*
%TD*%
D23*
%TO.C,R34*%
X111330000Y-52160000D03*
X111330000Y-54160000D03*
%TD*%
D21*
%TO.C,TP1*%
X84750000Y-56340000D03*
%TD*%
D24*
%TO.C,R11*%
X72500000Y-48470000D03*
X74500000Y-48470000D03*
%TD*%
D23*
%TO.C,R45*%
X72200000Y-66550000D03*
X72200000Y-68550000D03*
%TD*%
D29*
%TO.C,SW8*%
X114570000Y-54080000D03*
X122370000Y-54080000D03*
%TD*%
D22*
%TO.C,C7*%
X95986249Y-69022499D03*
X93911249Y-69022499D03*
%TD*%
D19*
%TO.C,C3*%
X121532500Y-84900000D03*
X123607500Y-84900000D03*
%TD*%
D23*
%TO.C,R3*%
X137372500Y-45580000D03*
X137372500Y-47580000D03*
%TD*%
D36*
%TO.C,R17*%
X105730500Y-65283000D03*
X105730500Y-63283000D03*
%TD*%
D23*
%TO.C,R16*%
X95510000Y-77790000D03*
X95510000Y-79790000D03*
%TD*%
D20*
%TO.C,REF\u002A\u002A*%
X154000000Y-92700000D03*
%TD*%
D30*
%TO.C,D2*%
X128160000Y-85532500D03*
X128160000Y-87407500D03*
%TD*%
D38*
%TO.C,L2*%
X100768749Y-69716199D03*
X100768749Y-74008799D03*
%TD*%
D22*
%TO.C,C21*%
X95497500Y-75690000D03*
X93422500Y-75690000D03*
%TD*%
D36*
%TO.C,R25*%
X76830000Y-65352500D03*
X76830000Y-63352500D03*
%TD*%
D13*
%TO.C,R43*%
X79840000Y-39620000D03*
X77840000Y-39620000D03*
%TD*%
D24*
%TO.C,R14*%
X90721250Y-85010000D03*
X92721250Y-85010000D03*
%TD*%
D36*
%TO.C,R41*%
X90498749Y-79182499D03*
X90498749Y-77182499D03*
%TD*%
D13*
%TO.C,R29*%
X71040000Y-82667500D03*
X69040000Y-82667500D03*
%TD*%
D39*
%TO.C,U10*%
X69090001Y-69654300D03*
X68589999Y-69654300D03*
D40*
X68090000Y-69654300D03*
D39*
X67590001Y-69654300D03*
X67089999Y-69654300D03*
X67089999Y-70619500D03*
X67590001Y-70619500D03*
D40*
X68090000Y-70619500D03*
D39*
X68589999Y-70619500D03*
X69090001Y-70619500D03*
%TD*%
D24*
%TO.C,R21*%
X82320000Y-48710000D03*
X84320000Y-48710000D03*
%TD*%
D41*
%TO.C,F1*%
X86173750Y-85020000D03*
X88048750Y-85020000D03*
%TD*%
D13*
%TO.C,R5*%
X149217500Y-87353742D03*
X147217500Y-87353742D03*
%TD*%
D24*
%TO.C,R9*%
X134217500Y-82440000D03*
X136217500Y-82440000D03*
%TD*%
D22*
%TO.C,C15*%
X73457500Y-78510000D03*
X71382500Y-78510000D03*
%TD*%
D14*
%TO.C,C2*%
X134162500Y-52057500D03*
X134162500Y-49982500D03*
%TD*%
D19*
%TO.C,C16*%
X84012500Y-61272500D03*
X86087500Y-61272500D03*
%TD*%
D14*
%TO.C,C12*%
X81270000Y-83075000D03*
X81270000Y-81000000D03*
%TD*%
D42*
%TO.C,J2*%
X67345000Y-53600000D03*
X67345000Y-59380000D03*
D43*
X68430000Y-53290000D03*
X68430000Y-59690000D03*
D44*
X68410000Y-54090000D03*
D45*
X68410000Y-55240000D03*
X68410000Y-56240000D03*
X68410000Y-56740000D03*
X68410000Y-57740000D03*
D44*
X68410000Y-58890000D03*
D45*
X68410000Y-58240000D03*
X68410000Y-57240000D03*
X68410000Y-55740000D03*
X68410000Y-54740000D03*
D46*
X67845000Y-52170000D03*
D47*
X63665000Y-52170000D03*
D46*
X67845000Y-60810000D03*
D47*
X63665000Y-60810000D03*
%TD*%
D48*
%TO.C,J7*%
X87370000Y-89947500D03*
D49*
X90870000Y-89947500D03*
X94370000Y-89947500D03*
%TD*%
D23*
%TO.C,R37*%
X81360000Y-89550000D03*
X81360000Y-91550000D03*
%TD*%
D31*
%TO.C,D5*%
X104997500Y-79310000D03*
X103122500Y-79310000D03*
%TD*%
D50*
%TO.C,J1*%
X135630000Y-36655000D03*
D51*
X135630000Y-34115000D03*
X138170000Y-36655000D03*
X138170000Y-34115000D03*
X140710000Y-36655000D03*
X140710000Y-34115000D03*
X143250000Y-36655000D03*
X143250000Y-34115000D03*
%TD*%
D21*
%TO.C,TP6*%
X66970000Y-75841500D03*
%TD*%
%TO.C,TP2*%
X82650000Y-58520000D03*
%TD*%
D31*
%TO.C,D7*%
X105037500Y-84670000D03*
X103162500Y-84670000D03*
%TD*%
D52*
%TO.C,BZ1*%
X128310000Y-68840000D03*
D53*
X133310000Y-68840000D03*
%TD*%
D19*
%TO.C,C23*%
X109240000Y-84840000D03*
X111315000Y-84840000D03*
%TD*%
D30*
%TO.C,D13*%
X119120000Y-85532500D03*
X119120000Y-87407500D03*
%TD*%
D13*
%TO.C,R53*%
X142250000Y-78722500D03*
X140250000Y-78722500D03*
%TD*%
D23*
%TO.C,R2*%
X137370000Y-41180000D03*
X137370000Y-43180000D03*
%TD*%
D13*
%TO.C,R51*%
X145920000Y-71320000D03*
X143920000Y-71320000D03*
%TD*%
D54*
%TO.C,J4*%
X151155100Y-64665100D03*
X151155100Y-62665099D03*
%TD*%
D31*
%TO.C,D6*%
X105047500Y-81880000D03*
X103172500Y-81880000D03*
%TD*%
D24*
%TO.C,R33*%
X71210000Y-93630000D03*
X73210000Y-93630000D03*
%TD*%
D14*
%TO.C,C1*%
X136972500Y-52107500D03*
X136972500Y-50032500D03*
%TD*%
D22*
%TO.C,C6*%
X145950000Y-66610000D03*
X143875000Y-66610000D03*
%TD*%
D20*
%TO.C,REF\u002A\u002A*%
X154000000Y-33000000D03*
%TD*%
D29*
%TO.C,SW1*%
X115730000Y-92560000D03*
X123530000Y-92560000D03*
%TD*%
D21*
%TO.C,TP7*%
X74000000Y-63102500D03*
%TD*%
%TO.C,TP5*%
X76000000Y-72010000D03*
%TD*%
D55*
%TO.C,J5*%
X145380000Y-54670000D03*
X145380000Y-44670000D03*
D56*
X142430000Y-44420000D03*
D57*
X150230000Y-56840000D03*
X150230000Y-42500000D03*
D56*
X142430000Y-46770000D03*
X142430000Y-47870000D03*
X142430000Y-48970000D03*
X142430000Y-50070000D03*
X142430000Y-51170000D03*
X142430000Y-52270000D03*
X142430000Y-53370000D03*
X142430000Y-54470000D03*
X142430000Y-45670000D03*
%TD*%
D13*
%TO.C,R4*%
X123540000Y-87270000D03*
X121540000Y-87270000D03*
%TD*%
D23*
%TO.C,R35*%
X75480000Y-92340000D03*
X75480000Y-94340000D03*
%TD*%
D14*
%TO.C,C19*%
X84400000Y-39387500D03*
X84400000Y-37312500D03*
%TD*%
D36*
%TO.C,R50*%
X83250000Y-67802500D03*
X83250000Y-65802500D03*
%TD*%
D13*
%TO.C,R12*%
X111247500Y-87220000D03*
X109247500Y-87220000D03*
%TD*%
%TO.C,R23*%
X88470000Y-48770000D03*
X86470000Y-48770000D03*
%TD*%
D14*
%TO.C,C11*%
X79460000Y-54197500D03*
X79460000Y-52122500D03*
%TD*%
D24*
%TO.C,R20*%
X108996000Y-71386000D03*
X110996000Y-71386000D03*
%TD*%
D23*
%TO.C,R24*%
X82080000Y-39530000D03*
X82080000Y-41530000D03*
%TD*%
D24*
%TO.C,R13*%
X109227500Y-82420000D03*
X111227500Y-82420000D03*
%TD*%
D58*
%TO.C,L1*%
X81920000Y-77260000D03*
X85520000Y-77260000D03*
%TD*%
D36*
%TO.C,R49*%
X79010000Y-67922500D03*
X79010000Y-65922500D03*
%TD*%
D23*
%TO.C,R19*%
X106790000Y-70050000D03*
X106790000Y-72050000D03*
%TD*%
D29*
%TO.C,SW5*%
X103217500Y-92600000D03*
X111017500Y-92600000D03*
%TD*%
D59*
%TO.C,IC1*%
X113126000Y-71216000D03*
X113776000Y-71216000D03*
X114426000Y-71216000D03*
X115076000Y-71216000D03*
X115726000Y-71216000D03*
X116376000Y-71216000D03*
X117026000Y-71216000D03*
X117676000Y-71216000D03*
X118326000Y-71216000D03*
X118976000Y-71216000D03*
X119626000Y-71216000D03*
X120276000Y-71216000D03*
X120926000Y-71216000D03*
X121576000Y-71216000D03*
X121576000Y-65340000D03*
X120926000Y-65340000D03*
X120276000Y-65340000D03*
X119626000Y-65340000D03*
X118976000Y-65340000D03*
X118326000Y-65340000D03*
X117676000Y-65340000D03*
X117026000Y-65340000D03*
X116376000Y-65340000D03*
X115726000Y-65340000D03*
X115076000Y-65340000D03*
X114426000Y-65340000D03*
X113776000Y-65340000D03*
X113126000Y-65340000D03*
D60*
X117351000Y-68278000D03*
%TD*%
D21*
%TO.C,TP10*%
X85940000Y-59160000D03*
%TD*%
D61*
%TO.C,U4*%
X73851500Y-81260000D03*
X73851500Y-81759999D03*
X73851500Y-82260000D03*
X73851500Y-82760000D03*
X73851500Y-83260001D03*
X73851500Y-83760000D03*
D62*
X74570000Y-84478500D03*
X75069999Y-84478500D03*
X75570000Y-84478500D03*
X76070000Y-84478500D03*
X76570001Y-84478500D03*
X77070000Y-84478500D03*
D61*
X77788500Y-83760000D03*
X77788500Y-83260001D03*
X77788500Y-82760000D03*
X77788500Y-82260000D03*
X77788500Y-81759999D03*
X77788500Y-81260000D03*
D62*
X77070000Y-80541500D03*
X76570001Y-80541500D03*
X76070000Y-80541500D03*
X75570000Y-80541500D03*
X75069999Y-80541500D03*
X74570000Y-80541500D03*
D63*
X75820000Y-82510000D03*
%TD*%
D30*
%TO.C,D12*%
X130730000Y-85532500D03*
X130730000Y-87407500D03*
%TD*%
D32*
%TO.C,C8*%
X87350000Y-41682500D03*
X87350000Y-43757500D03*
%TD*%
D23*
%TO.C,R18*%
X108210500Y-65423000D03*
X108210500Y-67423000D03*
%TD*%
D14*
%TO.C,C10*%
X69350000Y-80455000D03*
X69350000Y-78380000D03*
%TD*%
D30*
%TO.C,D15*%
X73100000Y-89652500D03*
X73100000Y-91527500D03*
%TD*%
D64*
%TO.C,U6*%
X81160000Y-61937500D03*
X80760000Y-61937500D03*
D65*
X80135000Y-62062500D03*
X80135000Y-62462500D03*
X80135000Y-62862500D03*
X80135000Y-63262500D03*
D64*
X80760000Y-63387500D03*
X81160000Y-63387500D03*
D65*
X81785000Y-63262500D03*
X81785000Y-62862500D03*
X81785000Y-62462500D03*
X81785000Y-62062500D03*
%TD*%
D23*
%TO.C,R28*%
X139850000Y-61800000D03*
X139850000Y-63800000D03*
%TD*%
D36*
%TO.C,R54*%
X138150000Y-78822500D03*
X138150000Y-76822500D03*
%TD*%
D19*
%TO.C,C4*%
X147250000Y-85120000D03*
X149325000Y-85120000D03*
%TD*%
D23*
%TO.C,R27*%
X139820000Y-65940000D03*
X139820000Y-67940000D03*
%TD*%
D66*
%TO.C,SW4*%
X66740000Y-40060000D03*
D67*
X66740000Y-45060000D03*
%TD*%
D13*
%TO.C,R48*%
X66630001Y-73119500D03*
X64630001Y-73119500D03*
%TD*%
D20*
%TO.C,REF\u002A\u002A*%
X65000000Y-33000000D03*
%TD*%
M02*
