M48
; DRILL file {KiCad 9.0.4} date 2026-07-11T09:35:47-0500
; FORMAT={-:-/ absolute / metric / decimal}
; #@! TF.CreationDate,2026-07-11T09:35:47-05:00
; #@! TF.GenerationSoftware,Kicad,Pcbnew,9.0.4
; #@! TF.FileFunction,Plated,1,4,PTH
FMAT,2
METRIC
; #@! TA.AperFunction,Plated,PTH,ViaDrill
T1C0.300
; #@! TA.AperFunction,Plated,PTH,ComponentDrill
T2C0.600
; #@! TA.AperFunction,Plated,PTH,ComponentDrill
T3C0.813
; #@! TA.AperFunction,Plated,PTH,ComponentDrill
T4C1.000
; #@! TA.AperFunction,Plated,PTH,ComponentDrill
T5C1.016
; #@! TA.AperFunction,Plated,PTH,ComponentDrill
T6C1.200
; #@! TA.AperFunction,Plated,PTH,ComponentDrill
T7C1.300
%
G90
G05
T1
X62.05Y-52.12
X62.09Y-60.86
X62.55Y-59.76
X62.75Y-53.35
X63.23Y-85.05
X63.32Y-73.049
X64.39Y-53.35
X64.51Y-59.7
X64.69Y-71.87
X65.21Y-52.1
X65.27Y-60.81
X65.47Y-71.85
X66.11Y-60.81
X66.21Y-52.14
X67.82Y-82.667
X68.264Y-67.819
X68.57Y-68.439
X68.71Y-76.64
X68.92Y-78.078
X69.03Y-87.31
X69.26Y-58.92
X69.35Y-78.38
X69.83Y-78.047
X70.005Y-58.835
X70.07Y-64.829
X70.626Y-54.976
X70.89Y-50.17
X70.968Y-58.959
X71.0Y-54.61
X71.09Y-78.078
X71.12Y-48.49
X71.12Y-78.938
X71.2Y-92.15
X71.24Y-56.13
X71.382Y-78.51
X71.39Y-57.859
X72.18Y-50.25
X72.19Y-65.18
X72.33Y-75.02
X73.19Y-36.41
X73.51Y-72.609
X74.16Y-57.85
X74.76Y-83.457
X74.77Y-82.498
X74.79Y-81.507
X74.97Y-86.3
X75.29Y-64.062
X75.41Y-95.49
X75.57Y-36.47
X75.59Y-73.557
X75.82Y-81.517
X75.82Y-82.51
X75.83Y-83.388
X76.08Y-78.27
X76.8Y-39.53
X76.81Y-82.498
X76.82Y-83.377
X76.83Y-81.507
X77.06Y-40.91
X77.09Y-38.05
X78.25Y-88.33
X78.54Y-41.3
X78.541Y-62.662
X78.65Y-94.45
X78.93Y-50.63
X79.179Y-63.722
X79.64Y-59.4
X79.95Y-88.93
X80.14Y-50.59
X80.46Y-65.602
X80.46Y-68.672
X80.61Y-87.59
X80.87Y-80.787
X81.01Y-48.7
X81.02Y-54.05
X81.18Y-59.1
X81.27Y-81.237
X81.29Y-87.6
X81.51Y-65.672
X81.51Y-68.742
X81.66Y-80.767
X81.94Y-87.62
X82.61Y-63.972
X82.91Y-56.89
X83.02Y-36.71
X83.08Y-63.322
X83.267Y-62.545
X83.38Y-94.84
X84.39Y-51.93
X85.04Y-60.01
X85.59Y-36.85
X85.76Y-64.172
X86.01Y-54.97
X86.18Y-36.57
X86.45Y-51.72
X87.08Y-54.46
X87.35Y-61.26
X87.37Y-44.97
X88.24Y-67.916
X88.86Y-36.57
X89.37Y-51.87
X89.52Y-48.77
X90.529Y-73.192
X92.57Y-51.22
X92.57Y-61.94
X92.59Y-37.6
X92.751Y-83.29
X92.99Y-41.35
X93.3Y-75.29
X93.505Y-75.959
X93.6Y-46.04
X93.66Y-68.62
X93.72Y-42.41
X93.785Y-58.295
X93.881Y-74.15
X93.94Y-70.1
X94.08Y-69.35
X94.29Y-81.0
X94.569Y-72.055
X94.569Y-73.473
X94.585Y-70.756
X94.795Y-80.495
X95.05Y-57.75
X96.1Y-80.47
X96.37Y-57.11
X96.46Y-44.58
X96.47Y-46.07
X96.63Y-80.98
X97.15Y-43.72
X97.25Y-45.4
X97.3Y-46.84
X97.63Y-57.11
X98.07Y-44.56
X98.08Y-46.05
X98.41Y-53.51
X98.581Y-85.0
X98.76Y-43.71
X98.86Y-45.39
X98.91Y-46.83
X99.46Y-44.58
X99.47Y-46.07
X99.92Y-58.03
X101.22Y-57.89
X101.38Y-92.65
X101.69Y-56.63
X101.89Y-79.25
X101.92Y-87.44
X101.93Y-76.79
X101.93Y-81.82
X101.95Y-84.64
X105.03Y-62.16
X106.16Y-62.13
X106.67Y-37.6
X106.76Y-68.76
X108.93Y-69.85
X110.14Y-62.01
X111.14Y-62.0
X111.35Y-50.87
X112.73Y-84.88
X112.73Y-87.27
X113.12Y-81.71
X113.67Y-41.43
X114.12Y-92.5
X114.66Y-42.68
X115.45Y-43.92
X115.896Y-67.433
X115.97Y-69.143
X116.16Y-60.17
X116.233Y-61.583
X116.53Y-88.442
X117.026Y-61.763
X117.26Y-45.23
X117.369Y-68.26
X117.382Y-67.444
X117.435Y-69.081
X117.693Y-62.553
X118.354Y-63.004
X118.46Y-46.49
X118.791Y-69.1
X118.811Y-67.434
X119.11Y-88.447
X119.23Y-76.76
X119.59Y-47.79
X120.07Y-41.43
X120.44Y-76.08
X120.53Y-42.71
X121.82Y-43.93
X121.89Y-80.16
X123.31Y-45.26
X123.9Y-54.11
X124.17Y-75.11
X124.19Y-46.44
X124.97Y-87.28
X125.05Y-84.91
X125.36Y-74.46
X125.94Y-47.39
X126.48Y-92.54
X127.85Y-51.68
X127.9Y-52.54
X128.162Y-88.417
X130.71Y-44.95
X130.75Y-43.99
X130.762Y-88.667
X131.2Y-47.58
X133.19Y-43.05
X133.81Y-49.69
X134.21Y-80.21
X134.5Y-50.15
X135.09Y-41.89
X135.91Y-45.56
X136.08Y-60.91
X136.61Y-49.78
X137.26Y-50.22
X137.65Y-87.35
X137.68Y-84.93
X138.11Y-64.8
X138.16Y-61.74
X138.171Y-75.722
X138.8Y-92.5
X138.83Y-41.11
X141.03Y-71.65
X141.713Y-88.7
X142.373Y-69.02
X142.412Y-68.31
X142.563Y-67.265
X142.602Y-69.8
X142.71Y-70.78
X142.74Y-66.05
X142.76Y-71.92
X143.87Y-52.27
X144.412Y-88.75
X144.57Y-52.27
X145.23Y-62.68
X145.28Y-63.28
X145.83Y-62.7
X146.9Y-75.96
X148.32Y-80.94
X150.23Y-43.76
X150.23Y-44.52
X150.23Y-49.19
X150.23Y-54.72
X150.23Y-55.51
X150.74Y-85.15
X150.74Y-87.35
T3
X151.155Y-62.665
X151.155Y-64.665
T4
X135.63Y-34.115
X135.63Y-36.655
X138.17Y-34.115
X138.17Y-36.655
X140.71Y-34.115
X140.71Y-36.655
X143.25Y-34.115
X143.25Y-36.655
T5
X128.31Y-68.84
X133.31Y-68.84
T6
X87.37Y-89.947
X90.87Y-89.947
X94.37Y-89.947
T7
X66.74Y-40.06
X66.74Y-45.06
T2
X64.065Y-52.17G85X63.265Y-52.17
G05
X64.065Y-60.81G85X63.265Y-60.81
G05
X68.395Y-52.17G85X67.295Y-52.17
G05
X68.395Y-60.81G85X67.295Y-60.81
G05
M30
